<svg viewBox="0 0 749 422" fill="none" xmlns="http://www.w3.org/2000/svg">
<path d="M330.5 338.5L38 7L248.5 93L388 331.5L330.5 338.5Z" fill="url(#paint0_linear_3_804)" fill-opacity="0.4"/>
<path d="M0.5 422L271.5 254H493L749 422H0.5Z" fill="url(#paint1_linear_3_804)" fill-opacity="0.4"/>
<path d="M371.5 303L254.5 27.5L468.5 18L427 303H371.5Z" fill="url(#paint2_linear_3_804)" fill-opacity="0.4"/>
<path d="M429 296L501.5 0L612 136L458 296H429Z" fill="url(#paint3_linear_3_804)" fill-opacity="0.4"/>
<g clip-path="url(#clip0_3_804)">
<path d="M582.841 345.74C585.096 338.557 586.24 331.071 586.233 323.542C586.233 289.794 563.62 261.33 532.721 252.476C534.971 247.022 536.126 241.178 536.119 235.278C536.119 210.373 515.93 190.183 491.025 190.183C486.851 190.18 482.696 190.756 478.68 191.894C462.009 165.07 432.276 147.208 398.365 147.208C354.518 147.208 317.65 177.074 306.977 217.571C256.16 219.138 215.444 260.82 215.444 312.017C215.433 323.545 217.536 334.977 221.65 345.746L582.841 345.74Z" fill="#1A5468"/>
<path d="M314.524 283.322C295.607 283.322 279.655 296.009 274.71 313.337H354.339C349.393 296.008 333.44 283.322 314.524 283.322ZM423.145 283.322C404.228 283.322 388.276 296.009 383.33 313.337H462.96C458.013 296.008 442.061 283.322 423.145 283.322V283.322Z" fill="#00394D"/>
<path d="M371.395 270.463C344.38 270.463 321.589 288.585 314.524 313.337H428.265C421.201 288.585 398.41 270.463 371.395 270.463Z" fill="#00394D"/>
<path d="M553.098 296.049C538.696 304.639 521.272 301.964 521.272 301.964L573.424 270.857C573.424 270.857 567.499 287.459 553.098 296.049Z" fill="#006A51"/>
<path d="M573.426 270.857L521.273 301.964C521.273 301.964 527.198 285.362 541.595 276.775C555.993 268.187 573.426 270.857 573.426 270.857Z" fill="#159B7B"/>
<path d="M541.675 276.3C536.607 292.285 521.802 301.855 521.802 301.855L540.151 243.967C540.151 243.967 546.742 260.314 541.675 276.3Z" fill="#006A51"/>
<path d="M540.151 243.966L521.803 301.852C521.803 301.852 515.212 285.502 520.279 269.517C525.346 253.532 540.151 243.966 540.151 243.966Z" fill="#159B7B"/>
<path d="M493.2 298.501C489.169 298.502 485.248 299.814 482.03 302.241C478.811 304.667 476.47 308.075 475.36 311.95H511.041C509.931 308.075 507.59 304.667 504.371 302.24C501.152 299.814 497.231 298.501 493.2 298.501V298.501ZM541.871 298.501C537.84 298.502 533.919 299.814 530.7 302.241C527.482 304.667 525.141 308.075 524.031 311.95H559.711C558.602 308.075 556.26 304.667 553.042 302.24C549.823 299.814 545.902 298.501 541.871 298.501V298.501Z" fill="#75BAD2"/>
<path d="M518.683 292.739C506.576 292.739 496.365 300.859 493.2 311.95H544.165C540.999 300.859 530.789 292.739 518.683 292.739V292.739Z" fill="#75BAD2"/>
<path d="M502.832 324.549H298.857C297.046 324.549 295.31 323.83 294.03 322.55C292.75 321.269 292.031 319.533 292.031 317.723C292.031 315.913 292.75 314.177 294.03 312.897C295.31 311.617 297.046 310.898 298.857 310.898H502.832C504.642 310.898 506.378 311.617 507.658 312.897C508.938 314.177 509.657 315.913 509.657 317.723C509.657 319.533 508.938 321.269 507.658 322.55C506.378 323.83 504.642 324.549 502.832 324.549V324.549Z" fill="#458FB0"/>
<path d="M231.689 141.447C218.533 141.447 207.44 150.269 204 162.322H259.378C255.939 150.271 244.839 141.447 231.689 141.447ZM307.229 141.447C294.073 141.447 282.98 150.269 279.54 162.322H334.918C331.481 150.271 320.384 141.447 307.229 141.447Z" fill="#BADDEA"/>
<path d="M271.245 132.505C252.454 132.505 236.608 145.109 231.696 162.319H310.794C305.878 145.107 290.03 132.505 271.245 132.505V132.505Z" fill="#BADDEA"/>
<path d="M236.132 159.327C232.267 159.327 228.507 160.586 225.421 162.914C222.335 165.241 220.091 168.51 219.027 172.226H253.235C252.172 168.51 249.928 165.241 246.842 162.914C243.757 160.587 239.997 159.328 236.132 159.327V159.327ZM282.795 159.327C278.93 159.327 275.17 160.586 272.084 162.914C268.998 165.241 266.753 168.51 265.69 172.226H299.898C298.835 168.51 296.591 165.241 293.505 162.914C290.419 160.587 286.66 159.328 282.795 159.327V159.327Z" fill="white" fill-opacity="0.9"/>
<path d="M260.564 153.802C248.956 153.802 239.167 161.59 236.132 172.221H284.996C281.954 161.588 272.171 153.802 260.564 153.802Z" fill="white" fill-opacity="0.9"/>
<path d="M551.982 173.994C548.829 173.994 545.763 175.021 543.246 176.919C540.729 178.816 538.898 181.482 538.03 184.513H565.934C565.067 181.482 563.236 178.816 560.718 176.918C558.201 175.021 555.134 173.994 551.982 173.994V173.994ZM590.048 173.994C586.896 173.994 583.829 175.021 581.312 176.919C578.795 178.816 576.964 181.482 576.097 184.513H604.001C603.133 181.482 601.302 178.816 598.785 176.918C596.268 175.021 593.201 173.994 590.048 173.994V173.994Z" fill="#BADDEA"/>
<path d="M571.914 169.488C567.411 169.487 563.03 170.953 559.433 173.664C555.837 176.375 553.221 180.183 551.982 184.513H591.84C590.6 180.184 587.986 176.377 584.391 173.666C580.796 170.956 576.417 169.489 571.914 169.488V169.488Z" fill="#BADDEA"/>
<path d="M267.811 313.998V283.95M267.811 306.019L271.36 302.471M267.811 302.479L264.133 298.801M267.811 292.748L265.53 290.466" stroke="#3B3E54" stroke-width="9" stroke-linecap="round" stroke-linejoin="round"/>
<path d="M267.811 273.105V289.42C267.811 289.42 271.219 285.769 271.219 281.266C271.219 276.764 267.811 273.105 267.811 273.105Z" fill="#2F7D80"/>
<path d="M264.408 281.261C264.408 285.764 267.815 289.415 267.815 289.415V273.105C267.815 273.105 264.408 276.757 264.408 281.261Z" fill="#369094"/>
<path d="M264.908 299.576L253.427 288.096C253.427 288.096 253.603 293.06 256.773 296.23C259.943 299.4 264.908 299.576 264.908 299.576Z" fill="#2F7D80"/>
<path d="M261.562 291.441C258.392 288.271 253.427 288.096 253.427 288.096L264.908 299.576C264.908 299.576 264.732 294.611 261.562 291.441Z" fill="#369094"/>
<path d="M267.811 296.168L269.571 294.409" stroke="#3B3E54" stroke-width="9" stroke-linecap="round" stroke-linejoin="round"/>
<path d="M280.812 283.168L269.332 294.648C269.332 294.648 274.297 294.473 277.467 291.303C280.637 288.133 280.812 283.168 280.812 283.168Z" fill="#2F7D80"/>
<path d="M272.676 286.514C269.506 289.684 269.331 294.648 269.331 294.648L280.811 283.168C280.811 283.168 275.847 283.344 272.676 286.514Z" fill="#369094"/>
<path d="M433.393 235.489C434.359 235.489 435.286 235.106 435.969 234.423C436.652 233.74 437.035 232.813 437.035 231.847C437.035 232.813 437.419 233.74 438.102 234.423C438.785 235.106 439.712 235.489 440.678 235.489C439.712 235.489 438.785 235.873 438.102 236.556C437.419 237.239 437.035 238.166 437.035 239.132C437.035 238.166 436.652 237.239 435.969 236.556C435.286 235.873 434.359 235.489 433.393 235.489V235.489ZM265.049 258.518C266.015 258.517 266.941 258.134 267.623 257.451C268.306 256.768 268.69 255.841 268.69 254.876C268.69 255.842 269.073 256.768 269.757 257.451C270.44 258.134 271.366 258.518 272.332 258.518C271.854 258.518 271.38 258.612 270.938 258.795C270.496 258.978 270.095 259.246 269.757 259.585C269.418 259.923 269.15 260.324 268.967 260.766C268.784 261.208 268.69 261.682 268.69 262.16C268.69 261.194 268.306 260.268 267.623 259.585C266.941 258.902 266.015 258.518 265.049 258.518V258.518Z" fill="white" fill-opacity="0.9"/>
<path d="M400.844 222.676C423.921 222.676 442.628 203.968 442.628 180.891C442.628 157.814 423.921 139.107 400.844 139.107C377.767 139.107 359.06 157.814 359.06 180.891C359.06 203.968 377.767 222.676 400.844 222.676Z" fill="#00394D"/>
<path d="M386.728 186.657V228.473C386.728 229.824 386.191 231.119 385.236 232.075C384.281 233.03 382.985 233.567 381.634 233.567C380.283 233.567 378.988 233.03 378.032 232.075C377.077 231.119 376.54 229.824 376.54 228.473V205.572C376.54 204.319 376.042 203.116 375.156 202.23C374.27 201.344 373.067 200.846 371.814 200.846C370.56 200.846 369.358 201.344 368.472 202.23C367.586 203.116 367.088 204.319 367.088 205.572V234.818C367.088 236.245 366.52 237.614 365.511 238.624C364.502 239.633 363.133 240.2 361.705 240.2C360.278 240.2 358.909 239.633 357.899 238.624C356.89 237.614 356.323 236.245 356.323 234.818V186.831C356.323 184.701 355.477 182.658 353.971 181.152C352.464 179.646 350.422 178.799 348.291 178.799C346.161 178.799 344.119 179.646 342.612 181.152C341.106 182.658 340.26 184.701 340.26 186.831V208.248" stroke="#F38251" stroke-width="9" stroke-miterlimit="10"/>
<path d="M407.753 152.025C407.753 149.18 407.176 146.364 406.056 143.749C404.936 141.133 403.296 138.772 401.237 136.809C399.178 134.845 396.742 133.32 394.076 132.325C391.41 131.331 388.57 130.888 385.728 131.023C374.876 131.523 366.103 140.393 365.712 151.249C365.594 154.359 366.17 157.455 367.398 160.315C368.625 163.174 370.474 165.724 372.809 167.78C375.583 170.23 377.106 173.799 377.106 177.5V178.057C377.106 178.428 377.179 178.795 377.321 179.137C377.463 179.479 377.671 179.79 377.933 180.053C378.195 180.315 378.506 180.522 378.848 180.664C379.191 180.806 379.557 180.879 379.928 180.879H393.518C393.889 180.879 394.256 180.806 394.598 180.665C394.941 180.523 395.252 180.315 395.514 180.053C395.776 179.791 395.984 179.48 396.126 179.138C396.268 178.796 396.341 178.429 396.341 178.058V177.497C396.343 175.646 396.735 173.816 397.492 172.127C398.249 170.437 399.354 168.927 400.736 167.694C402.945 165.726 404.713 163.312 405.922 160.611C407.132 157.911 407.756 154.985 407.753 152.025Z" fill="white" fill-opacity="0.9"/>
<path d="M388.932 195.023H384.524C383.946 195.021 383.393 194.791 382.984 194.381C382.576 193.972 382.347 193.418 382.347 192.84V180.899C382.347 180.859 382.363 180.82 382.391 180.792C382.42 180.764 382.458 180.748 382.498 180.748H390.969C391.009 180.748 391.047 180.764 391.076 180.792C391.104 180.82 391.12 180.859 391.12 180.899V192.84C391.12 193.127 391.063 193.411 390.953 193.676C390.843 193.942 390.682 194.182 390.479 194.385C390.275 194.588 390.034 194.749 389.769 194.858C389.503 194.968 389.219 195.024 388.932 195.023V195.023Z" fill="#9FA2C4"/>
<path d="M391.692 192.729H381.764C381.067 192.729 380.398 192.452 379.905 191.959C379.411 191.466 379.134 190.797 379.134 190.099V180.93C379.134 180.882 379.153 180.835 379.187 180.801C379.221 180.767 379.268 180.748 379.316 180.748H394.141C394.19 180.748 394.236 180.767 394.271 180.801C394.305 180.835 394.324 180.882 394.324 180.93V190.099C394.324 190.445 394.256 190.787 394.123 191.106C393.991 191.425 393.797 191.715 393.553 191.959C393.308 192.204 393.018 192.397 392.699 192.529C392.379 192.661 392.037 192.729 391.692 192.729Z" fill="#C5C8E6"/>
<path d="M395.028 188.443H378.426C378.066 188.443 377.774 188.735 377.774 189.096V190.024C377.774 190.384 378.066 190.676 378.426 190.676H395.028C395.389 190.676 395.681 190.384 395.681 190.024V189.096C395.681 188.735 395.389 188.443 395.028 188.443Z" fill="#9FA2C4"/>
<path d="M395.028 185.22H378.426C378.066 185.22 377.774 185.512 377.774 185.872V186.8C377.774 187.161 378.066 187.453 378.426 187.453H395.028C395.389 187.453 395.681 187.161 395.681 186.8V185.872C395.681 185.512 395.389 185.22 395.028 185.22Z" fill="#9FA2C4"/>
<path d="M395.028 181.996H378.426C378.066 181.996 377.774 182.288 377.774 182.648V183.577C377.774 183.937 378.066 184.229 378.426 184.229H395.028C395.389 184.229 395.681 183.937 395.681 183.577V182.648C395.681 182.288 395.389 181.996 395.028 181.996Z" fill="#9FA2C4"/>
<path d="M385.936 141.631C385.936 140.353 385.428 139.127 384.524 138.223C383.62 137.319 382.395 136.811 381.116 136.811C379.838 136.811 378.612 137.319 377.708 138.223C376.805 139.127 376.297 140.353 376.297 141.631V141.709C375.62 141.566 374.916 141.618 374.267 141.858C373.618 142.098 373.05 142.516 372.629 143.065C372.207 143.614 371.95 144.271 371.886 144.96C371.822 145.649 371.954 146.342 372.267 146.96C371.572 147.313 370.976 147.834 370.533 148.476C370.09 149.117 369.814 149.859 369.729 150.634C369.645 151.409 369.755 152.192 370.049 152.914C370.343 153.636 370.813 154.273 371.415 154.768C371.039 155.277 370.811 155.881 370.758 156.511C370.704 157.142 370.827 157.775 371.111 158.34C371.396 158.905 371.833 159.38 372.371 159.712C372.91 160.044 373.531 160.22 374.164 160.22C374.242 160.22 374.319 160.22 374.396 160.211V160.22C374.396 160.818 374.57 161.404 374.897 161.906C375.224 162.407 375.689 162.803 376.237 163.045C376.784 163.286 377.39 163.364 377.981 163.268C378.572 163.172 379.122 162.906 379.564 162.503C379.847 163.217 380.371 163.81 381.044 164.18C381.718 164.55 382.499 164.674 383.254 164.53C384.009 164.386 384.689 163.983 385.179 163.391C385.669 162.799 385.937 162.054 385.937 161.286V141.632L385.936 141.631Z" fill="#F38251"/>
<path d="M382.824 156.404H383.116V155.688H382.824C382.09 155.688 381.387 155.396 380.867 154.877C380.348 154.358 380.057 153.654 380.056 152.92V148.028H379.34V156.596C379.013 156.676 378.723 156.864 378.514 157.128C378.306 157.393 378.193 157.72 378.192 158.056H378.907C378.907 157.847 378.991 157.645 379.139 157.497C379.287 157.349 379.488 157.265 379.698 157.265C379.908 157.265 380.109 157.349 380.257 157.497C380.406 157.645 380.489 157.847 380.489 158.056H381.205C381.204 157.72 381.09 157.393 380.882 157.128C380.674 156.864 380.383 156.676 380.056 156.596V155.032C380.381 155.459 380.799 155.804 381.28 156.042C381.76 156.28 382.288 156.404 382.824 156.404Z" fill="#FFC0BD"/>
<path d="M386.316 148.77C386.315 148.666 386.308 148.562 386.293 148.459V141.632H385.577C385.576 142.738 385.137 143.798 384.355 144.581C383.574 145.363 382.514 145.803 381.408 145.805V146.52C382.246 146.52 383.069 146.304 383.799 145.894C384.53 145.484 385.142 144.893 385.578 144.178V147.143C385.265 146.867 384.878 146.686 384.465 146.624C384.052 146.562 383.63 146.621 383.249 146.793C382.868 146.965 382.545 147.243 382.319 147.594C382.092 147.946 381.972 148.355 381.973 148.773H382.688C382.7 148.415 382.843 148.075 383.089 147.816C383.336 147.556 383.669 147.397 384.025 147.367C384.381 147.337 384.736 147.438 385.023 147.653C385.309 147.867 385.507 148.179 385.578 148.529V158.891C385.238 158.429 384.795 158.054 384.283 157.795C383.772 157.537 383.207 157.402 382.633 157.402V158.117C383.414 158.118 384.163 158.429 384.715 158.981C385.267 159.533 385.577 160.281 385.578 161.062V161.291C385.578 162.072 385.268 162.821 384.716 163.373C384.163 163.925 383.414 164.236 382.633 164.236C381.852 164.236 381.103 163.925 380.551 163.373C379.999 162.821 379.688 162.072 379.688 161.291H378.973C378.973 161.662 379.03 162.032 379.141 162.386C378.631 162.776 377.999 162.974 377.357 162.944C376.716 162.914 376.105 162.66 375.633 162.225C375.16 161.789 374.857 161.202 374.775 160.565C374.693 159.928 374.838 159.282 375.185 158.741C375.472 158.908 375.807 158.974 376.136 158.93C376.465 158.886 376.77 158.734 377.004 158.498L376.498 157.992C376.348 158.135 376.149 158.213 375.942 158.211C375.736 158.208 375.538 158.125 375.392 157.979C375.246 157.833 375.163 157.636 375.16 157.429C375.158 157.222 375.237 157.023 375.379 156.873L374.873 156.367C374.633 156.608 374.481 156.924 374.443 157.262C374.405 157.6 374.482 157.942 374.663 158.23C374.323 158.712 374.114 159.273 374.054 159.859C373.248 159.837 372.483 159.497 371.926 158.915C371.368 158.332 371.064 157.553 371.078 156.746C371.091 155.94 371.423 155.172 372 154.609C372.578 154.045 373.354 153.733 374.16 153.739H374.518C374.546 153.372 374.712 153.029 374.982 152.779C375.252 152.529 375.606 152.39 375.974 152.39C376.342 152.39 376.696 152.529 376.966 152.779C377.236 153.029 377.402 153.372 377.43 153.739H378.145C378.145 153.285 378.003 152.843 377.738 152.475C377.474 152.106 377.101 151.83 376.671 151.684C376.241 151.539 375.777 151.531 375.343 151.663C374.909 151.795 374.527 152.06 374.251 152.42C374.065 152.002 373.763 151.648 373.38 151.399C372.996 151.15 372.55 151.017 372.093 151.017V151.732C372.473 151.733 372.841 151.865 373.135 152.106C373.429 152.346 373.632 152.681 373.707 153.054C372.811 153.162 371.983 153.589 371.375 154.256C370.774 153.674 370.355 152.932 370.167 152.117C369.98 151.303 370.031 150.451 370.317 149.665C370.602 148.88 371.108 148.193 371.774 147.689C372.441 147.184 373.239 146.883 374.073 146.822C374.16 147.326 374.423 147.783 374.814 148.112C375.206 148.441 375.7 148.622 376.212 148.623V147.907C375.845 147.879 375.502 147.714 375.252 147.444C375.002 147.174 374.863 146.819 374.863 146.451C374.863 146.083 375.002 145.729 375.252 145.459C375.502 145.189 375.845 145.024 376.212 144.995V144.28C375.696 144.28 375.197 144.464 374.804 144.799C374.412 145.133 374.151 145.596 374.068 146.105C373.514 146.141 372.971 146.268 372.459 146.481C372.328 146.101 372.252 145.705 372.234 145.303C372.234 144.452 372.562 143.633 373.15 143.017C373.738 142.402 374.541 142.036 375.391 141.996C376.242 141.956 377.075 142.246 377.718 142.804C378.361 143.362 378.764 144.147 378.844 144.994C378.52 145.077 378.232 145.266 378.027 145.53C377.821 145.794 377.71 146.12 377.71 146.454H378.425C378.425 146.245 378.509 146.044 378.657 145.895C378.805 145.747 379.007 145.664 379.216 145.664C379.426 145.664 379.627 145.747 379.776 145.895C379.924 146.044 380.007 146.245 380.007 146.454H380.723C380.721 146.116 380.606 145.788 380.395 145.523C380.184 145.258 379.89 145.072 379.561 144.994C379.495 144.178 379.183 143.401 378.665 142.766C378.147 142.131 377.449 141.669 376.662 141.441C376.716 140.278 377.223 139.182 378.075 138.388C378.926 137.593 380.054 137.163 381.218 137.189C382.382 137.215 383.49 137.695 384.305 138.527C385.12 139.359 385.577 140.476 385.579 141.64H386.295C386.3 140.293 385.78 138.997 384.845 138.027C383.91 137.057 382.634 136.49 381.287 136.446C379.94 136.402 378.63 136.885 377.634 137.792C376.637 138.699 376.034 139.959 375.951 141.303C375.39 141.246 374.823 141.308 374.287 141.484C373.751 141.66 373.258 141.946 372.84 142.325C372.422 142.703 372.088 143.165 371.859 143.681C371.631 144.197 371.514 144.755 371.515 145.319C371.533 145.832 371.633 146.338 371.812 146.818C371.137 147.218 370.566 147.77 370.141 148.429C369.717 149.088 369.453 149.837 369.368 150.617C369.284 151.396 369.382 152.184 369.656 152.919C369.929 153.654 370.37 154.315 370.943 154.85C370.596 155.414 370.404 156.06 370.386 156.723C370.368 157.385 370.525 158.04 370.84 158.623C371.156 159.205 371.62 159.694 372.185 160.041C372.749 160.387 373.396 160.579 374.058 160.596C374.125 161.186 374.343 161.75 374.692 162.231C375.04 162.712 375.507 163.095 376.048 163.342C376.588 163.59 377.183 163.693 377.775 163.643C378.367 163.592 378.936 163.389 379.427 163.054C379.819 163.765 380.437 164.324 381.182 164.646C381.928 164.967 382.759 165.031 383.545 164.829C384.331 164.626 385.027 164.168 385.524 163.527C386.021 162.885 386.291 162.096 386.291 161.285V148.77H386.316Z" fill="#FFC0BD"/>
<path d="M387.52 141.631C387.52 140.353 388.028 139.127 388.932 138.223C389.836 137.319 391.062 136.811 392.34 136.811C393.618 136.811 394.844 137.319 395.748 138.223C396.651 139.127 397.159 140.353 397.159 141.631V141.709C397.836 141.566 398.54 141.618 399.189 141.858C399.838 142.098 400.406 142.516 400.828 143.065C401.249 143.614 401.506 144.271 401.57 144.96C401.635 145.649 401.503 146.342 401.19 146.96C401.884 147.313 402.48 147.834 402.923 148.476C403.366 149.117 403.642 149.859 403.727 150.634C403.811 151.409 403.701 152.192 403.407 152.914C403.113 153.636 402.644 154.273 402.041 154.768C402.418 155.277 402.645 155.881 402.699 156.511C402.752 157.142 402.63 157.775 402.345 158.34C402.06 158.905 401.623 159.38 401.085 159.712C400.546 160.044 399.925 160.22 399.292 160.22C399.215 160.22 399.137 160.22 399.06 160.211V160.22C399.06 160.818 398.886 161.404 398.559 161.906C398.232 162.407 397.767 162.803 397.219 163.045C396.672 163.286 396.066 163.364 395.475 163.268C394.884 163.172 394.334 162.906 393.892 162.503C393.609 163.217 393.085 163.81 392.412 164.18C391.738 164.55 390.957 164.674 390.202 164.53C389.447 164.386 388.767 163.983 388.277 163.391C387.787 162.799 387.519 162.054 387.519 161.286V141.632L387.52 141.631Z" fill="#F38251"/>
<path d="M390.632 156.404H390.34V155.688H390.632C391.366 155.688 392.07 155.396 392.589 154.877C393.108 154.358 393.4 153.654 393.4 152.92V148.028H394.116V156.596C394.443 156.676 394.734 156.864 394.942 157.128C395.15 157.393 395.264 157.72 395.265 158.056H394.549C394.549 157.847 394.466 157.645 394.317 157.497C394.169 157.349 393.968 157.265 393.758 157.265C393.548 157.265 393.347 157.349 393.199 157.497C393.05 157.645 392.967 157.847 392.967 158.056H392.252C392.252 157.72 392.366 157.393 392.574 157.128C392.782 156.864 393.073 156.676 393.4 156.596V155.032C393.076 155.459 392.657 155.804 392.177 156.042C391.696 156.28 391.168 156.404 390.632 156.404V156.404Z" fill="#FFC0BD"/>
<path d="M387.139 148.77C387.14 148.666 387.147 148.562 387.163 148.459V141.632H387.878C387.879 142.738 388.318 143.799 389.1 144.581C389.882 145.363 390.942 145.803 392.048 145.805V146.52C391.211 146.52 390.387 146.304 389.657 145.894C388.927 145.484 388.314 144.893 387.878 144.178V147.143C388.191 146.867 388.578 146.686 388.991 146.624C389.404 146.562 389.827 146.621 390.207 146.793C390.588 146.965 390.911 147.243 391.138 147.594C391.364 147.946 391.484 148.355 391.484 148.773H390.768C390.756 148.415 390.613 148.075 390.367 147.816C390.121 147.556 389.788 147.397 389.431 147.367C389.075 147.337 388.72 147.438 388.434 147.653C388.147 147.867 387.95 148.179 387.878 148.529V158.891C388.218 158.429 388.661 158.054 389.173 157.795C389.685 157.537 390.25 157.402 390.823 157.402V158.117C390.042 158.118 389.294 158.429 388.742 158.981C388.19 159.533 387.879 160.281 387.878 161.062V161.291C387.878 162.072 388.188 162.821 388.741 163.373C389.293 163.925 390.042 164.236 390.823 164.236C391.604 164.236 392.353 163.925 392.905 163.373C393.458 162.821 393.768 162.072 393.768 161.291H394.483C394.483 161.662 394.427 162.032 394.315 162.386C394.826 162.776 395.457 162.974 396.099 162.944C396.74 162.914 397.351 162.66 397.823 162.225C398.296 161.789 398.6 161.202 398.682 160.565C398.764 159.928 398.618 159.282 398.272 158.741C397.984 158.908 397.65 158.974 397.32 158.93C396.991 158.886 396.686 158.734 396.452 158.498L396.958 157.992C397.108 158.135 397.307 158.213 397.514 158.211C397.721 158.208 397.918 158.125 398.064 157.979C398.21 157.833 398.293 157.636 398.296 157.429C398.298 157.222 398.22 157.023 398.077 156.873L398.583 156.367C398.823 156.608 398.975 156.924 399.013 157.262C399.051 157.6 398.974 157.942 398.794 158.23C399.133 158.712 399.342 159.273 399.402 159.859C400.208 159.837 400.973 159.497 401.53 158.915C402.088 158.332 402.393 157.553 402.379 156.746C402.365 155.94 402.033 155.172 401.456 154.609C400.879 154.045 400.103 153.733 399.296 153.739H398.938C398.91 153.372 398.745 153.029 398.475 152.779C398.205 152.529 397.85 152.39 397.482 152.39C397.114 152.39 396.76 152.529 396.49 152.779C396.22 153.029 396.054 153.372 396.026 153.739H395.311C395.311 153.285 395.453 152.843 395.718 152.475C395.982 152.106 396.356 151.83 396.785 151.684C397.215 151.539 397.679 151.531 398.113 151.663C398.547 151.795 398.929 152.06 399.205 152.42C399.391 152.002 399.694 151.648 400.077 151.399C400.46 151.15 400.907 151.017 401.364 151.017V151.732C400.983 151.733 400.615 151.865 400.321 152.106C400.027 152.346 399.825 152.681 399.749 153.054C400.645 153.162 401.473 153.589 402.082 154.256C402.682 153.674 403.101 152.932 403.289 152.117C403.477 151.303 403.425 150.451 403.14 149.665C402.855 148.88 402.348 148.193 401.682 147.689C401.015 147.184 400.217 146.883 399.384 146.822C399.296 147.326 399.033 147.783 398.642 148.112C398.251 148.441 397.756 148.622 397.244 148.623V147.907C397.611 147.879 397.954 147.714 398.204 147.444C398.454 147.174 398.593 146.819 398.593 146.451C398.593 146.083 398.454 145.729 398.204 145.459C397.954 145.189 397.611 145.024 397.244 144.995V144.28C397.76 144.28 398.259 144.464 398.652 144.799C399.045 145.133 399.306 145.596 399.389 146.105C399.942 146.141 400.486 146.268 400.997 146.481C401.129 146.101 401.204 145.705 401.222 145.303C401.222 144.452 400.894 143.633 400.306 143.017C399.718 142.402 398.915 142.036 398.065 141.996C397.214 141.956 396.381 142.246 395.738 142.804C395.095 143.362 394.692 144.147 394.612 144.994C394.937 145.077 395.224 145.266 395.43 145.53C395.635 145.794 395.746 146.12 395.746 146.454H395.031C395.031 146.245 394.948 146.044 394.799 145.895C394.651 145.747 394.45 145.664 394.24 145.664C394.03 145.664 393.829 145.747 393.681 145.895C393.532 146.044 393.449 146.245 393.449 146.454H392.733C392.735 146.116 392.851 145.788 393.061 145.523C393.272 145.258 393.566 145.072 393.896 144.994C393.961 144.178 394.274 143.401 394.791 142.766C395.309 142.131 396.008 141.669 396.794 141.441C396.74 140.278 396.233 139.182 395.382 138.388C394.53 137.593 393.402 137.163 392.238 137.189C391.074 137.215 389.966 137.695 389.151 138.527C388.336 139.359 387.879 140.476 387.877 141.64H387.161C387.156 140.293 387.676 138.997 388.611 138.027C389.546 137.057 390.823 136.49 392.169 136.446C393.516 136.402 394.826 136.885 395.823 137.792C396.819 138.699 397.422 139.959 397.505 141.303C398.066 141.246 398.633 141.308 399.169 141.484C399.705 141.66 400.198 141.946 400.616 142.325C401.035 142.703 401.369 143.165 401.597 143.681C401.825 144.197 401.943 144.755 401.942 145.319C401.923 145.832 401.823 146.338 401.645 146.818C402.319 147.218 402.891 147.77 403.315 148.429C403.739 149.088 404.004 149.837 404.088 150.617C404.172 151.396 404.074 152.184 403.801 152.919C403.527 153.654 403.087 154.315 402.514 154.85C402.86 155.414 403.053 156.06 403.071 156.723C403.089 157.385 402.932 158.04 402.616 158.623C402.3 159.205 401.837 159.694 401.272 160.041C400.707 160.387 400.061 160.579 399.398 160.596C399.332 161.186 399.113 161.75 398.765 162.231C398.416 162.712 397.949 163.095 397.409 163.342C396.868 163.59 396.273 163.693 395.681 163.643C395.089 163.592 394.52 163.389 394.029 163.054C393.637 163.765 393.02 164.324 392.274 164.646C391.529 164.967 390.698 165.031 389.912 164.829C389.126 164.626 388.429 164.168 387.932 163.527C387.435 162.885 387.165 162.096 387.165 161.285V148.77H387.139Z" fill="#FFC0BD"/>
<path d="M342.798 211.447C343.017 211.447 343.228 211.534 343.383 211.689C343.538 211.844 343.625 212.054 343.625 212.274V218.796C343.625 219.015 343.538 219.225 343.383 219.38C343.228 219.535 343.017 219.622 342.798 219.622C342.579 219.622 342.369 219.535 342.214 219.38C342.059 219.225 341.972 219.015 341.972 218.796V212.274C341.972 212.054 342.059 211.844 342.214 211.689C342.369 211.534 342.579 211.447 342.798 211.447V211.447ZM337.698 211.447C337.917 211.447 338.128 211.534 338.283 211.689C338.438 211.844 338.525 212.054 338.525 212.274V218.796C338.525 219.015 338.438 219.225 338.283 219.38C338.128 219.535 337.917 219.622 337.698 219.622C337.479 219.622 337.269 219.535 337.114 219.38C336.959 219.225 336.872 219.015 336.872 218.796V212.274C336.872 212.054 336.959 211.844 337.114 211.689C337.269 211.534 337.479 211.447 337.698 211.447V211.447Z" fill="#75BAD2"/>
<path d="M344.939 214.488H335.56V208.131C335.56 206.888 336.054 205.695 336.934 204.816C337.813 203.937 339.006 203.443 340.249 203.443C341.493 203.443 342.685 203.937 343.564 204.816C344.444 205.695 344.938 206.888 344.938 208.131V214.488H344.939Z" fill="#80839E"/>
<path d="M334.158 214.44H346.342C346.547 214.44 346.713 214.273 346.713 214.069V212.218C346.713 212.013 346.547 211.846 346.342 211.846H334.158C333.954 211.846 333.787 212.013 333.787 212.218V214.069C333.787 214.273 333.954 214.44 334.158 214.44Z" fill="#8F92B0"/>
<path d="M340.25 207.37C340.608 207.37 340.898 207.08 340.898 206.722C340.898 206.365 340.608 206.075 340.25 206.075C339.893 206.075 339.603 206.365 339.603 206.722C339.603 207.08 339.893 207.37 340.25 207.37Z" fill="#F38251"/>
<path d="M420.637 156.125C420.637 155.2 419.742 154.723 418.637 154.723C417.355 154.723 416.161 155.498 415.535 156.752L410.226 154.097C411.747 151.233 414.76 149.264 419.533 149.264C424.217 149.264 427.707 151.233 427.707 154.962C427.707 159.525 422.934 160.331 422.934 162.628H416.785C416.785 159.019 420.637 157.944 420.637 156.125V156.125ZM415.924 167.344C415.924 165.345 417.535 163.823 419.861 163.823C422.188 163.823 423.799 165.344 423.799 167.344C423.799 169.313 422.188 170.924 419.861 170.924C417.535 170.924 415.924 169.31 415.924 167.344Z" fill="#F38251"/>
<path d="M404.027 195.697V195.662C404.022 195.631 404.016 195.6 404.009 195.569V195.547C404.002 195.516 403.996 195.485 403.988 195.455V195.409L403.974 195.352V195.332L403.959 195.276L403.952 195.252V195.23C403.943 195.199 403.935 195.169 403.925 195.139L403.919 195.117L403.89 195.027L403.883 195.005V194.993L404.354 194.651L404.706 194.395C404.603 194.073 404.453 193.767 404.261 193.488L403.842 193.61L403.284 193.774L403.271 193.755L403.217 193.677L403.204 193.659L403.148 193.581L403.135 193.565L403.11 193.531L403.084 193.497L403.072 193.481L403.013 193.406L402.998 193.387L402.937 193.314L402.923 193.297L403.233 192.811L403.466 192.446C403.251 192.185 402.998 191.957 402.717 191.769L402.374 192.039L401.917 192.404L401.908 192.397L401.888 192.384L401.809 192.331L401.79 192.319L401.709 192.268L401.69 192.256L401.669 192.242L401.619 192.212H401.601L401.551 192.183L401.529 192.171L401.51 192.16L401.426 192.113L401.405 192.102L401.321 192.059L401.3 192.048H401.289L401.381 191.472L401.449 191.041C401.148 190.887 400.826 190.777 400.494 190.715L400.284 191.097L400.006 191.608H399.976L399.883 191.591H399.861L399.766 191.576H399.746L399.705 191.569H399.643L399.548 191.558H399.526L399.431 191.55H399.402L399.274 190.983L399.178 190.557C398.841 190.525 398.501 190.543 398.169 190.609L398.117 191.044L398.048 191.621H398.014L397.92 191.639H397.898L397.804 191.659H397.758L397.701 191.674H397.681L397.625 191.689L397.601 191.696H397.579L397.488 191.723L397.466 191.729L397.376 191.758L397.354 191.765H397.343L397.001 191.293L396.746 190.94C396.423 191.044 396.118 191.194 395.839 191.386L395.961 191.804L396.125 192.363L396.107 192.376L396.028 192.43L396.009 192.443L395.931 192.499L395.916 192.51L395.882 192.536L395.848 192.561L395.833 192.573L395.757 192.633L395.74 192.646L395.666 192.707L395.649 192.722L395.162 192.412L394.797 192.178C394.536 192.393 394.309 192.646 394.121 192.927L394.391 193.271L394.756 193.727L394.749 193.738L394.737 193.756L394.684 193.835L394.672 193.854L394.621 193.935L394.61 193.953L394.597 193.975L394.566 194.025V194.043L394.537 194.093L394.525 194.115L394.514 194.135L394.469 194.219L394.458 194.238L394.414 194.322L394.404 194.343V194.354L393.83 194.262L393.399 194.194C393.244 194.495 393.134 194.817 393.073 195.15L393.455 195.359L393.966 195.637V195.667C393.96 195.698 393.954 195.73 393.949 195.76V195.782C393.949 195.814 393.938 195.846 393.933 195.877V195.897L393.927 195.938V196C393.927 196.032 393.92 196.063 393.916 196.096V196.118C393.916 196.15 393.91 196.181 393.907 196.213V196.242L393.339 196.37L392.914 196.466C392.882 196.803 392.899 197.143 392.966 197.475L393.4 197.527L393.977 197.597V197.632C393.977 197.662 393.989 197.694 393.995 197.724V197.748C394.001 197.778 394.009 197.81 394.016 197.84V197.888L394.031 197.944V197.964L394.045 198.02L394.053 198.045V198.065C394.061 198.096 394.07 198.127 394.079 198.158L394.085 198.18L394.115 198.271L394.122 198.292V198.304L393.65 198.646L393.297 198.901C393.4 199.224 393.55 199.529 393.742 199.808L394.161 199.686L394.719 199.522L394.733 199.541L394.786 199.619L394.8 199.637L394.856 199.715L394.867 199.731L394.892 199.765L394.918 199.799L394.93 199.814L394.99 199.889L395.003 199.906L395.064 199.981L395.078 199.998L394.768 200.484L394.534 200.849C394.75 201.11 395.003 201.338 395.284 201.526L395.627 201.256L396.084 200.891L396.095 200.898L396.113 200.91L396.192 200.963L396.211 200.975L396.292 201.026L396.311 201.038L396.333 201.051L396.383 201.082H396.4L396.451 201.111L396.473 201.123L396.491 201.134L396.575 201.18L396.595 201.19L396.68 201.234L396.699 201.244H396.71L396.619 201.818L396.551 202.249C396.852 202.404 397.173 202.514 397.506 202.575L397.715 202.193L397.994 201.682H398.022L398.116 201.699H398.138L398.233 201.715H398.252L398.295 201.721H398.356L398.452 201.732H398.474L398.57 201.741H398.599L398.727 202.308L398.823 202.734C399.16 202.766 399.5 202.749 399.832 202.682L399.884 202.248L399.953 201.671H399.989L400.081 201.653H400.104L400.197 201.632H400.22L400.245 201.626L400.301 201.611H400.322L400.378 201.597L400.402 201.589H400.423L400.516 201.563L400.536 201.556L400.627 201.527L400.648 201.52H400.66L401.002 201.991L401.258 202.344C401.58 202.24 401.885 202.09 402.164 201.898L402.043 201.48L401.878 200.921L401.898 200.908L401.976 200.854L401.995 200.841L402.072 200.785L402.088 200.773L402.122 200.747L402.156 200.722L402.172 200.709L402.247 200.65L402.264 200.636L402.337 200.576L402.354 200.561L402.841 200.871L403.206 201.105C403.467 200.889 403.695 200.637 403.883 200.355L403.612 200.012L403.247 199.556L403.255 199.546L403.268 199.527L403.32 199.449L403.334 199.429L403.384 199.349L403.396 199.33L403.409 199.308L403.438 199.258V199.238L403.468 199.187L403.48 199.165L403.491 199.146L403.537 199.062L403.548 199.042L403.592 198.957L403.602 198.936V198.926L404.176 199.017L404.607 199.085C404.761 198.784 404.871 198.462 404.933 198.13L404.551 197.92L404.04 197.642V197.644V197.621C404.04 197.591 404.052 197.559 404.057 197.527V197.504C404.057 197.473 404.066 197.442 404.071 197.411V197.391C404.071 197.376 404.071 197.363 404.077 197.35V197.289C404.077 197.257 404.085 197.226 404.088 197.194V197.172C404.088 197.14 404.094 197.109 404.097 197.077V197.048L404.664 196.92L405.09 196.824C405.122 196.487 405.104 196.147 405.037 195.815L404.603 195.763L404.027 195.697ZM401.743 196.494C401.772 197.048 401.636 197.599 401.352 198.076C401.068 198.553 400.649 198.935 400.148 199.173C399.647 199.412 399.086 199.497 398.537 199.417C397.988 199.337 397.475 199.096 397.062 198.725C396.65 198.353 396.357 197.867 396.221 197.329C396.084 196.791 396.111 196.225 396.296 195.702C396.482 195.179 396.818 194.722 397.263 194.391C397.708 194.059 398.242 193.866 398.796 193.838C399.538 193.8 400.265 194.057 400.817 194.554C401.37 195.052 401.702 195.747 401.742 196.489L401.743 196.494ZM426.456 202.571V202.548C426.456 202.532 426.456 202.517 426.447 202.502C426.435 202.44 426.423 202.377 426.41 202.315L426.399 202.268C426.385 202.205 426.371 202.147 426.356 202.081L426.345 202.036C426.345 202.019 426.337 202.003 426.333 201.986C426.323 201.947 426.314 201.909 426.304 201.872V201.83L426.273 201.717C426.273 201.7 426.264 201.684 426.26 201.667L426.248 201.625C426.231 201.563 426.213 201.503 426.193 201.44L426.181 201.396C426.162 201.335 426.143 201.274 426.122 201.213L426.108 201.169L426.101 201.145L427.052 200.455L427.765 199.939C427.557 199.29 427.254 198.675 426.867 198.114L426.023 198.357L424.895 198.688L424.887 198.677L424.862 198.638C424.825 198.586 424.79 198.532 424.752 198.48L424.726 198.442L424.612 198.287L424.588 198.255L424.537 198.187L424.485 198.119L424.46 198.087L424.339 197.936L424.309 197.901L424.188 197.752L424.158 197.717L424.15 197.707L424.777 196.716L425.248 195.97C424.809 195.441 424.295 194.981 423.722 194.602L423.028 195.147L422.107 195.877L422.086 195.863L422.047 195.837L421.888 195.731L421.849 195.706L421.687 195.603L421.648 195.579L421.605 195.552L421.503 195.491L421.485 195.481L421.465 195.47L421.364 195.411L421.319 195.386L421.279 195.364L421.11 195.271L421.069 195.249L420.9 195.162L420.858 195.141L420.836 195.13L421.021 193.969L421.16 193.1C420.553 192.788 419.903 192.566 419.231 192.442L418.809 193.215L418.246 194.237H418.233L418.187 194.228L417.999 194.194L417.954 194.187L417.762 194.157H417.724L417.64 194.144L417.554 194.133H417.515L417.323 194.11H417.278L417.087 194.092H417.027L416.768 192.948L416.574 192.088C415.893 192.024 415.208 192.059 414.538 192.194L414.433 193.07L414.294 194.234H414.271L414.226 194.243L414.038 194.281L413.994 194.29L413.805 194.333L413.761 194.344L413.711 194.356L413.597 194.385H413.556L413.441 194.416L413.391 194.43L413.348 194.443L413.163 194.497L413.119 194.511L412.938 194.569L412.892 194.584L412.869 194.591L412.179 193.639L411.663 192.927C411.014 193.136 410.399 193.439 409.838 193.826L410.081 194.67L410.412 195.797L410.402 195.804L410.364 195.83C410.31 195.865 410.258 195.902 410.206 195.939L410.168 195.965L410.011 196.078L409.979 196.101L409.911 196.152L409.843 196.205L409.813 196.228L409.659 196.349L409.624 196.377L409.474 196.499L409.44 196.527L409.43 196.536L408.439 195.909L407.693 195.438C407.164 195.87 406.702 196.378 406.32 196.944L406.865 197.638L407.595 198.559L407.581 198.58L407.555 198.618C407.52 198.67 407.483 198.724 407.449 198.777L407.425 198.815L407.322 198.978L407.298 199.016L407.272 199.059L407.211 199.16L407.201 199.177L407.19 199.196L407.132 199.298L407.106 199.343L407.084 199.382L406.992 199.551L406.971 199.591C406.941 199.647 406.911 199.704 406.883 199.762L406.863 199.803L406.851 199.825L405.691 199.64L404.822 199.501C404.509 200.108 404.287 200.758 404.164 201.43L404.935 201.852L405.967 202.416V202.429L405.959 202.473C405.946 202.536 405.934 202.594 405.923 202.663L405.916 202.706C405.905 202.77 405.894 202.828 405.886 202.899V202.938C405.886 202.951 405.877 202.994 405.873 203.023L405.863 203.108V203.146C405.854 203.21 405.847 203.275 405.839 203.339V203.383C405.832 203.447 405.826 203.511 405.821 203.575V203.634L404.677 203.893L403.817 204.088C403.753 204.768 403.788 205.454 403.923 206.123L404.799 206.228L405.964 206.367V206.39C405.964 206.406 405.964 206.422 405.972 206.436C405.984 206.498 405.996 206.558 406.01 206.622C406.01 206.637 406.016 206.653 406.019 206.667C406.033 206.729 406.047 206.789 406.062 206.854C406.062 206.868 406.069 206.884 406.073 206.899L406.085 206.95C406.095 206.987 406.105 207.025 406.114 207.064V207.105L406.145 207.22L406.158 207.269L406.17 207.311C406.187 207.373 406.206 207.433 406.225 207.496L406.237 207.539L406.296 207.721L406.31 207.764C406.31 207.772 406.31 207.78 406.318 207.788L405.366 208.478L404.654 208.994C404.863 209.643 405.166 210.258 405.552 210.819L406.397 210.576L407.524 210.245L407.531 210.256L407.556 210.294C407.593 210.347 407.628 210.4 407.666 210.452L407.693 210.49L407.806 210.647L407.829 210.678L407.88 210.748L407.932 210.816L407.956 210.846C407.994 210.897 408.036 210.948 408.077 211L408.105 211.034C408.145 211.083 408.188 211.133 408.227 211.183L408.255 211.217L408.263 211.227L407.637 212.219L407.166 212.965C407.601 213.491 408.111 213.95 408.68 214.329L409.373 213.784L410.294 213.054L410.315 213.068L410.353 213.094L410.512 213.2L410.551 213.224L410.714 213.327L410.753 213.351L410.797 213.377L410.898 213.438L410.916 213.448L410.935 213.459L411.037 213.517L411.081 213.543L411.118 213.565L411.289 213.658L411.328 213.679L411.499 213.768L411.539 213.787L411.562 213.8L411.377 214.959L411.239 215.828C411.846 216.141 412.496 216.363 413.167 216.486L413.59 215.715L414.153 214.683H414.167L414.212 214.692L414.401 214.727L414.445 214.734L414.637 214.765H414.676L414.762 214.777L414.846 214.788H414.883L415.077 214.811H415.121L415.313 214.829H415.371L415.63 215.973L415.825 216.833C416.505 216.897 417.191 216.862 417.861 216.727L417.966 215.851L418.104 214.687H418.129L418.175 214.678L418.361 214.64L418.407 214.631L418.594 214.588L418.639 214.577L418.69 214.565L418.804 214.536H418.846L418.959 214.505L419.009 214.492L419.05 214.48L419.236 214.425L419.277 214.413L419.461 214.354L419.504 214.34L419.528 214.333L420.218 215.284L420.734 215.997C421.383 215.788 421.998 215.485 422.559 215.099L422.316 214.255L421.985 213.128L421.996 213.121L422.035 213.094L422.192 212.985L422.23 212.959L422.385 212.847L422.417 212.822L422.485 212.771L422.553 212.719L422.584 212.695L422.736 212.573L422.771 212.545L422.92 212.423L422.955 212.393L422.965 212.384L423.956 213.011L424.702 213.482C425.225 213.057 425.684 212.559 426.065 212.003L425.52 211.31L424.79 210.389L424.803 210.369L424.83 210.329L424.935 210.171L424.96 210.131L425.061 209.97L425.086 209.93L425.114 209.885L425.173 209.785L425.184 209.767L425.195 209.749L425.254 209.646L425.279 209.603L425.301 209.564C425.333 209.508 425.363 209.45 425.394 209.394L425.414 209.354L425.502 209.184L425.523 209.144L425.534 209.121L426.693 209.306L427.563 209.444C427.875 208.837 428.097 208.187 428.222 207.516L427.449 207.093L426.417 206.53C426.417 206.526 426.417 206.522 426.417 206.518L426.427 206.471C426.439 206.409 426.451 206.35 426.461 206.283L426.469 206.237C426.48 206.173 426.49 206.115 426.5 206.047V206.007C426.5 205.993 426.508 205.951 426.512 205.921L426.523 205.837V205.799C426.531 205.734 426.539 205.67 426.546 205.606V205.561L426.564 205.37V205.311L427.708 205.051L428.568 204.857C428.633 204.177 428.597 203.491 428.463 202.821L427.586 202.716L426.456 202.571ZM421.846 204.18C421.904 205.298 421.629 206.409 421.056 207.371C420.483 208.333 419.637 209.104 418.626 209.585C417.615 210.067 416.484 210.238 415.376 210.076C414.268 209.915 413.232 209.428 412.4 208.678C411.569 207.929 410.978 206.949 410.703 205.863C410.428 204.778 410.481 203.635 410.856 202.579C411.23 201.524 411.909 200.603 412.807 199.934C413.705 199.264 414.781 198.876 415.899 198.818C416.642 198.78 417.385 198.888 418.086 199.137C418.786 199.386 419.431 199.77 419.984 200.268C420.536 200.766 420.985 201.368 421.304 202.039C421.624 202.711 421.808 203.439 421.846 204.181V204.18Z" fill="#2A6682"/>
<path d="M401.678 209.744C401.678 209.744 396.37 211.371 397.37 214.733C398.37 218.095 403.491 212.793 403.491 212.793C403.491 212.793 404.077 208.596 401.678 209.744V209.744Z" fill="#1A1C2E"/>
<path d="M407.773 296.166C405.32 303.204 403.078 310.404 400.975 317.723H383.686C385.011 308.764 386.752 299.744 389.301 290.507C395.484 292.307 401.641 294.193 407.773 296.166Z" fill="#F38251"/>
<path d="M418.002 317.723H400.722C398.62 310.404 396.378 303.204 393.925 296.166C400.043 294.18 406.2 292.294 412.394 290.507C414.932 299.741 416.673 308.764 418.002 317.723Z" fill="#F38251"/>
<path d="M417.531 312.17C412.014 311.836 403.062 308.641 397.473 309.782C397.044 309.877 396.578 309.948 396.076 310.008V298.056L394.523 310.15C390.881 310.401 386.205 310.118 384.485 309.542C387.519 292.834 392.744 262.941 393.593 246.872C393.927 240.435 396.041 237.015 398.321 235.264C398.84 234.87 399.4 234.533 399.992 234.26C403.85 232.29 407.671 232.159 410.645 233.794C413.079 235.109 414.956 237.592 415.852 241.199C416.521 243.876 416.339 246 416.067 249.571C414.802 266.553 415.262 292.43 417.531 312.17V312.17Z" fill="#292B3B"/>
<path d="M398.323 235.269L398.649 246.109L399.049 259.72L404.706 247.064L410.649 233.791C407.667 232.158 403.853 232.284 399.998 234.254C399.403 234.528 398.841 234.868 398.323 235.269V235.269ZM409.825 223.302C406.1 229.029 399.091 231.077 395.587 228.8C392.084 226.523 393.421 220.785 397.151 215.058C400.881 209.331 405.608 208.262 409.108 210.538C412.608 212.815 413.55 217.574 409.825 223.302V223.302Z" fill="white" fill-opacity="0.9"/>
<path d="M408.997 222.353L401.856 221.656C401.76 222.629 401.012 231.945 401.37 235.453C401.631 236.533 403.413 237.035 405.346 236.56C407.085 236.138 408.345 235.081 408.389 234.086H408.397C408.188 231.981 408.662 225.77 408.997 222.353Z" fill="white" fill-opacity="0.9"/>
<path d="M406.336 225.268C405.283 224.129 404.293 225.154 401.759 226.577C399.226 227.999 394.701 227.632 394.381 221.703C394.248 219.194 393.264 221.075 392.618 222.623C392.143 223.759 391.866 224.984 391.964 226.211C392.116 228.108 392.978 229.416 394.536 230.428C396.867 231.945 400.329 232.053 403.721 230.737C405.523 230.039 406.829 228.329 406.72 226.399C406.694 225.921 406.576 225.522 406.336 225.268V225.268Z" fill="#1A1C2E"/>
<path d="M394.188 221.477L394.431 221.606C395.678 222.281 401.337 225.457 401.91 227.797C402.555 230.43 398.868 226.78 397.752 225.094C396.636 223.407 395.286 223.633 394.074 223.278C392.862 222.923 392.309 221.409 394.188 221.477ZM413.029 220.196C413.029 220.196 414.204 215.739 412.198 212.547C410.191 209.355 404.51 205.986 400.013 210.285C400.013 210.285 397.092 213.632 401.432 216.806C405.771 219.981 406.299 217.066 407.302 220.625C408.305 224.184 411.304 223.606 411.439 224.372L413.029 220.196Z" fill="#1A1C2E"/>
<path d="M398.649 246.109L399.049 259.72L404.706 247.068L404.485 238.808H401.988L398.649 246.109Z" fill="#ADBFFF"/>
<path d="M411.53 226.553C410.662 227.891 408.231 228.73 407.271 228.102C406.31 227.474 406.767 226.236 407.636 224.902C408.504 223.569 410.096 222.834 411.061 223.459C412.026 224.085 412.396 225.22 411.53 226.553ZM423.622 303.503C423.622 303.503 415.25 312.413 412.183 312.166C409.117 311.919 416.123 302.538 423.232 300.518L423.622 303.503Z" fill="white" fill-opacity="0.9"/>
<path d="M424.259 305.307C422.816 303.898 421.235 302.499 419.683 301.024C442.453 279.637 449.936 258.417 412.243 247.107C406.477 245.377 406.28 243.943 409.079 240.006C408.349 239.257 408.336 239.268 409.079 240.006C411.878 236.076 413.33 236.914 418.609 239.621C453.122 257.309 453.142 281.331 424.259 305.307Z" fill="#292B3B"/>
<path d="M376.54 300.606C376.54 300.606 383.433 310.707 386.503 310.935C389.573 311.164 384.101 300.813 377.39 297.717L376.54 300.606Z" fill="white" fill-opacity="0.9"/>
<path d="M397.437 236.899L396.66 246.634C396.613 246.646 396.553 246.646 396.505 246.658C357.512 251.997 361.62 274.113 380.807 298.775C379.039 299.981 377.259 301.127 375.624 302.304C350.799 274.144 354.533 250.413 391.377 238.28C394.264 237.315 396.068 236.695 397.437 236.899V236.899Z" fill="#292B3B"/>
<path d="M366.092 188.369L367.129 187.141L381.596 199.353L380.559 200.582L366.092 188.369Z" fill="#3B3E54"/>
<path d="M370.114 192.399L371.776 190.43L382.274 199.293L380.612 201.261L370.114 192.399Z" fill="#3AC5C9"/>
<path d="M351.527 175.021C350.234 176.554 349.424 178.435 349.199 180.428C348.975 182.421 349.347 184.436 350.268 186.218C351.189 187.999 352.618 189.468 354.373 190.438C356.129 191.407 358.132 191.835 360.131 191.666C362.129 191.497 364.033 190.739 365.6 189.488C367.168 188.237 368.33 186.55 368.938 184.639C369.547 182.728 369.575 180.679 369.02 178.752C368.464 176.825 367.35 175.106 365.817 173.813C364.8 172.954 363.623 172.303 362.354 171.899C361.085 171.495 359.749 171.345 358.422 171.457C357.095 171.569 355.803 171.942 354.62 172.553C353.437 173.165 352.386 174.003 351.527 175.021V175.021ZM366.327 187.514C365.15 188.908 363.585 189.921 361.832 190.426C360.078 190.931 358.214 190.905 356.476 190.35C354.737 189.796 353.202 188.738 352.064 187.312C350.927 185.885 350.238 184.153 350.085 182.334C349.931 180.516 350.321 178.693 351.204 177.096C352.087 175.499 353.423 174.2 355.045 173.362C356.666 172.525 358.499 172.187 360.312 172.392C362.126 172.596 363.838 173.334 365.232 174.511C367.101 176.09 368.266 178.347 368.472 180.785C368.677 183.223 367.906 185.643 366.327 187.512V187.514Z" fill="#3B3E54"/>
<path opacity="0.4" d="M366.331 187.521C369.618 183.627 369.126 177.806 365.232 174.519C361.339 171.232 355.518 171.724 352.231 175.618C348.944 179.511 349.436 185.333 353.329 188.62C357.223 191.907 363.044 191.415 366.331 187.521Z" fill="white" fill-opacity="0.9"/>
<path d="M411.211 167.37L401.288 170.824L405.461 182.815L417.452 178.641L413.998 168.72L411.211 167.37V167.37Z" fill="#D1D6FF" fill-opacity="0.4"/>
<path d="M411.93 169.439L413.999 168.72L411.211 167.37L411.93 169.439Z" fill="#C2B3FF"/>
<path d="M405.128 172.686L411.421 170.496L413.611 176.789L407.318 178.979L405.128 172.686Z" fill="white" fill-opacity="0.9"/>
<path d="M407.179 174.459L409.671 175.665M410.917 173.158L409.712 175.65" stroke="#1180B3" stroke-width="10" stroke-linecap="round" stroke-linejoin="round"/>
<path d="M432.641 187.248L424.676 180.396L416.395 190.021L426.021 198.301L432.873 190.337L432.641 187.248Z" fill="#37DFB7" fill-opacity="0.4"/>
<path d="M422.194 177.838H424.385L422.194 175.648V177.838Z" fill="#3AC5C9"/>
<path d="M414.706 178.666H421.368V185.328H414.706V178.666Z" fill="white" fill-opacity="0.9"/>
<path d="M416.74 180.7L419.332 183.292M419.332 180.7L416.74 183.292" stroke="#8F5753" stroke-width="10" stroke-linecap="round" stroke-linejoin="round"/>
<path d="M437.64 170.652H427.135V183.348H439.831V172.843L437.64 170.652Z" fill="#C5C8E6"/>
<path d="M437.64 172.843H439.831L437.64 170.652V172.843ZM428.847 173.69H438.117V174.416H428.847V173.69ZM428.847 174.986H438.117V175.712H428.847V174.986ZM428.847 176.282H438.117V177.008H428.847V176.282ZM428.847 177.576H438.117V178.303H428.847V177.576ZM428.847 178.872H438.117V179.599H428.847V178.872ZM428.847 180.168H435.779V180.895H428.847V180.168Z" fill="#9FA2C4"/>
<path d="M428.672 192.729C429.638 192.729 430.564 192.345 431.247 191.662C431.93 190.979 432.314 190.053 432.314 189.087C432.314 190.053 432.698 190.979 433.381 191.662C434.064 192.345 434.99 192.729 435.956 192.729C434.99 192.729 434.064 193.113 433.381 193.796C432.698 194.479 432.314 195.405 432.314 196.371C432.314 195.405 431.93 194.479 431.247 193.796C430.564 193.113 429.638 192.729 428.672 192.729V192.729ZM426.602 164.945C427.141 164.945 427.658 164.731 428.039 164.35C428.42 163.969 428.634 163.452 428.634 162.913C428.634 163.452 428.848 163.969 429.229 164.35C429.611 164.731 430.127 164.945 430.666 164.945C430.127 164.945 429.611 165.159 429.229 165.54C428.848 165.921 428.634 166.438 428.634 166.977C428.634 166.438 428.42 165.921 428.039 165.54C427.658 165.159 427.141 164.945 426.602 164.945ZM390.898 207.102C391.166 207.102 391.431 207.05 391.678 206.948C391.925 206.846 392.15 206.696 392.339 206.507C392.528 206.318 392.678 206.094 392.78 205.846C392.882 205.599 392.935 205.335 392.934 205.067C392.934 205.334 392.987 205.598 393.089 205.845C393.191 206.091 393.341 206.315 393.53 206.504C393.718 206.693 393.942 206.843 394.189 206.945C394.435 207.047 394.7 207.099 394.966 207.099C394.7 207.099 394.435 207.152 394.189 207.254C393.942 207.356 393.718 207.506 393.53 207.695C393.341 207.883 393.191 208.107 393.089 208.354C392.987 208.6 392.934 208.865 392.934 209.132C392.934 208.865 392.881 208.6 392.779 208.354C392.676 208.107 392.526 207.883 392.337 207.695C392.148 207.506 391.924 207.357 391.677 207.255C391.43 207.153 391.165 207.101 390.898 207.102Z" fill="white" fill-opacity="0.9"/>
<path d="M266.818 310.037C262.203 310.038 257.713 311.541 254.027 314.32C250.342 317.098 247.661 321.001 246.39 325.438H287.246C285.976 321.001 283.295 317.098 279.609 314.32C275.924 311.541 271.434 310.038 266.818 310.037ZM322.551 310.037C317.935 310.038 313.445 311.541 309.759 314.319C306.073 317.098 303.392 321.001 302.121 325.438H342.979C341.708 321.001 339.027 317.098 335.342 314.32C331.656 311.541 327.166 310.038 322.551 310.037V310.037Z" fill="#A8CDCB"/>
<path d="M295.998 303.441C282.134 303.441 270.443 312.739 266.818 325.438H325.178C321.553 312.738 309.862 303.441 295.998 303.441V303.441Z" fill="#A8CDCB"/>
<path d="M443.223 246.471C443.762 246.471 444.279 246.257 444.66 245.875C445.041 245.494 445.256 244.977 445.256 244.438C445.256 244.977 445.47 245.494 445.851 245.875C446.232 246.257 446.749 246.471 447.288 246.471C446.749 246.471 446.232 246.685 445.851 247.066C445.47 247.447 445.256 247.964 445.256 248.503C445.256 247.964 445.041 247.447 444.66 247.066C444.279 246.685 443.762 246.471 443.223 246.471ZM253.428 251.878C253.967 251.878 254.483 251.664 254.865 251.283C255.246 250.902 255.46 250.385 255.46 249.846C255.46 250.385 255.674 250.902 256.055 251.283C256.436 251.664 256.953 251.878 257.492 251.878C256.953 251.878 256.436 252.093 256.055 252.474C255.674 252.855 255.46 253.372 255.46 253.911C255.46 253.372 255.246 252.855 254.865 252.474C254.483 252.093 253.967 251.878 253.428 251.878V251.878ZM475.012 202.256C475.551 202.256 476.068 202.042 476.449 201.661C476.83 201.28 477.044 200.763 477.044 200.224C477.044 200.763 477.259 201.28 477.64 201.661C478.021 202.042 478.538 202.256 479.077 202.256C478.538 202.256 478.021 202.47 477.64 202.851C477.259 203.232 477.044 203.749 477.044 204.288C477.044 203.749 476.83 203.232 476.449 202.851C476.068 202.47 475.551 202.256 475.012 202.256V202.256ZM244.352 306.344C244.891 306.344 245.408 306.13 245.789 305.749C246.17 305.368 246.384 304.851 246.384 304.312C246.384 304.851 246.598 305.368 246.979 305.749C247.361 306.13 247.877 306.344 248.416 306.344C248.15 306.344 247.885 306.397 247.639 306.499C247.392 306.601 247.168 306.751 246.979 306.939C246.791 307.128 246.641 307.352 246.539 307.599C246.437 307.845 246.384 308.109 246.384 308.376C246.384 308.109 246.332 307.845 246.23 307.599C246.127 307.352 245.978 307.128 245.789 306.939C245.6 306.751 245.376 306.601 245.13 306.499C244.883 306.397 244.619 306.344 244.352 306.344V306.344ZM563.907 299.576C564.446 299.576 564.963 299.362 565.344 298.98C565.725 298.599 565.939 298.082 565.939 297.543C565.939 298.082 566.153 298.599 566.535 298.98C566.916 299.362 567.433 299.576 567.972 299.576C567.705 299.576 567.44 299.628 567.194 299.73C566.947 299.832 566.723 299.982 566.535 300.171C566.346 300.36 566.196 300.584 566.094 300.83C565.992 301.077 565.939 301.341 565.939 301.608C565.939 301.341 565.887 301.077 565.785 300.83C565.683 300.584 565.533 300.36 565.344 300.171C565.155 299.982 564.931 299.832 564.685 299.73C564.438 299.628 564.174 299.576 563.907 299.576V299.576ZM369.636 176.282C369.903 176.282 370.167 176.229 370.413 176.127C370.66 176.025 370.884 175.875 371.073 175.686C371.261 175.498 371.411 175.274 371.513 175.027C371.615 174.781 371.668 174.516 371.668 174.249C371.668 174.788 371.882 175.305 372.263 175.686C372.644 176.068 373.161 176.282 373.7 176.282C373.161 176.282 372.644 176.496 372.263 176.877C371.882 177.258 371.668 177.775 371.668 178.314C371.668 178.047 371.615 177.783 371.513 177.536C371.411 177.29 371.261 177.066 371.073 176.877C370.884 176.688 370.66 176.538 370.413 176.436C370.167 176.334 369.903 176.282 369.636 176.282V176.282Z" fill="white" fill-opacity="0.9"/>
<path d="M453.347 317.264C450.248 317.265 447.233 318.275 444.759 320.141C442.285 322.007 440.487 324.628 439.635 327.608H467.06C466.208 324.628 464.409 322.007 461.935 320.141C459.46 318.274 456.446 317.265 453.347 317.264V317.264ZM490.756 317.264C487.657 317.265 484.643 318.275 482.169 320.141C479.695 322.007 477.896 324.628 477.044 327.608H504.469C503.618 324.628 501.818 322.007 499.344 320.141C496.87 318.274 493.855 317.265 490.756 317.264V317.264Z" fill="#7FC9EB"/>
<path d="M472.934 312.835C468.507 312.834 464.201 314.275 460.666 316.939C457.132 319.603 454.56 323.345 453.342 327.601H492.515C491.297 323.347 488.727 319.606 485.194 316.942C481.662 314.278 477.358 312.836 472.934 312.835Z" fill="#7FC9EB"/>
</g>
<defs>
<linearGradient id="paint0_linear_3_804" x1="193" y1="429.5" x2="299.5" y2="104" gradientUnits="userSpaceOnUse">
<stop stop-color="#006A51"/>
<stop offset="1" stop-color="#006A51" stop-opacity="0"/>
</linearGradient>
<linearGradient id="paint1_linear_3_804" x1="391" y1="254" x2="387.5" y2="390.5" gradientUnits="userSpaceOnUse">
<stop stop-color="#006A51"/>
<stop offset="1" stop-color="#006A51" stop-opacity="0"/>
</linearGradient>
<linearGradient id="paint2_linear_3_804" x1="374.5" y1="339" x2="368.5" y2="47.5" gradientUnits="userSpaceOnUse">
<stop stop-color="#006A51"/>
<stop offset="1" stop-color="#006A51" stop-opacity="0"/>
</linearGradient>
<linearGradient id="paint3_linear_3_804" x1="446" y1="284" x2="537.5" y2="89" gradientUnits="userSpaceOnUse">
<stop stop-color="#006A51"/>
<stop offset="1" stop-color="#006A51" stop-opacity="0"/>
</linearGradient>
<clipPath id="clip0_3_804">
<rect width="400" height="214.74" fill="white" transform="translate(204 131)"/>
</clipPath>
</defs>
</svg>
