<svg viewBox="0 0 400 215" fill="none" xmlns="http://www.w3.org/2000/svg">
<g clip-path="url(#clip0_3_804)">
<path d="M396.34 214.993C398.773 207.215 400.007 199.109 400 190.956C400 154.409 375.605 123.585 342.272 113.997C344.699 108.09 345.945 101.762 345.938 95.3724C345.938 68.4025 324.158 46.5391 297.291 46.5391C292.788 46.5353 288.306 47.1589 283.974 48.3919C265.989 19.3438 233.914 0 197.332 0C150.031 0 110.258 32.3425 98.7441 76.1972C43.9235 77.8945 4.68058e-05 123.033 4.68058e-05 178.475C-0.0118845 190.958 2.25734 203.338 6.69509 215L396.34 214.993Z" fill="url(#paint0_radial_3_804)"/>
<path d="M110.524 152.322C91.6074 152.322 75.6552 165.009 70.7097 182.337H150.339C145.393 165.008 129.44 152.322 110.524 152.322ZM219.145 152.322C200.228 152.322 184.276 165.009 179.33 182.337H258.96C254.013 165.008 238.061 152.322 219.145 152.322V152.322Z" fill="#00394D"/>
<path d="M167.395 139.463C140.38 139.463 117.589 157.585 110.524 182.337H224.265C217.201 157.585 194.41 139.463 167.395 139.463Z" fill="#00394D"/>
<path d="M349.098 165.049C334.696 173.639 317.272 170.964 317.272 170.964L369.424 139.857C369.424 139.857 363.499 156.459 349.098 165.049Z" fill="#006A51"/>
<path d="M369.426 139.857L317.273 170.964C317.273 170.964 323.198 154.362 337.595 145.775C351.993 137.187 369.426 139.857 369.426 139.857Z" fill="#159B7B"/>
<path d="M337.675 145.3C332.607 161.285 317.802 170.855 317.802 170.855L336.151 112.967C336.151 112.967 342.742 129.314 337.675 145.3Z" fill="#006A51"/>
<path d="M336.151 112.966L317.803 170.852C317.803 170.852 311.212 154.502 316.279 138.517C321.346 122.532 336.151 112.966 336.151 112.966Z" fill="#159B7B"/>
<path d="M289.2 167.501C285.169 167.502 281.248 168.814 278.03 171.241C274.811 173.667 272.47 177.075 271.36 180.95H307.041C305.931 177.075 303.59 173.667 300.371 171.24C297.152 168.814 293.231 167.501 289.2 167.501V167.501ZM337.871 167.501C333.84 167.502 329.919 168.814 326.7 171.241C323.482 173.667 321.141 177.075 320.031 180.95H355.711C354.602 177.075 352.26 173.667 349.042 171.24C345.823 168.814 341.902 167.501 337.871 167.501V167.501Z" fill="#75BAD2"/>
<path d="M314.683 161.739C302.576 161.739 292.365 169.859 289.2 180.95H340.165C336.999 169.859 326.789 161.739 314.683 161.739V161.739Z" fill="#75BAD2"/>
<path d="M298.832 193.549H94.8565C93.0463 193.549 91.3102 192.83 90.0302 191.55C88.7501 190.269 88.031 188.533 88.031 186.723C88.031 184.913 88.7501 183.177 90.0302 181.897C91.3102 180.617 93.0463 179.898 94.8565 179.898H298.832C300.642 179.898 302.378 180.617 303.658 181.897C304.938 183.177 305.657 184.913 305.657 186.723C305.657 188.533 304.938 190.269 303.658 191.55C302.378 192.83 300.642 193.549 298.832 193.549V193.549Z" fill="#458FB0"/>
<path d="M27.6891 10.447C14.5333 10.447 3.44015 19.2694 0 31.3215H55.3782C51.9393 19.2707 40.8388 10.447 27.6891 10.447ZM103.229 10.447C90.0729 10.447 78.9798 19.2694 75.5396 31.3215H130.918C127.481 19.2707 116.384 10.447 103.229 10.447Z" fill="#BADDEA"/>
<path d="M67.2452 1.50529C48.454 1.50529 32.6077 14.1086 27.6963 31.3191H106.794C101.878 14.1074 86.0303 1.50529 67.2452 1.50529V1.50529Z" fill="#BADDEA"/>
<path d="M32.1319 28.3267C28.2668 28.3273 24.5069 29.5864 21.4208 31.9136C18.3348 34.2409 16.0905 37.5097 15.0273 41.2258H49.2353C48.1722 37.5099 45.9281 34.2412 42.8423 31.914C39.7565 29.5867 35.9969 28.3275 32.1319 28.3267V28.3267ZM78.7948 28.3267C74.9296 28.3273 71.1697 29.5864 68.0837 31.9136C64.9976 34.2409 62.7533 37.5097 61.6902 41.2258H95.8981C94.835 37.5099 92.5909 34.2412 89.5051 31.914C86.4194 29.5867 82.6597 28.3275 78.7948 28.3267V28.3267Z" fill="white" fill-opacity="0.9"/>
<path d="M56.5636 22.8021C44.9557 22.8021 35.167 30.5902 32.1321 41.2209H80.9963C77.954 30.5877 68.1715 22.8021 56.5636 22.8021Z" fill="white" fill-opacity="0.9"/>
<path d="M347.982 42.9939C344.829 42.9942 341.763 44.0209 339.246 45.9187C336.729 47.8164 334.898 50.4821 334.03 53.5127H361.934C361.067 50.4819 359.236 47.8161 356.718 45.9183C354.201 44.0205 351.134 42.994 347.982 42.9939V42.9939ZM386.048 42.9939C382.896 42.9942 379.829 44.0209 377.312 45.9187C374.795 47.8164 372.964 50.4821 372.097 53.5127H400.001C399.133 50.4819 397.302 47.8161 394.785 45.9183C392.268 44.0205 389.201 42.994 386.048 42.9939V42.9939Z" fill="#BADDEA"/>
<path d="M367.914 38.4878C363.411 38.4872 359.03 39.9533 355.433 42.6641C351.837 45.3749 349.221 49.1831 347.982 53.5127H387.84C386.6 49.1843 383.986 45.377 380.391 42.6663C376.796 39.9556 372.417 38.4888 367.914 38.4878V38.4878Z" fill="#BADDEA"/>
<path d="M63.8112 182.998V152.95M63.8112 175.019L67.3597 171.471M63.8112 171.479L60.1326 167.801M63.8112 161.748L61.5296 159.466" stroke="#3B3E54" stroke-width="9" stroke-linecap="round" stroke-linejoin="round"/>
<path d="M63.8113 142.105V158.42C63.8113 158.42 67.2186 154.769 67.2186 150.266C67.2186 145.764 63.8113 142.105 63.8113 142.105Z" fill="#2F7D80"/>
<path d="M60.4077 150.261C60.4077 154.764 63.815 158.415 63.815 158.415V142.105C63.815 142.105 60.4077 145.757 60.4077 150.261Z" fill="#369094"/>
<path d="M60.9076 168.576L49.4275 157.096C49.4275 157.096 49.6027 162.06 52.7727 165.23C55.9427 168.4 60.9076 168.576 60.9076 168.576Z" fill="#2F7D80"/>
<path d="M57.5624 160.441C54.3924 157.271 49.4275 157.096 49.4275 157.096L60.9076 168.576C60.9076 168.576 60.7324 163.611 57.5624 160.441Z" fill="#369094"/>
<path d="M63.8113 165.168L65.5709 163.409" stroke="#3B3E54" stroke-width="9" stroke-linecap="round" stroke-linejoin="round"/>
<path d="M76.8124 152.168L65.3323 163.648C65.3323 163.648 70.2972 163.473 73.4672 160.303C76.6372 157.133 76.8124 152.168 76.8124 152.168Z" fill="#2F7D80"/>
<path d="M68.6763 155.514C65.5063 158.684 65.3311 163.648 65.3311 163.648L76.8112 152.168C76.8112 152.168 71.8475 152.344 68.6763 155.514Z" fill="#369094"/>
<path d="M229.393 104.489C230.359 104.489 231.286 104.106 231.969 103.423C232.652 102.74 233.035 101.813 233.035 100.847C233.035 101.813 233.419 102.74 234.102 103.423C234.785 104.106 235.712 104.489 236.678 104.489C235.712 104.489 234.785 104.873 234.102 105.556C233.419 106.239 233.035 107.166 233.035 108.132C233.035 107.166 232.652 106.239 231.969 105.556C231.286 104.873 230.359 104.489 229.393 104.489V104.489ZM61.0488 127.518C62.0146 127.517 62.9407 127.134 63.6234 126.451C64.3062 125.768 64.6898 124.841 64.6898 123.876C64.6898 124.842 65.0735 125.768 65.7565 126.451C66.4396 127.134 67.3659 127.518 68.3319 127.518C67.8536 127.518 67.38 127.612 66.9381 127.795C66.4962 127.978 66.0947 128.246 65.7565 128.585C65.4183 128.923 65.15 129.324 64.967 129.766C64.784 130.208 64.6898 130.682 64.6898 131.16C64.6898 130.194 64.3062 129.268 63.6234 128.585C62.9407 127.902 62.0146 127.518 61.0488 127.518V127.518Z" fill="white" fill-opacity="0.9"/>
<path d="M196.844 91.6756C219.921 91.6756 238.628 72.9681 238.628 49.8912C238.628 26.8144 219.921 8.10692 196.844 8.10692C173.767 8.10692 155.06 26.8144 155.06 49.8912C155.06 72.9681 173.767 91.6756 196.844 91.6756Z" fill="#00394D"/>
<path d="M182.728 55.6569V97.4728C182.728 98.8238 182.191 100.119 181.236 101.075C180.281 102.03 178.985 102.567 177.634 102.567C176.283 102.567 174.988 102.03 174.032 101.075C173.077 100.119 172.54 98.8238 172.54 97.4728V74.5722C172.54 73.3187 172.042 72.1165 171.156 71.2301C170.27 70.3437 169.067 69.8458 167.814 69.8458C166.56 69.8458 165.358 70.3437 164.472 71.2301C163.586 72.1165 163.088 73.3187 163.088 74.5722V103.818C163.088 105.245 162.52 106.614 161.511 107.624C160.502 108.633 159.133 109.2 157.705 109.2C156.278 109.2 154.909 108.633 153.899 107.624C152.89 106.614 152.323 105.245 152.323 103.818V55.8309C152.323 53.7008 151.477 51.658 149.971 50.1518C148.464 48.6456 146.422 47.7994 144.291 47.7994C142.161 47.7994 140.119 48.6456 138.612 50.1518C137.106 51.658 136.26 53.7008 136.26 55.8309V77.2481" stroke="#F38251" stroke-width="9" stroke-miterlimit="10"/>
<path d="M203.753 21.0254C203.753 18.1801 203.176 15.3644 202.056 12.7488C200.936 10.1332 199.296 7.77214 197.237 5.8086C195.178 3.84506 192.742 2.31989 190.076 1.32543C187.41 0.330976 184.57 -0.11207 181.728 0.0231239C170.876 0.523265 162.103 9.39317 161.712 20.249C161.594 23.3585 162.17 26.4553 163.398 29.3147C164.625 32.174 166.474 34.7243 168.809 36.7805C171.583 39.2301 173.106 42.7992 173.106 46.4998V47.0571C173.106 47.4277 173.179 47.7946 173.321 48.137C173.463 48.4794 173.671 48.7905 173.933 49.0525C174.195 49.3146 174.506 49.5224 174.848 49.6643C175.191 49.8061 175.557 49.8791 175.928 49.8791H189.518C189.889 49.8792 190.256 49.8064 190.598 49.6647C190.941 49.5231 191.252 49.3153 191.514 49.0534C191.776 48.7915 191.984 48.4805 192.126 48.1381C192.268 47.7958 192.341 47.4289 192.341 47.0583V46.4973C192.343 44.6461 192.735 42.8159 193.492 41.1266C194.249 39.4373 195.354 37.9268 196.736 36.6941C198.945 34.7257 200.713 32.3119 201.922 29.6113C203.132 26.9106 203.756 23.9845 203.753 21.0254Z" fill="white" fill-opacity="0.9"/>
<path d="M184.932 64.023H180.524C179.946 64.0214 179.393 63.7906 178.984 63.3814C178.576 62.9722 178.347 62.4178 178.347 61.8399V49.8985C178.347 49.8585 178.363 49.8201 178.391 49.7918C178.42 49.7635 178.458 49.7477 178.498 49.7477H186.969C187.009 49.7477 187.047 49.7635 187.076 49.7918C187.104 49.8201 187.12 49.8585 187.12 49.8985V61.8399C187.12 62.127 187.063 62.4113 186.953 62.6764C186.843 62.9416 186.682 63.1825 186.479 63.3853C186.275 63.5881 186.034 63.7488 185.769 63.8582C185.503 63.9676 185.219 64.0236 184.932 64.023V64.023Z" fill="#9FA2C4"/>
<path d="M187.692 61.7291H177.764C177.067 61.7291 176.398 61.4521 175.905 60.959C175.411 60.4659 175.134 59.797 175.134 59.0994V49.9302C175.134 49.8818 175.153 49.8353 175.187 49.8011C175.221 49.7669 175.268 49.7477 175.316 49.7477H190.141C190.19 49.7477 190.236 49.7669 190.271 49.8011C190.305 49.8353 190.324 49.8818 190.324 49.9302V59.0994C190.324 59.4449 190.256 59.787 190.123 60.1062C189.991 60.4253 189.797 60.7152 189.553 60.9594C189.308 61.2036 189.018 61.3973 188.699 61.5293C188.379 61.6614 188.037 61.7293 187.692 61.7291Z" fill="#C5C8E6"/>
<path d="M191.028 57.4432H174.426C174.066 57.4432 173.774 57.7353 173.774 58.0955V59.024C173.774 59.3842 174.066 59.6762 174.426 59.6762H191.028C191.389 59.6762 191.681 59.3842 191.681 59.024V58.0955C191.681 57.7353 191.389 57.4432 191.028 57.4432Z" fill="#9FA2C4"/>
<path d="M191.028 54.2197H174.426C174.066 54.2197 173.774 54.5117 173.774 54.872V55.8004C173.774 56.1607 174.066 56.4527 174.426 56.4527H191.028C191.389 56.4527 191.681 56.1607 191.681 55.8004V54.872C191.681 54.5117 191.389 54.2197 191.028 54.2197Z" fill="#9FA2C4"/>
<path d="M191.028 50.9962H174.426C174.066 50.9962 173.774 51.2882 173.774 51.6484V52.5769C173.774 52.9371 174.066 53.2292 174.426 53.2292H191.028C191.389 53.2292 191.681 52.9371 191.681 52.5769V51.6484C191.681 51.2882 191.389 50.9962 191.028 50.9962Z" fill="#9FA2C4"/>
<path d="M181.936 10.6307C181.936 9.35254 181.428 8.12668 180.524 7.22285C179.62 6.31902 178.395 5.81126 177.116 5.81126C175.838 5.81126 174.612 6.31902 173.708 7.22285C172.805 8.12668 172.297 9.35254 172.297 10.6307V10.7086C171.62 10.5659 170.916 10.6176 170.267 10.8576C169.618 11.0976 169.05 11.5163 168.629 12.0652C168.207 12.6142 167.95 13.2711 167.886 13.9601C167.822 14.6492 167.954 15.3423 168.267 15.9595C167.572 16.3131 166.976 16.8341 166.533 17.4755C166.09 18.117 165.814 18.8586 165.729 19.6336C165.645 20.4085 165.755 21.1923 166.049 21.9142C166.343 22.636 166.813 23.2733 167.415 23.7683C167.039 24.2773 166.811 24.8806 166.758 25.5113C166.704 26.1419 166.827 26.775 167.111 27.3401C167.396 27.9052 167.833 28.3801 168.371 28.712C168.91 29.0439 169.531 29.2197 170.164 29.2199C170.242 29.2199 170.319 29.2199 170.396 29.2114V29.2199C170.396 29.8185 170.57 30.4041 170.897 30.9056C171.224 31.407 171.689 31.8028 172.237 32.0446C172.784 32.2865 173.39 32.364 173.981 32.2678C174.572 32.1716 175.122 31.9059 175.564 31.5028C175.847 32.2172 176.371 32.8104 177.044 33.1804C177.718 33.5504 178.499 33.6739 179.254 33.5298C180.009 33.3857 180.689 32.9829 181.179 32.3908C181.669 31.7987 181.937 31.0543 181.937 30.2859V10.632L181.936 10.6307Z" fill="#F38251"/>
<path d="M178.824 25.4038H179.116V24.6883H178.824C178.09 24.6876 177.387 24.3957 176.867 23.8767C176.348 23.3576 176.057 22.6539 176.056 21.9198V17.0279H175.34V25.596C175.013 25.6762 174.723 25.8636 174.514 26.1282C174.306 26.3929 174.193 26.7196 174.192 27.0563H174.907C174.907 26.8465 174.991 26.6453 175.139 26.497C175.287 26.3487 175.488 26.2653 175.698 26.2653C175.908 26.2653 176.109 26.3487 176.257 26.497C176.406 26.6453 176.489 26.8465 176.489 27.0563H177.205C177.204 26.7196 177.09 26.3929 176.882 26.1282C176.674 25.8636 176.383 25.6762 176.056 25.596V24.0323C176.381 24.4587 176.799 24.8043 177.28 25.0422C177.76 25.2801 178.288 25.4038 178.824 25.4038Z" fill="#FFC0BD"/>
<path d="M182.316 17.7702C182.315 17.666 182.308 17.5619 182.293 17.4587V10.632H181.577C181.576 11.7378 181.137 12.7982 180.355 13.5805C179.574 14.3628 178.514 14.8031 177.408 14.8047V15.5202C178.246 15.5198 179.069 15.3042 179.799 14.894C180.53 14.4838 181.142 13.8928 181.578 13.1777V16.1432C181.265 15.8667 180.878 15.6865 180.465 15.6243C180.052 15.5621 179.63 15.6205 179.249 15.7926C178.868 15.9647 178.545 16.2431 178.319 16.5944C178.092 16.9456 177.972 17.3548 177.973 17.7727H178.688C178.7 17.4153 178.843 17.0747 179.089 16.8156C179.336 16.5564 179.669 16.3967 180.025 16.3667C180.381 16.3367 180.736 16.4385 181.023 16.6527C181.309 16.867 181.507 17.1789 181.578 17.5293V27.8911C181.238 27.4294 180.795 27.0541 180.283 26.7954C179.772 26.5367 179.207 26.4018 178.633 26.4016V27.1172C179.414 27.1181 180.163 27.4287 180.715 27.9808C181.267 28.5328 181.577 29.2813 181.578 30.062V30.2908C181.578 31.0718 181.268 31.8209 180.716 32.3731C180.163 32.9254 179.414 33.2357 178.633 33.2357C177.852 33.2357 177.103 32.9254 176.551 32.3731C175.999 31.8209 175.688 31.0718 175.688 30.2908H174.973C174.973 30.6623 175.03 31.0316 175.141 31.386C174.631 31.776 173.999 31.9735 173.357 31.944C172.716 31.9145 172.105 31.6597 171.633 31.2245C171.16 30.7894 170.857 30.2016 170.775 29.5645C170.693 28.9275 170.838 28.282 171.185 27.7414C171.472 27.9075 171.807 27.9738 172.136 27.9297C172.465 27.8857 172.77 27.7339 173.004 27.498L172.498 26.9918C172.348 27.1346 172.149 27.2132 171.942 27.2108C171.736 27.2085 171.538 27.1253 171.392 26.9792C171.246 26.8331 171.163 26.6356 171.16 26.4289C171.158 26.2223 171.237 26.0229 171.379 25.8735L170.873 25.3673C170.633 25.6084 170.481 25.9238 170.443 26.2621C170.405 26.6004 170.482 26.9416 170.663 27.2303C170.323 27.7118 170.114 28.2726 170.054 28.8585C169.248 28.8366 168.483 28.4973 167.926 27.9146C167.368 27.3318 167.064 26.5526 167.078 25.7462C167.091 24.9399 167.423 24.1717 168 23.6086C168.578 23.0454 169.354 22.7328 170.16 22.7388H170.518C170.546 22.3719 170.712 22.0291 170.982 21.779C171.252 21.5289 171.606 21.39 171.974 21.39C172.342 21.39 172.696 21.5289 172.966 21.779C173.236 22.0291 173.402 22.3719 173.43 22.7388H174.145C174.145 22.2852 174.003 21.8431 173.738 21.4746C173.474 21.106 173.101 20.8296 172.671 20.6841C172.241 20.5385 171.777 20.5312 171.343 20.6632C170.909 20.7951 170.527 21.0597 170.251 21.4197C170.065 21.0024 169.763 20.6479 169.38 20.3989C168.996 20.15 168.55 20.0172 168.093 20.0166V20.7321C168.473 20.7329 168.841 20.8648 169.135 21.1055C169.429 21.3463 169.632 21.6812 169.707 22.0537C168.811 22.1623 167.983 22.5889 167.375 23.256C166.774 22.6744 166.355 21.9315 166.167 21.1171C165.98 20.3026 166.031 19.4511 166.317 18.6654C166.602 17.8797 167.108 17.1932 167.774 16.6887C168.441 16.1842 169.239 15.8832 170.073 15.822C170.16 16.3258 170.423 16.7826 170.814 17.112C171.206 17.4414 171.7 17.6223 172.212 17.623V16.9075C171.845 16.8794 171.502 16.7138 171.252 16.4438C171.002 16.1739 170.863 15.8194 170.863 15.4514C170.863 15.0835 171.002 14.729 171.252 14.4591C171.502 14.1891 171.845 14.0235 172.212 13.9954V13.2799C171.696 13.2804 171.197 13.4643 170.804 13.7987C170.412 14.133 170.151 14.5961 170.068 15.1052C169.514 15.1408 168.971 15.2678 168.459 15.4813C168.328 15.1015 168.252 14.7047 168.234 14.3033C168.234 13.4519 168.562 12.6333 169.15 12.0175C169.738 11.4017 170.541 11.0359 171.391 10.9961C172.242 10.9564 173.075 11.2456 173.718 11.8039C174.361 12.3622 174.764 13.1465 174.844 13.9942C174.52 14.0772 174.232 14.2657 174.027 14.5301C173.821 14.7945 173.71 15.1197 173.71 15.4545H174.425C174.425 15.2447 174.509 15.0435 174.657 14.8952C174.805 14.7468 175.007 14.6635 175.216 14.6635C175.426 14.6635 175.627 14.7468 175.776 14.8952C175.924 15.0435 176.007 15.2447 176.007 15.4545H176.723C176.721 15.116 176.606 14.7878 176.395 14.5229C176.184 14.2581 175.89 14.0718 175.561 13.9942C175.495 13.1778 175.183 12.4006 174.665 11.766C174.147 11.1313 173.449 10.6692 172.662 10.4409C172.716 9.27779 173.223 8.18201 174.075 7.38757C174.926 6.59314 176.054 6.16302 177.218 6.18907C178.382 6.21513 179.49 6.69528 180.305 7.527C181.12 8.35873 181.577 9.47609 181.579 10.6405H182.295C182.3 9.29322 181.78 7.99697 180.845 7.02707C179.91 6.05718 178.634 5.49005 177.287 5.44617C175.94 5.40229 174.63 5.8851 173.634 6.79206C172.637 7.69902 172.034 8.95865 171.951 10.3034C171.39 10.2463 170.823 10.3077 170.287 10.4836C169.751 10.6596 169.258 10.9461 168.84 11.3246C168.422 11.7032 168.088 12.1653 167.859 12.6811C167.631 13.197 167.514 13.755 167.515 14.3191C167.533 14.8315 167.633 15.3377 167.812 15.8183C167.137 16.2183 166.566 16.7698 166.141 17.4291C165.717 18.0884 165.453 18.8374 165.368 19.6168C165.284 20.3961 165.382 21.1844 165.656 21.9192C165.929 22.6539 166.37 23.3149 166.943 23.8498C166.596 24.4143 166.404 25.0603 166.386 25.7226C166.368 26.3849 166.525 27.0403 166.84 27.6228C167.156 28.2053 167.62 28.6944 168.185 29.0407C168.749 29.3871 169.396 29.5786 170.058 29.596C170.125 30.1864 170.343 30.7496 170.692 31.2308C171.04 31.712 171.507 32.0949 172.048 32.3423C172.588 32.5896 173.183 32.6931 173.775 32.6426C174.367 32.5921 174.936 32.3894 175.427 32.0541C175.819 32.7646 176.437 33.3244 177.182 33.6457C177.928 33.9669 178.759 34.0313 179.545 33.8287C180.331 33.6262 181.027 33.1681 181.524 32.5265C182.021 31.885 182.291 31.0964 182.291 30.2847V17.7702H182.316Z" fill="#FFC0BD"/>
<path d="M183.52 10.6307C183.52 9.35254 184.028 8.12668 184.932 7.22285C185.836 6.31902 187.062 5.81126 188.34 5.81126C189.618 5.81126 190.844 6.31902 191.748 7.22285C192.651 8.12668 193.159 9.35254 193.159 10.6307V10.7086C193.836 10.5659 194.54 10.6176 195.189 10.8576C195.838 11.0976 196.406 11.5163 196.828 12.0652C197.249 12.6142 197.506 13.2711 197.57 13.9601C197.635 14.6492 197.503 15.3423 197.19 15.9595C197.884 16.3131 198.48 16.8341 198.923 17.4755C199.366 18.117 199.642 18.8586 199.727 19.6336C199.811 20.4085 199.701 21.1923 199.407 21.9142C199.113 22.636 198.644 23.2733 198.041 23.7683C198.418 24.2773 198.645 24.8806 198.699 25.5113C198.752 26.1419 198.63 26.775 198.345 27.3401C198.06 27.9052 197.623 28.3801 197.085 28.712C196.546 29.0439 195.925 29.2197 195.292 29.2199C195.215 29.2199 195.137 29.2199 195.06 29.2114V29.2199C195.06 29.8185 194.886 30.4041 194.559 30.9056C194.232 31.407 193.767 31.8028 193.219 32.0446C192.672 32.2865 192.066 32.364 191.475 32.2678C190.884 32.1716 190.334 31.9059 189.892 31.5028C189.609 32.2172 189.085 32.8104 188.412 33.1804C187.738 33.5504 186.957 33.6739 186.202 33.5298C185.447 33.3857 184.767 32.9829 184.277 32.3908C183.787 31.7987 183.519 31.0543 183.519 30.2859V10.632L183.52 10.6307Z" fill="#F38251"/>
<path d="M186.632 25.4038H186.34V24.6883H186.632C187.366 24.6876 188.07 24.3957 188.589 23.8767C189.108 23.3576 189.4 22.6539 189.4 21.9198V17.0279H190.116V25.596C190.443 25.6762 190.734 25.8636 190.942 26.1282C191.15 26.3929 191.264 26.7196 191.265 27.0563H190.549C190.549 26.8465 190.466 26.6453 190.317 26.497C190.169 26.3487 189.968 26.2653 189.758 26.2653C189.548 26.2653 189.347 26.3487 189.199 26.497C189.05 26.6453 188.967 26.8465 188.967 27.0563H188.252C188.252 26.7196 188.366 26.3929 188.574 26.1282C188.782 25.8636 189.073 25.6762 189.4 25.596V24.0323C189.076 24.4587 188.657 24.8043 188.177 25.0422C187.696 25.2801 187.168 25.4038 186.632 25.4038V25.4038Z" fill="#FFC0BD"/>
<path d="M183.139 17.7702C183.14 17.666 183.147 17.5619 183.163 17.4587V10.632H183.878C183.879 11.738 184.318 12.7986 185.1 13.5809C185.882 14.3633 186.942 14.8034 188.048 14.8047V15.5202C187.211 15.5198 186.387 15.3042 185.657 14.894C184.927 14.4838 184.314 13.8928 183.878 13.1777V16.1432C184.191 15.8667 184.578 15.6865 184.991 15.6243C185.404 15.5621 185.827 15.6205 186.207 15.7926C186.588 15.9647 186.911 16.2431 187.138 16.5944C187.364 16.9456 187.484 17.3548 187.484 17.7727H186.768C186.756 17.4153 186.613 17.0747 186.367 16.8156C186.121 16.5564 185.788 16.3967 185.431 16.3667C185.075 16.3367 184.72 16.4385 184.434 16.6527C184.147 16.867 183.95 17.1789 183.878 17.5293V27.8911C184.218 27.4294 184.661 27.0541 185.173 26.7954C185.685 26.5367 186.25 26.4018 186.823 26.4016V27.1172C186.042 27.1181 185.294 27.4287 184.742 27.9808C184.19 28.5328 183.879 29.2813 183.878 30.062V30.2908C183.878 31.0718 184.188 31.8209 184.741 32.3731C185.293 32.9254 186.042 33.2357 186.823 33.2357C187.604 33.2357 188.353 32.9254 188.905 32.3731C189.458 31.8209 189.768 31.0718 189.768 30.2908H190.483C190.483 30.6623 190.427 31.0316 190.315 31.386C190.826 31.776 191.457 31.9735 192.099 31.944C192.74 31.9145 193.351 31.6597 193.823 31.2245C194.296 30.7894 194.6 30.2016 194.682 29.5645C194.764 28.9275 194.618 28.282 194.272 27.7414C193.984 27.9075 193.65 27.9738 193.32 27.9297C192.991 27.8857 192.686 27.7339 192.452 27.498L192.958 26.9918C193.108 27.1346 193.307 27.2132 193.514 27.2108C193.721 27.2085 193.918 27.1253 194.064 26.9792C194.21 26.8331 194.293 26.6356 194.296 26.4289C194.298 26.2223 194.22 26.0229 194.077 25.8735L194.583 25.3673C194.823 25.6084 194.975 25.9238 195.013 26.2621C195.051 26.6004 194.974 26.9416 194.794 27.2303C195.133 27.7118 195.342 28.2726 195.402 28.8585C196.208 28.8366 196.973 28.4973 197.53 27.9146C198.088 27.3318 198.393 26.5526 198.379 25.7462C198.365 24.9399 198.033 24.1717 197.456 23.6086C196.879 23.0454 196.103 22.7328 195.296 22.7388H194.938C194.91 22.3719 194.745 22.0291 194.475 21.779C194.205 21.5289 193.85 21.39 193.482 21.39C193.114 21.39 192.76 21.5289 192.49 21.779C192.22 22.0291 192.054 22.3719 192.026 22.7388H191.311C191.311 22.2852 191.453 21.8431 191.718 21.4746C191.982 21.106 192.356 20.8296 192.785 20.6841C193.215 20.5385 193.679 20.5312 194.113 20.6632C194.547 20.7951 194.929 21.0597 195.205 21.4197C195.391 21.0024 195.694 20.6479 196.077 20.3989C196.46 20.15 196.907 20.0172 197.364 20.0166V20.7321C196.983 20.7329 196.615 20.8648 196.321 21.1055C196.027 21.3463 195.825 21.6812 195.749 22.0537C196.645 22.1623 197.473 22.5889 198.082 23.256C198.682 22.6744 199.101 21.9315 199.289 21.1171C199.477 20.3026 199.425 19.4511 199.14 18.6654C198.855 17.8797 198.348 17.1932 197.682 16.6887C197.015 16.1842 196.217 15.8832 195.384 15.822C195.296 16.3258 195.033 16.7826 194.642 17.112C194.251 17.4414 193.756 17.6223 193.244 17.623V16.9075C193.611 16.8794 193.954 16.7138 194.204 16.4438C194.454 16.1739 194.593 15.8194 194.593 15.4514C194.593 15.0835 194.454 14.729 194.204 14.4591C193.954 14.1891 193.611 14.0235 193.244 13.9954V13.2799C193.76 13.2804 194.259 13.4643 194.652 13.7987C195.045 14.133 195.306 14.5961 195.389 15.1052C195.942 15.1408 196.486 15.2678 196.997 15.4813C197.129 15.1015 197.204 14.7047 197.222 14.3033C197.222 13.4519 196.894 12.6333 196.306 12.0175C195.718 11.4017 194.915 11.0359 194.065 10.9961C193.214 10.9564 192.381 11.2456 191.738 11.8039C191.095 12.3622 190.692 13.1465 190.612 13.9942C190.937 14.0772 191.224 14.2657 191.43 14.5301C191.635 14.7945 191.746 15.1197 191.746 15.4545H191.031C191.031 15.2447 190.948 15.0435 190.799 14.8952C190.651 14.7468 190.45 14.6635 190.24 14.6635C190.03 14.6635 189.829 14.7468 189.681 14.8952C189.532 15.0435 189.449 15.2447 189.449 15.4545H188.733C188.735 15.116 188.851 14.7878 189.061 14.5229C189.272 14.2581 189.566 14.0718 189.896 13.9942C189.961 13.1778 190.274 12.4006 190.791 11.766C191.309 11.1313 192.008 10.6692 192.794 10.4409C192.74 9.27779 192.233 8.18201 191.382 7.38757C190.53 6.59314 189.402 6.16302 188.238 6.18907C187.074 6.21513 185.966 6.69528 185.151 7.527C184.336 8.35873 183.879 9.47609 183.877 10.6405H183.161C183.156 9.29322 183.676 7.99697 184.611 7.02707C185.546 6.05718 186.823 5.49005 188.169 5.44617C189.516 5.40229 190.826 5.8851 191.823 6.79206C192.819 7.69902 193.422 8.95865 193.505 10.3034C194.066 10.2463 194.633 10.3077 195.169 10.4836C195.705 10.6596 196.198 10.9461 196.616 11.3246C197.035 11.7032 197.369 12.1653 197.597 12.6811C197.825 13.197 197.943 13.755 197.942 14.3191C197.923 14.8315 197.823 15.3377 197.645 15.8183C198.319 16.2183 198.891 16.7698 199.315 17.4291C199.739 18.0884 200.004 18.8374 200.088 19.6168C200.172 20.3961 200.074 21.1844 199.801 21.9192C199.527 22.6539 199.087 23.3149 198.514 23.8498C198.86 24.4143 199.053 25.0603 199.071 25.7226C199.089 26.3849 198.932 27.0403 198.616 27.6228C198.3 28.2053 197.837 28.6944 197.272 29.0407C196.707 29.3871 196.061 29.5786 195.398 29.596C195.332 30.1864 195.113 30.7496 194.765 31.2308C194.416 31.712 193.949 32.0949 193.409 32.3423C192.868 32.5896 192.273 32.6931 191.681 32.6426C191.089 32.5921 190.52 32.3894 190.029 32.0541C189.637 32.7646 189.02 33.3244 188.274 33.6457C187.529 33.9669 186.698 34.0313 185.912 33.8287C185.126 33.6262 184.429 33.1681 183.932 32.5265C183.435 31.885 183.165 31.0964 183.165 30.2847V17.7702H183.139Z" fill="#FFC0BD"/>
<path d="M138.798 80.4473C139.017 80.4473 139.228 80.5344 139.383 80.6893C139.538 80.8443 139.625 81.0544 139.625 81.2736V87.7961C139.625 88.0153 139.538 88.2254 139.383 88.3804C139.228 88.5353 139.017 88.6224 138.798 88.6224C138.579 88.6224 138.369 88.5353 138.214 88.3804C138.059 88.2254 137.972 88.0153 137.972 87.7961V81.2736C137.972 81.0544 138.059 80.8443 138.214 80.6893C138.369 80.5344 138.579 80.4473 138.798 80.4473V80.4473ZM133.698 80.4473C133.917 80.4473 134.128 80.5344 134.283 80.6893C134.438 80.8443 134.525 81.0544 134.525 81.2736V87.7961C134.525 88.0153 134.438 88.2254 134.283 88.3804C134.128 88.5353 133.917 88.6224 133.698 88.6224C133.479 88.6224 133.269 88.5353 133.114 88.3804C132.959 88.2254 132.872 88.0153 132.872 87.7961V81.2736C132.872 81.0544 132.959 80.8443 133.114 80.6893C133.269 80.5344 133.479 80.4473 133.698 80.4473V80.4473Z" fill="#75BAD2"/>
<path d="M140.939 83.4883H131.56V77.1313C131.56 75.8878 132.054 74.6952 132.934 73.8159C133.813 72.9366 135.006 72.4426 136.249 72.4426C137.493 72.4426 138.685 72.9366 139.564 73.8159C140.444 74.6952 140.938 75.8878 140.938 77.1313V83.4883H140.939Z" fill="#80839E"/>
<path d="M130.158 83.4397H142.342C142.547 83.4397 142.713 83.2735 142.713 83.0685V81.2176C142.713 81.0126 142.547 80.8465 142.342 80.8465H130.158C129.954 80.8465 129.787 81.0126 129.787 81.2176V83.0685C129.787 83.2735 129.954 83.4397 130.158 83.4397Z" fill="#8F92B0"/>
<path d="M136.25 76.3695C136.608 76.3695 136.898 76.0797 136.898 75.7221C136.898 75.3646 136.608 75.0748 136.25 75.0748C135.893 75.0748 135.603 75.3646 135.603 75.7221C135.603 76.0797 135.893 76.3695 136.25 76.3695Z" fill="#F38251"/>
<path d="M216.637 25.1251C216.637 24.2003 215.742 23.7233 214.637 23.7233C213.355 23.7233 212.161 24.4984 211.535 25.7518L206.226 23.0966C207.747 20.2332 210.76 18.2643 215.533 18.2643C220.217 18.2643 223.707 20.2332 223.707 23.9618C223.707 28.5251 218.934 29.3307 218.934 31.6282H212.785C212.785 28.0189 216.637 26.9444 216.637 25.1251V25.1251ZM211.924 36.3436C211.924 34.3455 213.535 32.8232 215.861 32.8232C218.188 32.8232 219.799 34.3443 219.799 36.3436C219.799 38.3125 218.188 39.9237 215.861 39.9237C213.535 39.9237 211.924 38.3101 211.924 36.3436Z" fill="#F38251"/>
<path d="M200.027 64.6971V64.6618C200.022 64.631 200.016 64.6002 200.009 64.5694V64.5475C200.002 64.5158 199.996 64.4854 199.988 64.455V64.4087L199.974 64.3515V64.3321L199.959 64.2761L199.952 64.2517V64.2298C199.943 64.1994 199.935 64.169 199.925 64.1386L199.919 64.1167L199.89 64.0266L199.883 64.0047V63.9926L200.354 63.6506L200.706 63.3951C200.603 63.0727 200.453 62.7673 200.261 62.4885L199.842 62.6102L199.284 62.7744L199.271 62.755L199.217 62.6771L199.204 62.6588L199.148 62.581L199.135 62.5651L199.11 62.5311L199.084 62.497L199.072 62.4812L199.013 62.4057L198.998 62.3875L198.937 62.3145L198.923 62.2974L199.233 61.8107L199.466 61.4456C199.251 61.1847 198.998 60.9568 198.717 60.769L198.374 61.0392L197.917 61.4042L197.908 61.3969L197.888 61.3835L197.809 61.3312L197.79 61.319L197.709 61.2679L197.69 61.2558L197.669 61.2424L197.619 61.212H197.601L197.551 61.1827L197.529 61.1706L197.51 61.1596L197.426 61.1134L197.405 61.1024L197.321 61.0586L197.3 61.0477H197.289L197.381 60.4721L197.449 60.0413C197.148 59.8867 196.826 59.7769 196.494 59.7152L196.284 60.0973L196.006 60.6084H195.976L195.883 60.5913H195.861L195.766 60.5755H195.746L195.705 60.5694H195.643L195.548 60.5585H195.526L195.431 60.55H195.402L195.274 59.9829L195.178 59.557C194.841 59.5251 194.501 59.5428 194.169 59.6093L194.117 60.0437L194.048 60.6205H194.014L193.92 60.6388H193.898L193.804 60.6595H193.758L193.701 60.6741H193.681L193.625 60.6887L193.601 60.696H193.579L193.488 60.7228L193.466 60.7289L193.376 60.7581L193.354 60.7654H193.343L193.001 60.2932L192.746 59.9403C192.423 60.0436 192.118 60.1937 191.839 60.3857L191.961 60.8043L192.125 61.3628L192.107 61.3762L192.028 61.4298L192.009 61.4432L191.931 61.4991L191.916 61.5101L191.882 61.5357L191.848 61.5612L191.833 61.5734L191.757 61.633L191.74 61.6464L191.666 61.7072L191.649 61.7218L191.162 61.4115L190.797 61.1779C190.536 61.3934 190.309 61.646 190.121 61.9275L190.391 62.2706L190.756 62.727L190.749 62.7379L190.737 62.7562L190.684 62.8353L190.672 62.8535L190.621 62.9351L190.61 62.9533L190.597 62.9752L190.566 63.0251V63.0434L190.537 63.0933L190.525 63.1152L190.514 63.1346L190.469 63.2186L190.458 63.2381L190.414 63.322L190.404 63.3427V63.3537L189.83 63.2624L189.399 63.1943C189.244 63.495 189.134 63.8169 189.073 64.1495L189.455 64.3588L189.966 64.6375V64.6667C189.96 64.6983 189.954 64.73 189.949 64.7604V64.7823C189.949 64.8139 189.938 64.8456 189.933 64.8772V64.8967L189.927 64.9381V65.0001C189.927 65.0318 189.92 65.0634 189.916 65.0963V65.1182C189.916 65.1498 189.91 65.1814 189.907 65.2131V65.2423L189.339 65.3701L188.914 65.4662C188.882 65.8032 188.899 66.1431 188.966 66.475L189.4 66.5273L189.977 66.5967V66.632C189.977 66.6624 189.989 66.694 189.995 66.7245V66.7476C190.001 66.778 190.009 66.8096 190.016 66.8401V66.8875L190.031 66.9435V66.9642L190.045 67.0202L190.053 67.0445V67.0652C190.061 67.0956 190.07 67.1273 190.079 67.1577L190.085 67.1796L190.115 67.2708L190.122 67.2915V67.3037L189.65 67.6456L189.297 67.9012C189.4 68.2235 189.55 68.5289 189.742 68.8078L190.161 68.6861L190.719 68.5218L190.733 68.5413L190.786 68.6192L190.8 68.6374L190.856 68.7153L190.867 68.7311L190.892 68.7652L190.918 68.7993L190.93 68.8139L190.99 68.8893L191.003 68.9063L191.064 68.9806L191.078 68.9976L190.768 69.4844L190.534 69.8494C190.75 70.1103 191.003 70.3382 191.284 70.526L191.627 70.2559L192.084 69.8908L192.095 69.8981L192.113 69.9103L192.192 69.9626L192.211 69.9748L192.292 70.0259L192.311 70.0381L192.333 70.0514L192.383 70.0819H192.4L192.451 70.1111L192.473 70.1232L192.491 70.1342L192.575 70.1804L192.595 70.1902L192.68 70.234L192.699 70.2437H192.71L192.619 70.8181L192.551 71.2489C192.852 71.4038 193.173 71.5136 193.506 71.575L193.715 71.1929L193.994 70.6818H194.022L194.116 70.6988H194.138L194.233 70.7146H194.252L194.295 70.7207H194.356L194.452 70.7317H194.474L194.57 70.7414H194.599L194.727 71.3085L194.823 71.7344C195.16 71.7662 195.5 71.7486 195.832 71.6821L195.884 71.2476L195.953 70.6708H195.989L196.081 70.6526H196.104L196.197 70.6319H196.22L196.245 70.6258L196.301 70.6112H196.322L196.378 70.5966L196.402 70.5893H196.423L196.516 70.5625L196.536 70.5565L196.627 70.5272L196.648 70.5199H196.66L197.002 70.9909L197.258 71.3438C197.58 71.2401 197.885 71.0901 198.164 70.8984L198.043 70.4798L197.878 69.9212L197.898 69.9078L197.976 69.8543L197.995 69.8409L198.072 69.7849L198.088 69.7728L198.122 69.7472L198.156 69.7217L198.172 69.7095L198.247 69.6499L198.264 69.6365L198.337 69.5756L198.354 69.561L198.841 69.8713L199.206 70.105C199.467 69.8894 199.695 69.6369 199.883 69.3554L199.612 69.0122L199.247 68.5559L199.255 68.5461L199.268 68.5267L199.32 68.4488L199.334 68.4293L199.384 68.349L199.396 68.3295L199.409 68.3076L199.438 68.2577V68.2383L199.468 68.1872L199.48 68.1653L199.491 68.1458L199.537 68.0618L199.548 68.0424L199.592 67.9572L199.602 67.9365V67.9255L200.176 68.0168L200.607 68.0849C200.761 67.7841 200.871 67.4623 200.933 67.1297L200.551 66.9204L200.04 66.6417V66.6441V66.621C200.04 66.5906 200.052 66.559 200.057 66.5273V66.5042C200.057 66.4726 200.066 66.4421 200.071 66.4105V66.391C200.071 66.3764 200.071 66.363 200.077 66.3497V66.2888C200.077 66.2572 200.085 66.2255 200.088 66.1939V66.172C200.088 66.1404 200.094 66.1087 200.097 66.0771V66.0479L200.664 65.9201L201.09 65.824C201.122 65.4869 201.104 65.1471 201.037 64.8152L200.603 64.7628L200.027 64.6971ZM197.743 65.4942C197.772 66.0485 197.636 66.5989 197.352 67.0758C197.068 67.5527 196.649 67.9347 196.148 68.1734C195.647 68.4122 195.086 68.4969 194.537 68.417C193.988 68.3371 193.475 68.0961 193.062 67.7245C192.65 67.3529 192.357 66.8674 192.221 66.3294C192.084 65.7913 192.111 65.2249 192.296 64.7018C192.482 64.1787 192.818 63.7224 193.263 63.3906C193.708 63.0588 194.242 62.8664 194.796 62.8377C195.538 62.7996 196.265 63.0573 196.817 63.5544C197.37 64.0515 197.702 64.7473 197.742 65.4893L197.743 65.4942ZM222.456 71.5713V71.5482C222.456 71.5324 222.456 71.5166 222.447 71.502C222.435 71.4395 222.423 71.377 222.41 71.3146L222.399 71.2683C222.385 71.205 222.371 71.1466 222.356 71.0809L222.345 71.0359C222.345 71.0189 222.337 71.003 222.333 70.986C222.323 70.9471 222.314 70.9093 222.304 70.8716V70.8303L222.273 70.7171C222.273 70.7 222.264 70.6842 222.26 70.6672L222.248 70.6246C222.231 70.5625 222.213 70.5029 222.193 70.4396L222.181 70.3958C222.162 70.335 222.143 70.2741 222.122 70.2133L222.108 70.1695L222.101 70.1451L223.052 69.4552L223.765 68.9392C223.557 68.2902 223.254 67.6752 222.867 67.1139L222.023 67.3572L220.895 67.6882L220.887 67.6773L220.862 67.6383C220.825 67.586 220.79 67.5325 220.752 67.4802L220.726 67.4424L220.612 67.2867L220.588 67.255L220.537 67.1869L220.485 67.1187L220.46 67.0871L220.339 66.9362L220.309 66.9009L220.188 66.7525L220.158 66.7172L220.15 66.7074L220.777 65.7157L221.248 64.9697C220.809 64.4414 220.295 63.9806 219.722 63.6019L219.028 64.1471L218.107 64.8772L218.086 64.8626L218.047 64.8371L217.888 64.7312L217.849 64.7056L217.687 64.6034L217.648 64.5791L217.605 64.5523L217.503 64.4915L217.485 64.4805L217.465 64.4696L217.364 64.4112L217.319 64.3856L217.279 64.3637L217.11 64.2712L217.069 64.2493L216.9 64.1617L216.858 64.141L216.836 64.1301L217.021 62.9691L217.16 62.1003C216.553 61.7882 215.903 61.5664 215.231 61.4419L214.809 62.2147L214.246 63.2369H214.233L214.187 63.2283L213.999 63.1943L213.954 63.187L213.762 63.1565H213.724L213.64 63.1444L213.554 63.1334H213.515L213.323 63.1103H213.278L213.087 63.092H213.027L212.768 61.9482L212.574 61.0878C211.893 61.0236 211.208 61.0593 210.538 61.1937L210.433 62.0699L210.294 63.2344H210.271L210.226 63.2429L210.038 63.2807L209.994 63.2904L209.805 63.333L209.761 63.3439L209.711 63.3561L209.597 63.3853H209.556L209.441 63.4157L209.391 63.4303L209.348 63.4425L209.163 63.4973L209.119 63.5107L208.938 63.5691L208.892 63.5837L208.869 63.591L208.179 62.6394L207.663 61.9275C207.014 62.1361 206.399 62.4387 205.838 62.8256L206.081 63.6701L206.412 64.7969L206.402 64.8042L206.364 64.8298C206.31 64.8651 206.258 64.9016 206.206 64.9393L206.168 64.9648L206.011 65.078L205.979 65.1011L205.911 65.1522L205.843 65.2046L205.813 65.2277L205.659 65.3494L205.624 65.3774L205.474 65.4991L205.44 65.527L205.43 65.5356L204.439 64.9089L203.693 64.4379C203.164 64.8705 202.702 65.378 202.32 65.9444L202.865 66.6381L203.595 67.5593L203.581 67.5799L203.555 67.6177C203.52 67.67 203.483 67.7235 203.449 67.7771L203.425 67.8148L203.322 67.9779L203.298 68.0156L203.272 68.0594L203.211 68.1604L203.201 68.1774L203.19 68.1957L203.132 68.2979L203.106 68.3429L203.084 68.3819L202.992 68.551L202.971 68.5912C202.941 68.6471 202.911 68.7043 202.883 68.7615L202.863 68.8029L202.851 68.8248L201.691 68.6399L200.822 68.5011C200.509 69.1083 200.287 69.7582 200.164 70.4299L200.935 70.8522L201.967 71.4156V71.429L201.959 71.4728C201.946 71.536 201.934 71.5945 201.923 71.6626L201.916 71.7064C201.905 71.7697 201.894 71.8281 201.886 71.8987V71.9376C201.886 71.951 201.877 71.9936 201.873 72.0228L201.863 72.108V72.1457C201.854 72.2102 201.847 72.2747 201.839 72.3392V72.383C201.832 72.4475 201.826 72.5108 201.821 72.5753V72.6337L200.677 72.8929L199.817 73.0876C199.753 73.7677 199.788 74.4536 199.923 75.1234L200.799 75.2281L201.964 75.3668V75.3899C201.964 75.4058 201.964 75.4216 201.972 75.4362C201.984 75.4982 201.996 75.5579 202.01 75.6224C202.01 75.637 202.016 75.6528 202.019 75.6674C202.033 75.7294 202.047 75.7891 202.062 75.8536C202.062 75.8682 202.069 75.884 202.073 75.8986L202.085 75.9497C202.095 75.9874 202.105 76.0251 202.114 76.0641V76.1055L202.145 76.2199L202.158 76.2685L202.17 76.3111C202.187 76.3732 202.206 76.4328 202.225 76.4961L202.237 76.5387L202.296 76.7212L202.31 76.7638C202.31 76.7723 202.31 76.7796 202.318 76.7881L201.366 77.4781L200.654 77.9941C200.863 78.643 201.166 79.258 201.552 79.8194L202.397 79.576L203.524 79.245L203.531 79.256L203.556 79.2937C203.593 79.3473 203.628 79.3996 203.666 79.4519L203.693 79.4896L203.806 79.6466L203.829 79.6782L203.88 79.7476L203.932 79.8158L203.956 79.8462C203.994 79.8973 204.036 79.9484 204.077 79.9995L204.105 80.0336C204.145 80.0835 204.188 80.1334 204.227 80.1833L204.255 80.2173L204.263 80.2271L203.637 81.2188L203.166 81.9648C203.601 82.4908 204.111 82.9504 204.68 83.3289L205.373 82.7838L206.294 82.0536L206.315 82.0682L206.353 82.0938L206.512 82.1996L206.551 82.224L206.714 82.3274L206.753 82.3505L206.797 82.3773L206.898 82.4382L206.916 82.4479L206.935 82.4588L207.037 82.5173L207.081 82.5428L207.118 82.5647L207.289 82.6584L207.328 82.6791L207.499 82.7679L207.539 82.7874L207.562 82.7996L207.377 83.9593L207.239 84.8281C207.846 85.1409 208.496 85.3627 209.167 85.4865L209.59 84.715L210.153 83.683H210.167L210.212 83.6916L210.401 83.7268L210.445 83.7341L210.637 83.7646H210.676L210.762 83.7767L210.846 83.7877H210.883L211.077 83.8108H211.121L211.313 83.8291H211.371L211.63 84.9729L211.825 85.8333C212.505 85.8975 213.191 85.8618 213.861 85.7274L213.966 84.8512L214.104 83.6867H214.129L214.175 83.6782L214.361 83.6404L214.407 83.6307L214.594 83.5881L214.639 83.5772L214.69 83.565L214.804 83.5358H214.846L214.959 83.5054L215.009 83.492L215.05 83.4798L215.236 83.4251L215.277 83.4129L215.461 83.3545L215.504 83.3399L215.528 83.3326L216.218 84.2842L216.734 84.9973C217.383 84.788 217.998 84.4854 218.559 84.0992L218.316 83.2547L217.985 82.1278L217.996 82.1205L218.035 82.0938L218.192 81.9855L218.23 81.9587L218.385 81.8467L218.417 81.8224L218.485 81.7713L218.553 81.719L218.584 81.6946L218.736 81.5729L218.771 81.545L218.92 81.4233L218.955 81.3928L218.965 81.3843L219.956 82.011L220.702 82.482C221.225 82.0573 221.684 81.5593 222.065 81.0034L221.52 80.3098L220.79 79.3886L220.803 79.3692L220.83 79.329L220.935 79.1708L220.96 79.1306L221.061 78.97L221.086 78.9299L221.114 78.8848L221.173 78.7851L221.184 78.7668L221.195 78.7485L221.254 78.6463L221.279 78.6025L221.301 78.5636C221.333 78.5076 221.363 78.4504 221.394 78.3944L221.414 78.3543L221.502 78.1839L221.523 78.1438L221.534 78.1206L222.693 78.3056L223.563 78.4443C223.875 77.8368 224.097 77.1871 224.222 76.5156L223.449 76.0933L222.417 75.5299C222.417 75.5258 222.417 75.5218 222.417 75.5177L222.427 75.4715C222.439 75.4094 222.451 75.3498 222.461 75.2828L222.469 75.2366C222.48 75.1733 222.49 75.1149 222.5 75.0468V75.0066C222.5 74.9932 222.508 74.9506 222.512 74.9214L222.523 74.8375V74.7985C222.531 74.734 222.539 74.6695 222.546 74.6063V74.5612L222.564 74.3702V74.3106L223.708 74.0514L224.568 73.8567C224.633 73.1765 224.597 72.4906 224.463 71.8208L223.586 71.7161L222.456 71.5713ZM217.846 73.1801C217.904 74.2985 217.629 75.4089 217.056 76.371C216.483 77.3331 215.637 78.1037 214.626 78.5852C213.615 79.0667 212.484 79.2376 211.376 79.0762C210.268 78.9148 209.232 78.4284 208.4 77.6785C207.569 76.9286 206.978 75.9488 206.703 74.8632C206.428 73.7776 206.481 72.6348 206.856 71.5794C207.23 70.524 207.909 69.6033 208.807 68.9339C209.705 68.2644 210.781 67.8763 211.899 67.8184C212.642 67.7801 213.385 67.8883 214.086 68.1371C214.786 68.3858 215.431 68.7701 215.984 69.2681C216.536 69.7661 216.985 70.368 217.304 71.0394C217.624 71.7109 217.808 72.4387 217.846 73.1813V73.1801Z" fill="#2A6682"/>
<path d="M197.678 78.7437C197.678 78.7437 192.37 80.3707 193.37 83.7329C194.37 87.0952 199.491 81.7932 199.491 81.7932C199.491 81.7932 200.077 77.5962 197.678 78.7437V78.7437Z" fill="#1A1C2E"/>
<path d="M203.773 165.166C201.32 172.204 199.078 179.404 196.975 186.723H179.686C181.011 177.764 182.752 168.744 185.301 159.507C191.484 161.307 197.641 163.193 203.773 165.166Z" fill="#F38251"/>
<path d="M214.002 186.723H196.722C194.62 179.404 192.378 172.204 189.925 165.166C196.043 163.18 202.2 161.294 208.394 159.507C210.932 168.741 212.673 177.764 214.002 186.723Z" fill="#F38251"/>
<path d="M213.531 181.17C208.014 180.836 199.062 177.641 193.473 178.782C193.044 178.877 192.578 178.948 192.076 179.008V167.056L190.523 179.15C186.881 179.401 182.205 179.118 180.485 178.542C183.519 161.834 188.744 131.941 189.593 115.872C189.927 109.435 192.041 106.015 194.321 104.264C194.84 103.87 195.4 103.533 195.992 103.26C199.85 101.29 203.671 101.159 206.645 102.794C209.079 104.109 210.956 106.592 211.852 110.199C212.521 112.876 212.339 115 212.067 118.571C210.802 135.553 211.262 161.43 213.531 181.17V181.17Z" fill="#292B3B"/>
<path d="M194.323 104.269L194.649 115.109L195.049 128.72L200.706 116.064L206.649 102.791C203.667 101.158 199.853 101.284 195.998 103.254C195.403 103.528 194.841 103.868 194.323 104.269V104.269ZM205.825 92.3023C202.1 98.0289 195.091 100.077 191.587 97.8002C188.084 95.5234 189.421 89.7845 193.151 84.0578C196.881 78.3311 201.608 77.2615 205.108 79.5383C208.608 81.8151 209.55 86.5744 205.825 92.3023V92.3023Z" fill="white" fill-opacity="0.9"/>
<path d="M204.997 91.3531L197.856 90.6558C197.76 91.6293 197.012 100.945 197.37 104.453C197.631 105.533 199.413 106.035 201.346 105.56C203.085 105.138 204.345 104.081 204.389 103.086H204.397C204.188 100.981 204.662 94.7701 204.997 91.3531Z" fill="white" fill-opacity="0.9"/>
<path d="M202.336 94.2675C201.283 93.1285 200.293 94.1544 197.759 95.5769C195.226 96.9995 190.701 96.632 190.381 90.7033C190.248 88.194 189.264 90.0754 188.618 91.6232C188.143 92.7586 187.866 93.984 187.964 95.2106C188.116 97.1078 188.978 98.4159 190.536 99.4284C192.867 100.945 196.329 101.053 199.721 99.7375C201.523 99.039 202.829 97.3292 202.72 95.3992C202.694 94.921 202.576 94.5219 202.336 94.2675V94.2675Z" fill="#1A1C2E"/>
<path d="M190.188 90.4769L190.431 90.6059C191.678 91.2813 197.337 94.4574 197.91 96.7974C198.555 99.4296 194.868 95.7801 193.752 94.0935C192.636 92.4069 191.286 92.6332 190.074 92.2779C188.862 91.9226 188.309 90.4088 190.188 90.4769ZM209.029 89.1955C209.029 89.1955 210.204 84.7393 208.198 81.5474C206.191 78.3555 200.51 74.9859 196.013 79.2852C196.013 79.2852 193.092 82.6316 197.432 85.8065C201.771 88.9814 202.299 86.0657 203.302 89.6251C204.305 93.1845 207.304 92.6065 207.439 93.3719L209.029 89.1955Z" fill="#1A1C2E"/>
<path d="M194.649 115.109L195.049 128.72L200.706 116.068L200.485 107.808H197.988L194.649 115.109Z" fill="#ADBFFF"/>
<path d="M207.53 95.5526C206.662 96.8911 204.231 97.7296 203.271 97.1017C202.31 96.4738 202.767 95.2362 203.636 93.9025C204.504 92.5688 206.096 91.8338 207.061 92.4592C208.026 93.0847 208.396 94.2201 207.53 95.5526ZM219.622 172.503C219.622 172.503 211.25 181.413 208.183 181.166C205.117 180.919 212.123 171.538 219.232 169.518L219.622 172.503Z" fill="white" fill-opacity="0.9"/>
<path d="M220.259 174.307C218.816 172.898 217.235 171.499 215.683 170.024C238.453 148.637 245.936 127.417 208.243 116.107C202.477 114.377 202.28 112.943 205.079 109.006C204.349 108.257 204.336 108.268 205.079 109.006C207.878 105.076 209.33 105.914 214.609 108.621C249.122 126.309 249.142 150.331 220.259 174.307Z" fill="#292B3B"/>
<path d="M172.54 169.606C172.54 169.606 179.433 179.707 182.503 179.935C185.573 180.164 180.101 169.813 173.39 166.717L172.54 169.606Z" fill="white" fill-opacity="0.9"/>
<path d="M193.437 105.899L192.66 115.634C192.613 115.646 192.553 115.646 192.505 115.658C153.512 120.997 157.62 143.113 176.807 167.775C175.039 168.981 173.259 170.127 171.624 171.304C146.799 143.144 150.533 119.413 187.377 107.28C190.264 106.315 192.068 105.695 193.437 105.899V105.899Z" fill="#292B3B"/>
<path d="M162.092 57.3691L163.129 56.1407L177.596 68.3532L176.559 69.5816L162.092 57.3691Z" fill="#3B3E54"/>
<path d="M166.114 61.3989L167.776 59.4303L178.274 68.2926L176.612 70.2611L166.114 61.3989Z" fill="#3AC5C9"/>
<path d="M147.527 44.021C146.234 45.5536 145.424 47.4354 145.199 49.4284C144.975 51.4213 145.347 53.436 146.268 55.2176C147.189 56.9993 148.618 58.4678 150.373 59.4375C152.129 60.4073 154.132 60.8347 156.131 60.6657C158.129 60.4967 160.033 59.7389 161.6 58.4882C163.168 57.2374 164.33 55.5498 164.938 53.6389C165.547 51.7279 165.575 49.6794 165.02 47.7523C164.464 45.8253 163.35 44.1062 161.817 42.8126C160.8 41.9536 159.623 41.3035 158.354 40.8993C157.085 40.4952 155.749 40.3449 154.422 40.4571C153.095 40.5694 151.803 40.9418 150.62 41.5533C149.437 42.1648 148.386 43.0033 147.527 44.021V44.021ZM162.327 56.5135C161.15 57.9076 159.585 58.9212 157.832 59.4261C156.078 59.931 154.214 59.9046 152.476 59.3503C150.737 58.7959 149.202 57.7384 148.064 56.3116C146.927 54.8848 146.238 53.1527 146.085 51.3343C145.931 49.5159 146.321 47.693 147.204 46.096C148.087 44.499 149.423 43.1996 151.045 42.3622C152.666 41.5249 154.499 41.1871 156.312 41.3916C158.126 41.596 159.838 42.3336 161.232 43.5111C163.101 45.09 164.266 47.3468 164.472 49.7849C164.677 52.2231 163.906 54.643 162.327 56.5123V56.5135Z" fill="#3B3E54"/>
<path opacity="0.4" d="M162.331 56.5209C165.618 52.6272 165.126 46.8061 161.232 43.5191C157.339 40.2321 151.518 40.724 148.231 44.6177C144.944 48.5115 145.436 54.3326 149.329 57.6196C153.223 60.9066 159.044 60.4147 162.331 56.5209Z" fill="white" fill-opacity="0.9"/>
<path d="M207.211 36.3704L197.288 39.8239L201.461 51.8151L213.452 47.6412L209.998 37.7199L207.211 36.3704V36.3704Z" fill="#D1D6FF" fill-opacity="0.4"/>
<path d="M207.93 38.4391L209.999 37.7199L207.211 36.3704L207.93 38.4391Z" fill="#C2B3FF"/>
<path d="M201.128 41.6863L207.421 39.4964L209.611 45.7886L203.318 47.9786L201.128 41.6863Z" fill="white" fill-opacity="0.9"/>
<path d="M203.179 43.4588L205.671 44.6647M206.917 42.1579L205.712 44.6501" stroke="#1180B3" stroke-width="10" stroke-linecap="round" stroke-linejoin="round"/>
<path d="M228.641 56.2478L220.676 49.3956L212.395 59.0207L222.021 67.3015L228.873 59.3368L228.641 56.2478Z" fill="#37DFB7" fill-opacity="0.4"/>
<path d="M218.194 46.8381H220.385L218.194 44.6477V46.8381Z" fill="#3AC5C9"/>
<path d="M210.706 47.6656H217.368V54.328H210.706V47.6656Z" fill="white" fill-opacity="0.9"/>
<path d="M212.74 49.7002L215.332 52.2922M215.332 49.7002L212.74 52.2922" stroke="#8F5753" stroke-width="10" stroke-linecap="round" stroke-linejoin="round"/>
<path d="M233.64 39.6523H223.135V52.3481H235.831V41.8427L233.64 39.6523Z" fill="#C5C8E6"/>
<path d="M233.64 41.8427H235.831L233.64 39.6523V41.8427ZM224.847 42.6897H234.117V43.4162H224.847V42.6897ZM224.847 43.9857H234.117V44.7122H224.847V43.9857ZM224.847 45.2817H234.117V46.0081H224.847V45.2817ZM224.847 46.5764H234.117V47.3029H224.847V46.5764ZM224.847 47.8724H234.117V48.5989H224.847V47.8724ZM224.847 49.1684H231.779V49.8949H224.847V49.1684Z" fill="#9FA2C4"/>
<path d="M224.672 61.7291C225.638 61.7291 226.564 61.3454 227.247 60.6624C227.93 59.9793 228.314 59.0529 228.314 58.087C228.314 59.0529 228.698 59.9793 229.381 60.6624C230.064 61.3454 230.99 61.7291 231.956 61.7291C230.99 61.7291 230.064 62.1129 229.381 62.7959C228.698 63.4789 228.314 64.4053 228.314 65.3713C228.314 64.4053 227.93 63.4789 227.247 62.7959C226.564 62.1129 225.638 61.7291 224.672 61.7291V61.7291ZM222.602 33.9451C223.141 33.9451 223.658 33.731 224.039 33.3499C224.42 32.9688 224.634 32.4519 224.634 31.9129C224.634 32.4519 224.848 32.9688 225.229 33.3499C225.611 33.731 226.127 33.9451 226.666 33.9451C226.127 33.9451 225.611 34.1592 225.229 34.5403C224.848 34.9215 224.634 35.4384 224.634 35.9773C224.634 35.4384 224.42 34.9215 224.039 34.5403C223.658 34.1592 223.141 33.9451 222.602 33.9451ZM186.898 76.1018C187.166 76.1023 187.431 76.05 187.678 75.9479C187.925 75.8459 188.15 75.696 188.339 75.507C188.528 75.318 188.678 75.0935 188.78 74.8465C188.882 74.5994 188.935 74.3346 188.934 74.0672C188.934 74.334 188.987 74.5983 189.089 74.8449C189.191 75.0914 189.341 75.3155 189.53 75.5042C189.718 75.6929 189.942 75.8426 190.189 75.9447C190.435 76.0468 190.7 76.0994 190.966 76.0994C190.7 76.0994 190.435 76.1519 190.189 76.2541C189.942 76.3562 189.718 76.5059 189.53 76.6946C189.341 76.8833 189.191 77.1073 189.089 77.3539C188.987 77.6005 188.934 77.8647 188.934 78.1316C188.934 77.8646 188.881 77.6003 188.779 77.3538C188.676 77.1073 188.526 76.8834 188.337 76.6949C188.148 76.5064 187.924 76.357 187.677 76.2552C187.43 76.1535 187.165 76.1013 186.898 76.1018Z" fill="white" fill-opacity="0.9"/>
<path d="M62.8183 179.037C58.2027 179.038 53.7128 180.541 50.0273 183.32C46.3418 186.098 43.6611 190.001 42.3904 194.438H83.2462C81.9755 190.001 79.2948 186.098 75.6093 183.32C71.9238 180.541 67.4339 179.038 62.8183 179.037ZM118.551 179.037C113.935 179.038 109.445 180.541 105.759 183.319C102.073 186.098 99.3922 190.001 98.1215 194.438H138.979C137.708 190.001 135.027 186.098 131.342 183.32C127.656 180.541 123.166 179.038 118.551 179.037V179.037Z" fill="#A8CDCB"/>
<path d="M91.9981 172.441C78.1341 172.441 66.4435 181.739 62.8184 194.438H121.178C117.553 181.738 105.862 172.441 91.9981 172.441V172.441Z" fill="#A8CDCB"/>
<path d="M239.223 115.471C239.762 115.471 240.279 115.257 240.66 114.875C241.041 114.494 241.256 113.977 241.256 113.438C241.256 113.977 241.47 114.494 241.851 114.875C242.232 115.257 242.749 115.471 243.288 115.471C242.749 115.471 242.232 115.685 241.851 116.066C241.47 116.447 241.256 116.964 241.256 117.503C241.256 116.964 241.041 116.447 240.66 116.066C240.279 115.685 239.762 115.471 239.223 115.471ZM49.4276 120.878C49.9666 120.878 50.4835 120.664 50.8646 120.283C51.2457 119.902 51.4598 119.385 51.4598 118.846C51.4598 119.385 51.6739 119.902 52.055 120.283C52.4361 120.664 52.953 120.878 53.492 120.878C52.953 120.878 52.4361 121.093 52.055 121.474C51.6739 121.855 51.4598 122.372 51.4598 122.911C51.4598 122.372 51.2457 121.855 50.8646 121.474C50.4835 121.093 49.9666 120.878 49.4276 120.878V120.878ZM271.012 71.2562C271.551 71.2562 272.068 71.0421 272.449 70.6609C272.83 70.2798 273.044 69.7629 273.044 69.224C273.044 69.7629 273.259 70.2798 273.64 70.6609C274.021 71.0421 274.538 71.2562 275.077 71.2562C274.538 71.2562 274.021 71.4703 273.64 71.8514C273.259 72.2325 273.044 72.7494 273.044 73.2884C273.044 72.7494 272.83 72.2325 272.449 71.8514C272.068 71.4703 271.551 71.2562 271.012 71.2562V71.2562ZM40.3521 175.344C40.891 175.344 41.4079 175.13 41.789 174.749C42.1701 174.368 42.3843 173.851 42.3843 173.312C42.3843 173.851 42.5984 174.368 42.9795 174.749C43.3606 175.13 43.8775 175.344 44.4165 175.344C44.1496 175.344 43.8853 175.397 43.6388 175.499C43.3922 175.601 43.1682 175.751 42.9795 175.939C42.7908 176.128 42.6411 176.352 42.5389 176.599C42.4368 176.845 42.3843 177.109 42.3843 177.376C42.3843 177.109 42.3317 176.845 42.2296 176.599C42.1274 176.352 41.9777 176.128 41.789 175.939C41.6003 175.751 41.3763 175.601 41.1297 175.499C40.8832 175.397 40.6189 175.344 40.3521 175.344V175.344ZM359.907 168.576C360.446 168.576 360.963 168.362 361.344 167.98C361.725 167.599 361.939 167.082 361.939 166.543C361.939 167.082 362.153 167.599 362.535 167.98C362.916 168.362 363.433 168.576 363.972 168.576C363.705 168.576 363.44 168.628 363.194 168.73C362.947 168.832 362.723 168.982 362.535 169.171C362.346 169.36 362.196 169.584 362.094 169.83C361.992 170.077 361.939 170.341 361.939 170.608C361.939 170.341 361.887 170.077 361.785 169.83C361.683 169.584 361.533 169.36 361.344 169.171C361.155 168.982 360.931 168.832 360.685 168.73C360.438 168.628 360.174 168.576 359.907 168.576V168.576ZM165.636 45.2817C165.903 45.2817 166.167 45.2291 166.413 45.127C166.66 45.0248 166.884 44.8752 167.073 44.6864C167.261 44.4977 167.411 44.2737 167.513 44.0271C167.615 43.7806 167.668 43.5163 167.668 43.2495C167.668 43.7884 167.882 44.3053 168.263 44.6864C168.644 45.0676 169.161 45.2817 169.7 45.2817C169.161 45.2817 168.644 45.4958 168.263 45.8769C167.882 46.258 167.668 46.7749 167.668 47.3139C167.668 47.047 167.615 46.7827 167.513 46.5362C167.411 46.2896 167.261 46.0656 167.073 45.8769C166.884 45.6882 166.66 45.5385 166.413 45.4364C166.167 45.3342 165.903 45.2817 165.636 45.2817V45.2817Z" fill="white" fill-opacity="0.9"/>
<path d="M249.347 186.264C246.248 186.265 243.233 187.275 240.759 189.141C238.285 191.007 236.487 193.628 235.635 196.608H263.06C262.208 193.628 260.409 191.007 257.935 189.141C255.46 187.274 252.446 186.265 249.347 186.264V186.264ZM286.756 186.264C283.657 186.265 280.643 187.275 278.169 189.141C275.695 191.007 273.896 193.628 273.044 196.608H300.469C299.618 193.628 297.818 191.007 295.344 189.141C292.87 187.274 289.855 186.265 286.756 186.264V186.264Z" fill="#7FC9EB"/>
<path d="M268.934 181.835C264.507 181.834 260.201 183.275 256.666 185.939C253.132 188.603 250.56 192.345 249.342 196.601H288.515C287.297 192.347 284.727 188.606 281.194 185.942C277.662 183.278 273.358 181.836 268.934 181.835Z" fill="#7FC9EB"/>
</g>
<defs>
<radialGradient id="paint0_radial_3_804" cx="0" cy="0" r="1" gradientUnits="userSpaceOnUse" gradientTransform="translate(208.5 300) rotate(-89.809) scale(300.002 219.43)">
<stop stop-color="#006A51"/>
<stop offset="1" stop-color="#006A51" stop-opacity="0"/>
</radialGradient>
<clipPath id="clip0_3_804">
<rect width="400" height="214.74" fill="white"/>
</clipPath>
</defs>
</svg>
