<svg viewBox="0 0 458 416" fill="none" xmlns="http://www.w3.org/2000/svg">
<g opacity="0.16">
<path d="M248.641 74.4375C247.758 74.4375 246.911 74.7651 246.287 75.3482C245.663 75.9313 245.312 76.7222 245.312 77.5469V245.453C245.312 246.278 245.663 247.069 246.287 247.652C246.911 248.235 247.758 248.563 248.641 248.563H428.359C429.242 248.563 430.089 248.235 430.713 247.652C431.337 247.069 431.688 246.278 431.688 245.453V77.5469C431.688 76.7222 431.337 75.9313 430.713 75.3482C430.089 74.7651 429.242 74.4375 428.359 74.4375H248.641ZM251.969 80.6562H425.031V242.344H251.969V80.6562Z" fill="#7A7A7A" fill-opacity="0.8"/>
<path fill-rule="evenodd" clip-rule="evenodd" d="M248.641 99.3125V105.531H428.359V99.3125H248.641Z" fill="#7A7A7A" fill-opacity="0.8"/>
<path d="M265.281 89.9844C265.281 90.809 264.931 91.5999 264.307 92.183C263.682 92.7661 262.836 93.0937 261.953 93.0937C261.07 93.0937 260.224 92.7661 259.6 92.183C258.975 91.5999 258.625 90.809 258.625 89.9844C258.625 89.1597 258.975 88.3688 259.6 87.7857C260.224 87.2026 261.07 86.875 261.953 86.875C262.836 86.875 263.682 87.2026 264.307 87.7857C264.931 88.3688 265.281 89.1597 265.281 89.9844ZM278.594 89.9844C278.594 90.809 278.243 91.5999 277.619 92.183C276.995 92.7661 276.148 93.0937 275.266 93.0937C274.383 93.0937 273.536 92.7661 272.912 92.183C272.288 91.5999 271.938 90.809 271.938 89.9844C271.938 89.1597 272.288 88.3688 272.912 87.7857C273.536 87.2026 274.383 86.875 275.266 86.875C276.148 86.875 276.995 87.2026 277.619 87.7857C278.243 88.3688 278.594 89.1597 278.594 89.9844ZM291.906 89.9844C291.906 90.809 291.556 91.5999 290.932 92.183C290.307 92.7661 289.461 93.0937 288.578 93.0937C287.695 93.0937 286.849 92.7661 286.225 92.183C285.6 91.5999 285.25 90.809 285.25 89.9844C285.25 89.1597 285.6 88.3688 286.225 87.7857C286.849 87.2026 287.695 86.875 288.578 86.875C289.461 86.875 290.307 87.2026 290.932 87.7857C291.556 88.3688 291.906 89.1597 291.906 89.9844Z" fill="#1A8EB8"/>
<path d="M338.407 124.187C338.038 124.198 337.673 124.265 337.328 124.386C326.445 128.211 309.565 134.623 295.521 134.623C294.638 134.623 293.791 134.95 293.167 135.533C292.543 136.116 292.193 136.907 292.193 137.732C292.193 187.563 314.577 210.616 336.769 223.227C337.291 223.524 337.889 223.681 338.5 223.681C339.11 223.681 339.709 223.524 340.231 223.227C362.183 210.752 384.807 187.432 384.807 137.732C384.807 136.907 384.457 136.116 383.833 135.533C383.209 134.95 382.362 134.623 381.479 134.623C362.802 134.623 349.436 127.944 339.711 124.399C339.296 124.248 338.853 124.176 338.407 124.187V124.187ZM338.447 130.618C346.834 133.777 360.219 139.423 377.865 140.282C377.066 184.845 358.103 205.056 338.5 216.691C318.658 204.932 299.92 184.982 299.135 140.263C313.699 139.386 328.556 134.131 338.447 130.618Z" fill="#1A8EB8"/>
<path fill-rule="evenodd" clip-rule="evenodd" d="M348.619 157.236L334.062 170.587L327.938 164.972L323.286 169.418L334.069 179.294L353.292 161.682L348.626 157.236H348.619Z" fill="#006A51"/>
<path d="M309.096 94.2169H308.164L310.258 88.3988H311.272L313.366 94.2169H312.434L310.789 89.4556H310.744L309.096 94.2169ZM309.252 91.9385H312.275V92.6772H309.252V91.9385ZM316.09 94.2169H314.206V88.3988H316.149C316.719 88.3988 317.209 88.5152 317.618 88.7482C318.027 88.9792 318.341 89.3116 318.558 89.7453C318.778 90.1772 318.888 90.6952 318.888 91.2993C318.888 91.9054 318.777 92.4262 318.555 92.8618C318.336 93.2974 318.018 93.6327 317.601 93.8675C317.184 94.1005 316.68 94.2169 316.09 94.2169ZM315.084 93.4499H316.041C316.484 93.4499 316.853 93.3666 317.146 93.1999C317.44 93.0313 317.66 92.788 317.805 92.4698C317.951 92.1497 318.024 91.7595 318.024 91.2993C318.024 90.8429 317.951 90.4556 317.805 90.1374C317.662 89.8192 317.447 89.5777 317.161 89.413C316.875 89.2482 316.519 89.1658 316.095 89.1658H315.084V93.4499ZM319.979 88.3988H321.045L322.897 92.9215H322.965L324.818 88.3988H325.883V94.2169H325.048V90.0067H324.994L323.278 94.2084H322.585L320.869 90.0039H320.815V94.2169H319.979V88.3988ZM328.037 88.3988V94.2169H327.159V88.3988H328.037ZM334.011 88.3988V94.2169H333.205L330.247 89.9499H330.193V94.2169H329.315V88.3988H330.128L333.088 92.6715H333.142V88.3988H334.011ZM336.17 88.3988V94.2169H335.292V88.3988H336.17ZM340.622 89.9272C340.591 89.6582 340.466 89.4499 340.247 89.3022C340.027 89.1525 339.75 89.0777 339.417 89.0777C339.178 89.0777 338.972 89.1156 338.798 89.1914C338.623 89.2652 338.488 89.3675 338.391 89.4982C338.297 89.627 338.249 89.7738 338.249 89.9385C338.249 90.0768 338.282 90.1961 338.346 90.2965C338.412 90.3969 338.498 90.4811 338.604 90.5493C338.712 90.6156 338.828 90.6715 338.951 90.7169C339.074 90.7605 339.193 90.7965 339.306 90.8249L339.874 90.9726C340.06 91.0181 340.25 91.0796 340.445 91.1573C340.64 91.2349 340.821 91.3372 340.988 91.4641C341.155 91.591 341.289 91.7482 341.391 91.9357C341.496 92.1232 341.548 92.3476 341.548 92.609C341.548 92.9385 341.462 93.2311 341.292 93.4868C341.123 93.7425 340.878 93.9442 340.556 94.0919C340.236 94.2397 339.849 94.3135 339.394 94.3135C338.959 94.3135 338.582 94.2444 338.264 94.1061C337.945 93.9679 337.696 93.7719 337.516 93.5181C337.336 93.2624 337.237 92.9594 337.218 92.609H338.099C338.116 92.8192 338.184 92.9944 338.303 93.1345C338.425 93.2728 338.579 93.376 338.766 93.4442C338.956 93.5105 339.163 93.5436 339.389 93.5436C339.637 93.5436 339.857 93.5048 340.051 93.4272C340.246 93.3476 340.399 93.2378 340.511 93.0976C340.622 92.9556 340.678 92.7899 340.678 92.6005C340.678 92.4281 340.629 92.287 340.531 92.1772C340.434 92.0673 340.302 91.9764 340.136 91.9044C339.971 91.8325 339.784 91.769 339.576 91.7141L338.889 91.5266C338.423 91.3997 338.053 91.2131 337.781 90.9669C337.51 90.7207 337.374 90.395 337.374 89.9897C337.374 89.6544 337.465 89.3618 337.647 89.1118C337.829 88.8618 338.075 88.6677 338.386 88.5294C338.696 88.3893 339.047 88.3192 339.437 88.3192C339.831 88.3192 340.178 88.3883 340.479 88.5266C340.783 88.6649 341.021 88.8552 341.195 89.0976C341.37 89.3381 341.461 89.6147 341.468 89.9272H340.622ZM342.31 89.1544V88.3988H346.813V89.1544H344.997V94.2169H344.122V89.1544H342.31ZM347.808 94.2169V88.3988H349.881C350.332 88.3988 350.706 88.4764 351.004 88.6317C351.303 88.787 351.526 89.002 351.674 89.2766C351.822 89.5493 351.896 89.8647 351.896 90.2226C351.896 90.5787 351.821 90.8921 351.671 91.163C351.524 91.4319 351.3 91.6412 351.001 91.7908C350.703 91.9404 350.329 92.0152 349.879 92.0152H348.308V91.2595H349.799C350.083 91.2595 350.314 91.2188 350.492 91.1374C350.672 91.0559 350.804 90.9376 350.887 90.7823C350.97 90.627 351.012 90.4404 351.012 90.2226C351.012 90.0029 350.97 89.8126 350.884 89.6516C350.801 89.4906 350.669 89.3675 350.489 89.2823C350.311 89.1952 350.077 89.1516 349.788 89.1516H348.685V94.2169H347.808ZM350.68 91.5919L352.117 94.2169H351.117L349.708 91.5919H350.68ZM353.455 94.2169H352.524L354.617 88.3988H355.631L357.725 94.2169H356.793L355.149 89.4556H355.103L353.455 94.2169ZM353.612 91.9385H356.634V92.6772H353.612V91.9385ZM357.591 89.1544V88.3988H362.094V89.1544H360.278V94.2169H359.403V89.1544H357.591ZM363.967 88.3988V94.2169H363.089V88.3988H363.967ZM370.299 91.3078C370.299 91.9291 370.185 92.4631 369.958 92.9101C369.731 93.3552 369.419 93.698 369.024 93.9385C368.63 94.1772 368.182 94.2965 367.68 94.2965C367.176 94.2965 366.726 94.1772 366.33 93.9385C365.936 93.698 365.626 93.3542 365.399 92.9073C365.171 92.4603 365.058 91.9272 365.058 91.3078C365.058 90.6866 365.171 90.1535 365.399 89.7084C365.626 89.2614 365.936 88.9186 366.33 88.68C366.726 88.4395 367.176 88.3192 367.68 88.3192C368.182 88.3192 368.63 88.4395 369.024 88.68C369.419 88.9186 369.731 89.2614 369.958 89.7084C370.185 90.1535 370.299 90.6866 370.299 91.3078ZM369.43 91.3078C369.43 90.8344 369.353 90.4357 369.2 90.1118C369.048 89.7861 368.84 89.5399 368.575 89.3732C368.311 89.2046 368.013 89.1203 367.68 89.1203C367.345 89.1203 367.045 89.2046 366.782 89.3732C366.519 89.5399 366.31 89.7861 366.157 90.1118C366.006 90.4357 365.93 90.8344 365.93 91.3078C365.93 91.7813 366.006 92.1809 366.157 92.5067C366.31 92.8306 366.519 93.0768 366.782 93.2453C367.045 93.412 367.345 93.4953 367.68 93.4953C368.013 93.4953 368.311 93.412 368.575 93.2453C368.84 93.0768 369.048 92.8306 369.2 92.5067C369.353 92.1809 369.43 91.7813 369.43 91.3078ZM376.09 88.3988V94.2169H375.283L372.325 89.9499H372.271V94.2169H371.394V88.3988H372.206L375.166 92.6715H375.22V88.3988H376.09ZM379.979 94.2169H379.047L381.141 88.3988H382.155L384.249 94.2169H383.317L381.672 89.4556H381.627L379.979 94.2169ZM380.135 91.9385H383.158V92.6772H380.135V91.9385ZM385.089 94.2169V88.3988H387.163C387.615 88.3988 387.99 88.4811 388.288 88.6459C388.585 88.8107 388.808 89.0361 388.955 89.322C389.103 89.6061 389.177 89.9262 389.177 90.2823C389.177 90.6402 389.102 90.9622 388.952 91.2482C388.805 91.5323 388.581 91.7577 388.282 91.9243C387.985 92.0891 387.611 92.1715 387.16 92.1715H385.734V91.4272H387.08C387.366 91.4272 387.598 91.3779 387.776 91.2794C387.954 91.1791 388.085 91.0427 388.168 90.8703C388.252 90.698 388.293 90.502 388.293 90.2823C388.293 90.0626 388.252 89.8675 388.168 89.697C388.085 89.5266 387.953 89.3931 387.774 89.2965C387.595 89.1999 387.361 89.1516 387.069 89.1516H385.967V94.2169H385.089ZM390.206 94.2169V88.3988H392.28C392.733 88.3988 393.108 88.4811 393.405 88.6459C393.702 88.8107 393.925 89.0361 394.073 89.322C394.22 89.6061 394.294 89.9262 394.294 90.2823C394.294 90.6402 394.219 90.9622 394.07 91.2482C393.922 91.5323 393.698 91.7577 393.399 91.9243C393.102 92.0891 392.728 92.1715 392.277 92.1715H390.851V91.4272H392.198C392.484 91.4272 392.716 91.3779 392.894 91.2794C393.072 91.1791 393.202 91.0427 393.286 90.8703C393.369 90.698 393.411 90.502 393.411 90.2823C393.411 90.0626 393.369 89.8675 393.286 89.697C393.202 89.5266 393.071 89.3931 392.891 89.2965C392.713 89.1999 392.478 89.1516 392.186 89.1516H391.084V94.2169H390.206Z" fill="#004158"/>
</g>
<g opacity="0.4">
<path d="M298.5 248H134.5L0 344.5L458 416L298.5 248Z" fill="url(#paint0_linear_3_683)"/>
<path d="M298.5 246.5H136L57.5 0L339.5 32L298.5 246.5Z" fill="url(#paint1_linear_3_683)"/>
</g>
<path fill-rule="evenodd" clip-rule="evenodd" d="M402.96 248.649C403.071 249.882 403.018 251.125 402.803 252.345L405.538 254.456L403.126 259.645L399.749 258.915C398.954 259.877 398.032 260.727 397.009 261.442L397.471 264.866L392.103 266.829L390.227 263.928C388.984 264.043 387.732 263.99 386.503 263.771L384.391 266.506L379.208 264.099L379.933 260.721C378.975 259.922 378.126 258.999 377.41 257.977L373.987 258.439L372 253.079L374.902 251.208C374.787 249.966 374.839 248.713 375.059 247.484L372.323 245.373L374.731 240.184L378.108 240.914C378.905 239.954 379.828 239.105 380.852 238.392L380.39 234.964L385.759 233L387.607 235.901C388.85 235.789 390.102 235.842 391.331 236.059L393.442 233.323L398.626 235.731L397.929 239.103C398.889 239.899 399.738 240.821 400.451 241.843L403.88 241.404L405.843 246.773L402.942 248.649H402.96ZM394.778 248.057C394.362 246.917 393.618 245.926 392.64 245.209C391.661 244.492 390.492 244.082 389.28 244.03C388.068 243.978 386.867 244.287 385.831 244.917C384.794 245.548 383.968 246.472 383.457 247.572C382.946 248.672 382.772 249.899 382.959 251.098C383.145 252.297 383.683 253.413 384.504 254.306C385.326 255.199 386.393 255.828 387.572 256.114C388.751 256.4 389.989 256.329 391.128 255.912C392.652 255.353 393.893 254.212 394.577 252.739C395.261 251.267 395.333 249.583 394.778 248.057V248.057Z" fill="#ECECEC"/>
<path opacity="0.2" fill-rule="evenodd" clip-rule="evenodd" d="M261.848 265.243C262.039 267.323 261.95 269.419 261.585 271.476L266.168 275.015L262.135 283.696L256.475 282.481C255.138 284.087 253.594 285.509 251.882 286.708L252.622 292.447L243.626 295.732L240.489 290.876C238.407 291.063 236.31 290.973 234.252 290.608L230.712 295.191L222.031 291.158L223.251 285.498C221.646 284.161 220.225 282.617 219.028 280.905L213.29 281.645L210 272.649L214.86 269.512C214.67 267.43 214.758 265.333 215.124 263.275L210.541 259.74L214.574 251.054L220.234 252.274C221.566 250.66 223.109 249.232 224.822 248.028L224.087 242.29L233.078 239L236.215 243.87C238.297 243.679 240.394 243.767 242.452 244.133L245.991 239.554L254.668 243.592L253.453 249.252C255.06 250.589 256.48 252.135 257.676 253.849L263.414 253.11L266.704 262.101L261.843 265.243H261.848ZM248.149 264.254C247.451 262.347 246.203 260.689 244.562 259.491C242.922 258.293 240.963 257.608 238.934 257.523C236.905 257.438 234.896 257.957 233.161 259.014C231.426 260.071 230.044 261.618 229.189 263.46C228.333 265.303 228.043 267.357 228.356 269.364C228.668 271.371 229.569 273.241 230.943 274.736C232.318 276.231 234.105 277.286 236.079 277.765C238.053 278.245 240.124 278.129 242.032 277.431C244.59 276.494 246.671 274.58 247.819 272.109C248.966 269.638 249.085 266.813 248.149 264.254V264.254Z" fill="#004158" fill-opacity="0.38"/>
<path d="M78 166H160.8" stroke="#1A8EB8"/>
<ellipse cx="160.8" cy="166" rx="1.2" ry="2" fill="#1A8EB8"/>
<path d="M64.3666 159.522C62.4747 160.731 60.2619 161.375 58 161.375C55.738 161.375 53.5253 160.731 51.6333 159.522C49.1936 160.641 47.1082 162.379 45.5962 164.556C44.0843 166.732 43.2018 169.265 43.0416 171.889C43.0343 172 43.0505 172.111 43.0892 172.216C43.1279 172.321 43.1883 172.417 43.2666 172.498C43.3451 172.578 43.4395 172.642 43.5441 172.685C43.6487 172.729 43.7613 172.751 43.875 172.75H72.1666C72.2803 172.751 72.3929 172.729 72.4975 172.685C72.6021 172.642 72.6966 172.578 72.775 172.498C72.8533 172.417 72.9137 172.321 72.9524 172.216C72.9911 172.111 73.0073 172 73 171.889C72.8359 169.261 71.9472 166.725 70.4276 164.548C68.9081 162.371 66.8141 160.635 64.3666 159.522V159.522Z" fill="#004158"/>
<path d="M58 159.75C63.5228 159.75 68 155.385 68 150C68 144.615 63.5228 140.25 58 140.25C52.4772 140.25 48 144.615 48 150C48 155.385 52.4772 159.75 58 159.75Z" fill="#004158"/>
<path d="M64.3666 221.522C62.4747 222.731 60.2619 223.375 58 223.375C55.738 223.375 53.5253 222.731 51.6333 221.522C49.1936 222.641 47.1082 224.379 45.5962 226.556C44.0843 228.732 43.2018 231.265 43.0416 233.889C43.0343 234 43.0505 234.111 43.0892 234.216C43.1279 234.321 43.1883 234.417 43.2666 234.498C43.3451 234.578 43.4395 234.642 43.5441 234.685C43.6487 234.729 43.7613 234.751 43.875 234.75H72.1666C72.2803 234.751 72.3929 234.729 72.4975 234.685C72.6021 234.642 72.6966 234.578 72.775 234.498C72.8533 234.417 72.9137 234.321 72.9524 234.216C72.9911 234.111 73.0073 234 73 233.889C72.8359 231.261 71.9472 228.725 70.4276 226.548C68.9081 224.371 66.8141 222.635 64.3666 221.522V221.522Z" fill="#004158"/>
<path d="M58 221.75C63.5228 221.75 68 217.385 68 212C68 206.615 63.5228 202.25 58 202.25C52.4772 202.25 48 206.615 48 212C48 217.385 52.4772 221.75 58 221.75Z" fill="#004158"/>
<path d="M101.69 218.636V219.205H99.3374V218.636H101.69ZM100.042 223V218.034C100.042 217.784 100.101 217.576 100.218 217.409C100.335 217.242 100.488 217.117 100.675 217.034C100.863 216.951 101.061 216.909 101.269 216.909C101.434 216.909 101.568 216.922 101.673 216.949C101.777 216.975 101.854 217 101.906 217.023L101.712 217.602C101.678 217.591 101.631 217.577 101.57 217.56C101.512 217.543 101.434 217.534 101.337 217.534C101.116 217.534 100.956 217.59 100.857 217.702C100.761 217.813 100.712 217.977 100.712 218.193V223H100.042ZM102.629 223V218.636H103.3V223H102.629ZM102.97 217.909C102.839 217.909 102.727 217.865 102.632 217.776C102.539 217.687 102.493 217.58 102.493 217.455C102.493 217.33 102.539 217.223 102.632 217.134C102.727 217.045 102.839 217 102.97 217C103.101 217 103.213 217.045 103.305 217.134C103.4 217.223 103.447 217.33 103.447 217.455C103.447 217.58 103.4 217.687 103.305 217.776C103.213 217.865 103.101 217.909 102.97 217.909ZM105.198 220.375V223H104.528V218.636H105.175V219.318H105.232C105.335 219.097 105.49 218.919 105.698 218.784C105.906 218.648 106.175 218.58 106.505 218.58C106.8 218.58 107.059 218.64 107.281 218.761C107.502 218.881 107.674 219.062 107.798 219.307C107.921 219.549 107.982 219.856 107.982 220.227V223H107.312V220.273C107.312 219.93 107.223 219.663 107.045 219.472C106.867 219.278 106.622 219.182 106.312 219.182C106.098 219.182 105.906 219.228 105.738 219.321C105.571 219.414 105.44 219.549 105.343 219.727C105.246 219.905 105.198 220.121 105.198 220.375ZM110.855 223.091C110.491 223.091 110.17 222.999 109.892 222.815C109.614 222.63 109.396 222.368 109.239 222.031C109.081 221.692 109.003 221.292 109.003 220.83C109.003 220.371 109.081 219.973 109.239 219.636C109.396 219.299 109.615 219.039 109.895 218.855C110.175 218.671 110.499 218.58 110.866 218.58C111.151 218.58 111.375 218.627 111.54 218.722C111.706 218.814 111.833 218.92 111.92 219.04C112.009 219.157 112.079 219.254 112.128 219.33H112.185V217.182H112.855V223H112.207V222.33H112.128C112.079 222.409 112.009 222.509 111.918 222.631C111.827 222.75 111.697 222.857 111.528 222.952C111.36 223.045 111.135 223.091 110.855 223.091ZM110.946 222.489C111.215 222.489 111.442 222.419 111.628 222.278C111.813 222.136 111.955 221.94 112.051 221.69C112.148 221.438 112.196 221.148 112.196 220.818C112.196 220.492 112.149 220.207 112.054 219.963C111.959 219.717 111.819 219.526 111.634 219.389C111.448 219.251 111.219 219.182 110.946 219.182C110.662 219.182 110.425 219.255 110.236 219.401C110.048 219.545 109.907 219.741 109.812 219.989C109.72 220.235 109.673 220.511 109.673 220.818C109.673 221.129 109.721 221.411 109.815 221.665C109.912 221.917 110.054 222.117 110.241 222.267C110.431 222.415 110.666 222.489 110.946 222.489ZM116.426 224.636V218.636H117.074V219.33H117.153C117.203 219.254 117.271 219.157 117.358 219.04C117.447 218.92 117.574 218.814 117.739 218.722C117.905 218.627 118.131 218.58 118.415 218.58C118.782 218.58 119.106 218.671 119.386 218.855C119.667 219.039 119.885 219.299 120.043 219.636C120.2 219.973 120.278 220.371 120.278 220.83C120.278 221.292 120.2 221.692 120.043 222.031C119.885 222.368 119.668 222.63 119.389 222.815C119.111 222.999 118.79 223.091 118.426 223.091C118.146 223.091 117.921 223.045 117.753 222.952C117.584 222.857 117.455 222.75 117.364 222.631C117.273 222.509 117.203 222.409 117.153 222.33H117.097V224.636H116.426ZM117.085 220.818C117.085 221.148 117.134 221.438 117.23 221.69C117.327 221.94 117.468 222.136 117.653 222.278C117.839 222.419 118.066 222.489 118.335 222.489C118.616 222.489 118.849 222.415 119.037 222.267C119.226 222.117 119.368 221.917 119.463 221.665C119.56 221.411 119.608 221.129 119.608 220.818C119.608 220.511 119.561 220.235 119.466 219.989C119.373 219.741 119.232 219.545 119.043 219.401C118.855 219.255 118.619 219.182 118.335 219.182C118.063 219.182 117.833 219.251 117.648 219.389C117.462 219.526 117.322 219.717 117.227 219.963C117.133 220.207 117.085 220.492 117.085 220.818ZM121.972 217.182V223H121.301V217.182H121.972ZM124.484 223.102C124.207 223.102 123.956 223.05 123.731 222.946C123.505 222.84 123.326 222.688 123.194 222.489C123.061 222.288 122.995 222.045 122.995 221.761C122.995 221.511 123.044 221.309 123.143 221.153C123.241 220.996 123.373 220.873 123.538 220.784C123.702 220.695 123.884 220.629 124.083 220.585C124.284 220.54 124.486 220.504 124.688 220.477C124.953 220.443 125.168 220.418 125.333 220.401C125.5 220.382 125.621 220.35 125.697 220.307C125.774 220.263 125.813 220.187 125.813 220.08V220.057C125.813 219.777 125.737 219.559 125.583 219.403C125.432 219.248 125.201 219.17 124.893 219.17C124.573 219.17 124.322 219.241 124.14 219.381C123.958 219.521 123.83 219.67 123.756 219.83L123.12 219.602C123.234 219.337 123.385 219.131 123.575 218.983C123.766 218.833 123.974 218.729 124.2 218.67C124.427 218.61 124.65 218.58 124.87 218.58C125.01 218.58 125.171 218.597 125.353 218.631C125.537 218.663 125.714 218.73 125.884 218.832C126.057 218.935 126.2 219.089 126.313 219.295C126.427 219.502 126.484 219.778 126.484 220.125V223H125.813V222.409H125.779C125.734 222.504 125.658 222.605 125.552 222.713C125.446 222.821 125.305 222.913 125.129 222.989C124.952 223.064 124.737 223.102 124.484 223.102ZM124.586 222.5C124.851 222.5 125.075 222.448 125.256 222.344C125.44 222.24 125.578 222.105 125.671 221.94C125.766 221.776 125.813 221.602 125.813 221.42V220.807C125.785 220.841 125.722 220.872 125.626 220.901C125.531 220.927 125.421 220.951 125.296 220.972C125.173 220.991 125.053 221.008 124.935 221.023C124.82 221.036 124.726 221.047 124.654 221.057C124.48 221.08 124.317 221.116 124.165 221.168C124.016 221.217 123.895 221.292 123.802 221.392C123.711 221.491 123.665 221.625 123.665 221.795C123.665 222.028 123.752 222.205 123.924 222.324C124.098 222.441 124.319 222.5 124.586 222.5ZM127.983 224.636C127.869 224.636 127.768 224.627 127.679 224.608C127.59 224.591 127.528 224.574 127.494 224.557L127.665 223.966C127.828 224.008 127.972 224.023 128.097 224.011C128.222 224 128.332 223.944 128.429 223.844C128.527 223.745 128.617 223.585 128.699 223.364L128.824 223.023L127.21 218.636H127.938L129.142 222.114H129.188L130.392 218.636H131.119L129.267 223.636C129.184 223.862 129.08 224.048 128.957 224.196C128.834 224.346 128.691 224.456 128.528 224.528C128.367 224.6 128.186 224.636 127.983 224.636ZM133.678 223.091C133.257 223.091 132.894 222.998 132.589 222.812C132.286 222.625 132.053 222.364 131.888 222.028C131.725 221.691 131.643 221.299 131.643 220.852C131.643 220.405 131.725 220.011 131.888 219.67C132.053 219.328 132.282 219.061 132.575 218.869C132.871 218.676 133.215 218.58 133.609 218.58C133.837 218.58 134.061 218.617 134.283 218.693C134.504 218.769 134.706 218.892 134.888 219.062C135.07 219.231 135.214 219.455 135.322 219.733C135.43 220.011 135.484 220.354 135.484 220.761V221.045H132.121V220.466H134.803C134.803 220.22 134.753 220 134.655 219.807C134.558 219.614 134.42 219.461 134.24 219.349C134.062 219.238 133.852 219.182 133.609 219.182C133.342 219.182 133.111 219.248 132.916 219.381C132.723 219.511 132.574 219.682 132.47 219.892C132.366 220.102 132.314 220.328 132.314 220.568V220.955C132.314 221.284 132.371 221.563 132.484 221.793C132.6 222.02 132.76 222.193 132.964 222.312C133.169 222.43 133.407 222.489 133.678 222.489C133.854 222.489 134.013 222.464 134.155 222.415C134.299 222.364 134.423 222.288 134.527 222.188C134.631 222.085 134.712 221.958 134.768 221.807L135.416 221.989C135.348 222.208 135.233 222.402 135.072 222.568C134.911 222.733 134.713 222.862 134.476 222.955C134.239 223.045 133.973 223.091 133.678 223.091ZM136.504 223V218.636H137.152V219.295H137.197C137.277 219.08 137.421 218.904 137.629 218.77C137.838 218.635 138.072 218.568 138.334 218.568C138.383 218.568 138.445 218.569 138.518 218.571C138.592 218.573 138.648 218.576 138.686 218.58V219.261C138.663 219.256 138.611 219.247 138.53 219.236C138.45 219.223 138.366 219.216 138.277 219.216C138.065 219.216 137.875 219.26 137.709 219.349C137.544 219.437 137.413 219.558 137.317 219.713C137.222 219.866 137.175 220.042 137.175 220.239V223H136.504Z" fill="rgb(var(--gray-inverse))"/>
<path d="M93.2894 295V290.636H93.9371V291.318H93.994C94.0849 291.085 94.2317 290.904 94.4343 290.776C94.637 290.645 94.8803 290.58 95.1644 290.58C95.4523 290.58 95.6919 290.645 95.8832 290.776C96.0763 290.904 96.2269 291.085 96.3349 291.318H96.3803C96.4921 291.093 96.6597 290.914 96.8832 290.781C97.1067 290.647 97.3746 290.58 97.6871 290.58C98.0773 290.58 98.3964 290.702 98.6445 290.946C98.8926 291.188 99.0167 291.566 99.0167 292.08V295H98.3462V292.08C98.3462 291.758 98.2582 291.527 98.082 291.389C97.9059 291.251 97.6985 291.182 97.4599 291.182C97.1531 291.182 96.9154 291.275 96.7468 291.46C96.5782 291.644 96.494 291.877 96.494 292.159V295H95.8121V292.011C95.8121 291.763 95.7317 291.563 95.5707 291.412C95.4097 291.259 95.2023 291.182 94.9485 291.182C94.7743 291.182 94.6114 291.228 94.4599 291.321C94.3103 291.414 94.189 291.543 94.0962 291.707C94.0053 291.87 93.9599 292.059 93.9599 292.273V295H93.2894ZM101.527 295.102C101.25 295.102 100.999 295.05 100.774 294.946C100.548 294.84 100.369 294.688 100.237 294.489C100.104 294.288 100.038 294.045 100.038 293.761C100.038 293.511 100.087 293.309 100.186 293.153C100.284 292.996 100.416 292.873 100.581 292.784C100.745 292.695 100.927 292.629 101.126 292.585C101.327 292.54 101.529 292.504 101.731 292.477C101.996 292.443 102.211 292.418 102.376 292.401C102.543 292.382 102.664 292.35 102.74 292.307C102.817 292.263 102.856 292.187 102.856 292.08V292.057C102.856 291.777 102.779 291.559 102.626 291.403C102.475 291.248 102.244 291.17 101.936 291.17C101.616 291.17 101.365 291.241 101.183 291.381C101.001 291.521 100.873 291.67 100.799 291.83L100.163 291.602C100.277 291.337 100.428 291.131 100.618 290.983C100.809 290.833 101.017 290.729 101.243 290.67C101.47 290.61 101.693 290.58 101.913 290.58C102.053 290.58 102.214 290.597 102.396 290.631C102.58 290.663 102.757 290.73 102.927 290.832C103.1 290.935 103.243 291.089 103.356 291.295C103.47 291.502 103.527 291.778 103.527 292.125V295H102.856V294.409H102.822C102.777 294.504 102.701 294.605 102.595 294.713C102.489 294.821 102.348 294.913 102.172 294.989C101.995 295.064 101.78 295.102 101.527 295.102ZM101.629 294.5C101.894 294.5 102.118 294.448 102.299 294.344C102.483 294.24 102.621 294.105 102.714 293.94C102.809 293.776 102.856 293.602 102.856 293.42V292.807C102.828 292.841 102.765 292.872 102.669 292.901C102.574 292.927 102.464 292.951 102.339 292.972C102.216 292.991 102.096 293.008 101.978 293.023C101.863 293.036 101.769 293.047 101.697 293.057C101.523 293.08 101.36 293.116 101.208 293.168C101.059 293.217 100.938 293.292 100.845 293.392C100.754 293.491 100.708 293.625 100.708 293.795C100.708 294.028 100.795 294.205 100.967 294.324C101.141 294.441 101.362 294.5 101.629 294.5ZM105.421 292.375V295H104.75V290.636H105.398V291.318H105.455C105.557 291.097 105.712 290.919 105.921 290.784C106.129 290.648 106.398 290.58 106.728 290.58C107.023 290.58 107.282 290.64 107.503 290.761C107.725 290.881 107.897 291.062 108.02 291.307C108.143 291.549 108.205 291.856 108.205 292.227V295H107.534V292.273C107.534 291.93 107.445 291.663 107.267 291.472C107.089 291.278 106.845 291.182 106.534 291.182C106.32 291.182 106.129 291.228 105.961 291.321C105.794 291.414 105.662 291.549 105.566 291.727C105.469 291.905 105.421 292.121 105.421 292.375ZM110.714 295.102C110.438 295.102 110.187 295.05 109.961 294.946C109.736 294.84 109.557 294.688 109.424 294.489C109.292 294.288 109.225 294.045 109.225 293.761C109.225 293.511 109.275 293.309 109.373 293.153C109.472 292.996 109.603 292.873 109.768 292.784C109.933 292.695 110.115 292.629 110.314 292.585C110.514 292.54 110.716 292.504 110.919 292.477C111.184 292.443 111.399 292.418 111.564 292.401C111.73 292.382 111.851 292.35 111.927 292.307C112.005 292.263 112.044 292.187 112.044 292.08V292.057C112.044 291.777 111.967 291.559 111.814 291.403C111.662 291.248 111.432 291.17 111.123 291.17C110.803 291.17 110.552 291.241 110.37 291.381C110.189 291.521 110.061 291.67 109.987 291.83L109.35 291.602C109.464 291.337 109.616 291.131 109.805 290.983C109.996 290.833 110.205 290.729 110.43 290.67C110.657 290.61 110.881 290.58 111.1 290.58C111.241 290.58 111.402 290.597 111.583 290.631C111.767 290.663 111.944 290.73 112.115 290.832C112.287 290.935 112.43 291.089 112.544 291.295C112.657 291.502 112.714 291.778 112.714 292.125V295H112.044V294.409H112.01C111.964 294.504 111.888 294.605 111.782 294.713C111.676 294.821 111.535 294.913 111.359 294.989C111.183 295.064 110.968 295.102 110.714 295.102ZM110.816 294.5C111.082 294.5 111.305 294.448 111.487 294.344C111.671 294.24 111.809 294.105 111.902 293.94C111.996 293.776 112.044 293.602 112.044 293.42V292.807C112.015 292.841 111.953 292.872 111.856 292.901C111.761 292.927 111.652 292.951 111.527 292.972C111.404 292.991 111.283 293.008 111.166 293.023C111.05 293.036 110.957 293.047 110.885 293.057C110.71 293.08 110.547 293.116 110.396 293.168C110.246 293.217 110.125 293.292 110.032 293.392C109.941 293.491 109.896 293.625 109.896 293.795C109.896 294.028 109.982 294.205 110.154 294.324C110.329 294.441 110.549 294.5 110.816 294.5ZM115.699 296.727C115.375 296.727 115.097 296.686 114.864 296.602C114.631 296.521 114.437 296.413 114.282 296.278C114.128 296.146 114.006 296.004 113.915 295.852L114.449 295.477C114.51 295.557 114.587 295.648 114.679 295.75C114.772 295.854 114.899 295.944 115.06 296.02C115.223 296.098 115.436 296.136 115.699 296.136C116.051 296.136 116.342 296.051 116.571 295.881C116.801 295.71 116.915 295.443 116.915 295.08V294.193H116.858C116.809 294.273 116.739 294.371 116.648 294.489C116.559 294.604 116.43 294.707 116.262 294.798C116.095 294.887 115.87 294.932 115.586 294.932C115.233 294.932 114.917 294.848 114.637 294.682C114.358 294.515 114.138 294.273 113.975 293.955C113.814 293.636 113.733 293.25 113.733 292.795C113.733 292.348 113.812 291.959 113.969 291.628C114.126 291.295 114.345 291.037 114.625 290.855C114.906 290.671 115.23 290.58 115.597 290.58C115.881 290.58 116.106 290.627 116.273 290.722C116.442 290.814 116.57 290.92 116.659 291.04C116.75 291.157 116.82 291.254 116.87 291.33H116.938V290.636H117.586V295.125C117.586 295.5 117.5 295.805 117.33 296.04C117.161 296.277 116.934 296.45 116.648 296.56C116.364 296.671 116.048 296.727 115.699 296.727ZM115.676 294.33C115.945 294.33 116.173 294.268 116.358 294.145C116.544 294.022 116.685 293.845 116.782 293.614C116.878 293.383 116.926 293.106 116.926 292.784C116.926 292.47 116.879 292.192 116.784 291.952C116.69 291.711 116.55 291.523 116.364 291.386C116.178 291.25 115.949 291.182 115.676 291.182C115.392 291.182 115.156 291.254 114.966 291.398C114.779 291.542 114.638 291.735 114.543 291.977C114.45 292.22 114.404 292.489 114.404 292.784C114.404 293.087 114.451 293.355 114.546 293.588C114.642 293.819 114.784 294.001 114.972 294.134C115.161 294.264 115.396 294.33 115.676 294.33ZM120.642 295.091C120.222 295.091 119.859 294.998 119.554 294.812C119.251 294.625 119.017 294.364 118.853 294.028C118.69 293.691 118.608 293.299 118.608 292.852C118.608 292.405 118.69 292.011 118.853 291.67C119.017 291.328 119.247 291.061 119.54 290.869C119.836 290.676 120.18 290.58 120.574 290.58C120.801 290.58 121.026 290.617 121.248 290.693C121.469 290.769 121.671 290.892 121.853 291.062C122.034 291.231 122.179 291.455 122.287 291.733C122.395 292.011 122.449 292.354 122.449 292.761V293.045H119.086V292.466H121.767C121.767 292.22 121.718 292 121.62 291.807C121.523 291.614 121.385 291.461 121.205 291.349C121.027 291.238 120.817 291.182 120.574 291.182C120.307 291.182 120.076 291.248 119.881 291.381C119.688 291.511 119.539 291.682 119.435 291.892C119.331 292.102 119.279 292.328 119.279 292.568V292.955C119.279 293.284 119.336 293.563 119.449 293.793C119.565 294.02 119.725 294.193 119.929 294.312C120.134 294.43 120.372 294.489 120.642 294.489C120.819 294.489 120.978 294.464 121.12 294.415C121.264 294.364 121.388 294.288 121.492 294.188C121.596 294.085 121.676 293.958 121.733 293.807L122.381 293.989C122.313 294.208 122.198 294.402 122.037 294.568C121.876 294.733 121.677 294.862 121.441 294.955C121.204 295.045 120.938 295.091 120.642 295.091ZM127.492 295.091C127.098 295.091 126.752 294.997 126.455 294.81C126.159 294.622 125.928 294.36 125.762 294.023C125.597 293.686 125.515 293.292 125.515 292.841C125.515 292.386 125.597 291.99 125.762 291.651C125.928 291.312 126.159 291.048 126.455 290.861C126.752 290.673 127.098 290.58 127.492 290.58C127.886 290.58 128.23 290.673 128.526 290.861C128.823 291.048 129.054 291.312 129.219 291.651C129.386 291.99 129.469 292.386 129.469 292.841C129.469 293.292 129.386 293.686 129.219 294.023C129.054 294.36 128.823 294.622 128.526 294.81C128.23 294.997 127.886 295.091 127.492 295.091ZM127.492 294.489C127.791 294.489 128.037 294.412 128.23 294.259C128.424 294.105 128.567 293.903 128.659 293.653C128.752 293.403 128.799 293.133 128.799 292.841C128.799 292.549 128.752 292.277 128.659 292.026C128.567 291.774 128.424 291.57 128.23 291.415C128.037 291.259 127.791 291.182 127.492 291.182C127.193 291.182 126.946 291.259 126.753 291.415C126.56 291.57 126.417 291.774 126.324 292.026C126.231 292.277 126.185 292.549 126.185 292.841C126.185 293.133 126.231 293.403 126.324 293.653C126.417 293.903 126.56 294.105 126.753 294.259C126.946 294.412 127.193 294.489 127.492 294.489ZM130.493 295V290.636H131.14V291.295H131.186C131.265 291.08 131.409 290.904 131.618 290.77C131.826 290.635 132.061 290.568 132.322 290.568C132.371 290.568 132.433 290.569 132.507 290.571C132.581 290.573 132.636 290.576 132.674 290.58V291.261C132.652 291.256 132.6 291.247 132.518 291.236C132.439 291.223 132.354 291.216 132.265 291.216C132.053 291.216 131.864 291.26 131.697 291.349C131.532 291.437 131.402 291.558 131.305 291.713C131.21 291.866 131.163 292.042 131.163 292.239V295H130.493ZM134.984 295.091C134.62 295.091 134.299 294.999 134.021 294.815C133.743 294.63 133.525 294.368 133.368 294.031C133.21 293.692 133.132 293.292 133.132 292.83C133.132 292.371 133.21 291.973 133.368 291.636C133.525 291.299 133.743 291.039 134.024 290.855C134.304 290.671 134.628 290.58 134.995 290.58C135.279 290.58 135.504 290.627 135.669 290.722C135.835 290.814 135.962 290.92 136.049 291.04C136.138 291.157 136.208 291.254 136.257 291.33H136.314V289.182H136.984V295H136.336V294.33H136.257C136.208 294.409 136.137 294.509 136.047 294.631C135.956 294.75 135.826 294.857 135.657 294.952C135.489 295.045 135.264 295.091 134.984 295.091ZM135.075 294.489C135.344 294.489 135.571 294.419 135.757 294.278C135.942 294.136 136.083 293.94 136.18 293.69C136.277 293.438 136.325 293.148 136.325 292.818C136.325 292.492 136.278 292.207 136.183 291.963C136.088 291.717 135.948 291.526 135.762 291.389C135.577 291.251 135.348 291.182 135.075 291.182C134.791 291.182 134.554 291.255 134.365 291.401C134.177 291.545 134.036 291.741 133.941 291.989C133.849 292.235 133.802 292.511 133.802 292.818C133.802 293.129 133.85 293.411 133.944 293.665C134.041 293.917 134.183 294.117 134.37 294.267C134.56 294.415 134.795 294.489 135.075 294.489ZM140.135 295.091C139.714 295.091 139.351 294.998 139.047 294.812C138.743 294.625 138.51 294.364 138.345 294.028C138.182 293.691 138.1 293.299 138.1 292.852C138.1 292.405 138.182 292.011 138.345 291.67C138.51 291.328 138.739 291.061 139.032 290.869C139.328 290.676 139.672 290.58 140.066 290.58C140.294 290.58 140.518 290.617 140.74 290.693C140.961 290.769 141.163 290.892 141.345 291.062C141.527 291.231 141.672 291.455 141.779 291.733C141.887 292.011 141.941 292.354 141.941 292.761V293.045H138.578V292.466H141.26C141.26 292.22 141.21 292 141.112 291.807C141.015 291.614 140.877 291.461 140.697 291.349C140.519 291.238 140.309 291.182 140.066 291.182C139.799 291.182 139.568 291.248 139.373 291.381C139.18 291.511 139.031 291.682 138.927 291.892C138.823 292.102 138.771 292.328 138.771 292.568V292.955C138.771 293.284 138.828 293.563 138.941 293.793C139.057 294.02 139.217 294.193 139.422 294.312C139.626 294.43 139.864 294.489 140.135 294.489C140.311 294.489 140.47 294.464 140.612 294.415C140.756 294.364 140.88 294.288 140.984 294.188C141.088 294.085 141.169 293.958 141.225 293.807L141.873 293.989C141.805 294.208 141.69 294.402 141.529 294.568C141.368 294.733 141.17 294.862 140.933 294.955C140.696 295.045 140.43 295.091 140.135 295.091ZM142.961 295V290.636H143.609V291.295H143.654C143.734 291.08 143.878 290.904 144.086 290.77C144.295 290.635 144.529 290.568 144.791 290.568C144.84 290.568 144.902 290.569 144.975 290.571C145.049 290.573 145.105 290.576 145.143 290.58V291.261C145.12 291.256 145.068 291.247 144.987 291.236C144.907 291.223 144.823 291.216 144.734 291.216C144.522 291.216 144.333 291.26 144.166 291.349C144.001 291.437 143.87 291.558 143.774 291.713C143.679 291.866 143.632 292.042 143.632 292.239V295H142.961Z" fill="rgb(var(--gray-inverse))"/>
<path d="M68.5961 289.885V289.058H50.4038V289.885C50.4038 290.339 50.0317 290.712 49.5769 290.712H69.423C68.9682 290.712 68.5961 290.339 68.5961 289.885ZM68.5961 289.885V289.058H50.4038V289.885C50.4038 290.339 50.0317 290.712 49.5769 290.712H69.423C68.9682 290.712 68.5961 290.339 68.5961 289.885ZM68.5961 289.885V289.058H50.4038V289.885C50.4038 290.339 50.0317 290.712 49.5769 290.712H69.423C68.9682 290.712 68.5961 290.339 68.5961 289.885ZM68.5961 289.885V289.058H50.4038V289.885C50.4038 290.339 50.0317 290.712 49.5769 290.712H69.423C68.9682 290.712 68.5961 290.339 68.5961 289.885ZM78.5192 289.058H40.4807C40.0259 289.058 39.6538 289.43 39.6538 289.885V311.385C39.6538 311.839 40.0259 312.212 40.4807 312.212H78.5192C78.974 312.212 79.3461 311.839 79.3461 311.385V289.885C79.3461 289.43 78.974 289.058 78.5192 289.058ZM77.6923 310.558H41.3077V290.712H77.6923V310.558ZM68.5961 289.885V289.058H50.4038V289.885C50.4038 290.339 50.0317 290.712 49.5769 290.712H69.423C68.9682 290.712 68.5961 290.339 68.5961 289.885ZM68.5961 289.885V289.058H50.4038V289.885C50.4038 290.339 50.0317 290.712 49.5769 290.712H69.423C68.9682 290.712 68.5961 290.339 68.5961 289.885ZM68.5961 289.885V289.058H50.4038V289.885C50.4038 290.339 50.0317 290.712 49.5769 290.712H69.423C68.9682 290.712 68.5961 290.339 68.5961 289.885Z" fill="#004158"/>
<path d="M41.3077 290.712V310.558H43.7885V295.673C43.7885 295.218 44.1606 294.846 44.6154 294.846H52.8847C53.3395 294.846 53.7116 295.218 53.7116 295.673V310.558H77.6924V290.712H41.3077ZM74.3847 305.596C74.3847 306.051 74.0125 306.423 73.5577 306.423H57.8462C57.3914 306.423 57.0193 306.051 57.0193 305.596V295.673C57.0193 295.218 57.3914 294.846 57.8462 294.846H73.5577C74.0125 294.846 74.3847 295.218 74.3847 295.673V305.596Z" fill="white" fill-opacity="0.05"/>
<path d="M45.4423 296.5H52.0576V310.558H45.4423V296.5Z" fill="#1A8EB8" fill-opacity="0.19"/>
<path d="M79.3461 283.269V289.885C79.3461 290.339 78.974 290.712 78.5192 290.712C78.0644 290.712 77.6923 290.339 77.6923 289.885V283.269C77.6923 282.814 77.3202 282.442 76.8653 282.442H42.1346C41.6798 282.442 41.3077 282.814 41.3077 283.269V289.885C41.3077 290.339 40.9355 290.712 40.4807 290.712C40.0259 290.712 39.6538 290.339 39.6538 289.885V283.269C39.6538 281.905 40.7702 280.788 42.1346 280.788H76.8653C78.2298 280.788 79.3461 281.905 79.3461 283.269ZM53.7115 295.673V311.385C53.7115 311.839 53.3394 312.212 52.8846 312.212C52.4298 312.212 52.0577 311.839 52.0577 311.385V296.5H45.4423V311.385C45.4423 311.839 45.0702 312.212 44.6153 312.212C44.1605 312.212 43.7884 311.839 43.7884 311.385V295.673C43.7884 295.218 44.1605 294.846 44.6153 294.846H52.8846C53.3394 294.846 53.7115 295.218 53.7115 295.673ZM73.5577 294.846H57.8461C57.3913 294.846 57.0192 295.218 57.0192 295.673V305.596C57.0192 306.051 57.3913 306.423 57.8461 306.423H73.5577C74.0125 306.423 74.3846 306.051 74.3846 305.596V295.673C74.3846 295.218 74.0125 294.846 73.5577 294.846ZM72.7307 304.769H58.673V296.5H72.7307V304.769Z" fill="#004158"/>
<path d="M58.6731 296.5H72.7308V304.769H58.6731V296.5Z" fill="#1A8EB8" fill-opacity="0.19"/>
<path d="M60.3269 281.615V289.885C60.3269 290.339 59.9548 290.712 59.5 290.712C59.0452 290.712 58.6731 290.339 58.6731 289.885V281.615C58.6731 281.161 59.0452 280.788 59.5 280.788C59.9548 280.788 60.3269 281.161 60.3269 281.615Z" fill="#004158"/>
<path d="M48.75 282.442V289.058H41.3077V283.269C41.3077 282.814 41.6799 282.442 42.1347 282.442H48.75ZM50.4039 282.442H58.6731V289.058H50.4039V282.442Z" fill="#1A8EB8" fill-opacity="0.19"/>
<path d="M50.4038 281.615V289.885C50.4038 290.339 50.0317 290.712 49.5769 290.712C49.1221 290.712 48.75 290.339 48.75 289.885V281.615C48.75 281.161 49.1221 280.788 49.5769 280.788C50.0317 280.788 50.4038 281.161 50.4038 281.615Z" fill="#004158"/>
<path d="M77.6923 283.269V289.058H70.25V282.442H76.8654C77.3202 282.442 77.6923 282.814 77.6923 283.269ZM60.3269 282.442H68.5961V289.058H60.3269V282.442Z" fill="#1A8EB8" fill-opacity="0.19"/>
<path d="M70.25 281.615V289.885C70.25 290.339 69.8779 290.712 69.4231 290.712C68.9683 290.712 68.5962 290.339 68.5962 289.885V281.615C68.5962 281.161 68.9683 280.788 69.4231 280.788C69.8779 280.788 70.25 281.161 70.25 281.615Z" fill="#004158"/>
<path d="M95.7436 161V155.182H96.4141V157.33H96.4709C96.5201 157.254 96.5883 157.157 96.6754 157.04C96.7644 156.92 96.8913 156.814 97.0561 156.722C97.2228 156.627 97.4482 156.58 97.7322 156.58C98.0997 156.58 98.4235 156.671 98.7038 156.855C98.9841 157.039 99.2029 157.299 99.3601 157.636C99.5173 157.973 99.5959 158.371 99.5959 158.83C99.5959 159.292 99.5173 159.692 99.3601 160.031C99.2029 160.368 98.9851 160.63 98.7067 160.815C98.4283 160.999 98.1072 161.091 97.7436 161.091C97.4633 161.091 97.2389 161.045 97.0703 160.952C96.9018 160.857 96.772 160.75 96.6811 160.631C96.5902 160.509 96.5201 160.409 96.4709 160.33H96.3913V161H95.7436ZM96.4027 158.818C96.4027 159.148 96.451 159.438 96.5476 159.69C96.6442 159.94 96.7853 160.136 96.9709 160.278C97.1565 160.419 97.3838 160.489 97.6527 160.489C97.933 160.489 98.1669 160.415 98.3544 160.267C98.5438 160.117 98.6858 159.917 98.7805 159.665C98.8771 159.411 98.9254 159.129 98.9254 158.818C98.9254 158.511 98.8781 158.235 98.7834 157.989C98.6906 157.741 98.5495 157.545 98.3601 157.401C98.1726 157.255 97.9368 157.182 97.6527 157.182C97.38 157.182 97.1508 157.251 96.9652 157.389C96.7796 157.526 96.6394 157.717 96.5447 157.963C96.45 158.207 96.4027 158.492 96.4027 158.818ZM102.394 161.091C102 161.091 101.655 160.997 101.357 160.81C101.062 160.622 100.831 160.36 100.664 160.023C100.499 159.686 100.417 159.292 100.417 158.841C100.417 158.386 100.499 157.99 100.664 157.651C100.831 157.312 101.062 157.048 101.357 156.861C101.655 156.673 102 156.58 102.394 156.58C102.788 156.58 103.133 156.673 103.428 156.861C103.726 157.048 103.957 157.312 104.121 157.651C104.288 157.99 104.371 158.386 104.371 158.841C104.371 159.292 104.288 159.686 104.121 160.023C103.957 160.36 103.726 160.622 103.428 160.81C103.133 160.997 102.788 161.091 102.394 161.091ZM102.394 160.489C102.693 160.489 102.94 160.412 103.133 160.259C103.326 160.105 103.469 159.903 103.562 159.653C103.655 159.403 103.701 159.133 103.701 158.841C103.701 158.549 103.655 158.277 103.562 158.026C103.469 157.774 103.326 157.57 103.133 157.415C102.94 157.259 102.693 157.182 102.394 157.182C102.095 157.182 101.849 157.259 101.656 157.415C101.462 157.57 101.319 157.774 101.227 158.026C101.134 158.277 101.087 158.549 101.087 158.841C101.087 159.133 101.134 159.403 101.227 159.653C101.319 159.903 101.462 160.105 101.656 160.259C101.849 160.412 102.095 160.489 102.394 160.489ZM107.168 161.091C106.774 161.091 106.428 160.997 106.131 160.81C105.835 160.622 105.604 160.36 105.438 160.023C105.273 159.686 105.19 159.292 105.19 158.841C105.19 158.386 105.273 157.99 105.438 157.651C105.604 157.312 105.835 157.048 106.131 156.861C106.428 156.673 106.774 156.58 107.168 156.58C107.562 156.58 107.906 156.673 108.202 156.861C108.499 157.048 108.73 157.312 108.895 157.651C109.062 157.99 109.145 158.386 109.145 158.841C109.145 159.292 109.062 159.686 108.895 160.023C108.73 160.36 108.499 160.622 108.202 160.81C107.906 160.997 107.562 161.091 107.168 161.091ZM107.168 160.489C107.467 160.489 107.713 160.412 107.906 160.259C108.099 160.105 108.242 159.903 108.335 159.653C108.428 159.403 108.474 159.133 108.474 158.841C108.474 158.549 108.428 158.277 108.335 158.026C108.242 157.774 108.099 157.57 107.906 157.415C107.713 157.259 107.467 157.182 107.168 157.182C106.868 157.182 106.622 157.259 106.429 157.415C106.236 157.57 106.093 157.774 106 158.026C105.907 158.277 105.861 158.549 105.861 158.841C105.861 159.133 105.907 159.403 106 159.653C106.093 159.903 106.236 160.105 106.429 160.259C106.622 160.412 106.868 160.489 107.168 160.489ZM110.793 159.409L110.782 158.58H110.918L112.827 156.636H113.657L111.623 158.693H111.566L110.793 159.409ZM110.168 161V155.182H110.839V161H110.168ZM112.941 161L111.237 158.841L111.714 158.375L113.793 161H112.941ZM118.054 161.102C117.777 161.102 117.527 161.05 117.301 160.946C117.076 160.84 116.897 160.688 116.764 160.489C116.632 160.288 116.565 160.045 116.565 159.761C116.565 159.511 116.615 159.309 116.713 159.153C116.812 158.996 116.943 158.873 117.108 158.784C117.273 158.695 117.455 158.629 117.653 158.585C117.854 158.54 118.056 158.504 118.259 158.477C118.524 158.443 118.739 158.418 118.903 158.401C119.07 158.382 119.191 158.35 119.267 158.307C119.345 158.263 119.384 158.187 119.384 158.08V158.057C119.384 157.777 119.307 157.559 119.153 157.403C119.002 157.248 118.772 157.17 118.463 157.17C118.143 157.17 117.892 157.241 117.71 157.381C117.528 157.521 117.401 157.67 117.327 157.83L116.69 157.602C116.804 157.337 116.955 157.131 117.145 156.983C117.336 156.833 117.545 156.729 117.77 156.67C117.997 156.61 118.221 156.58 118.44 156.58C118.58 156.58 118.741 156.597 118.923 156.631C119.107 156.663 119.284 156.73 119.455 156.832C119.627 156.935 119.77 157.089 119.884 157.295C119.997 157.502 120.054 157.778 120.054 158.125V161H119.384V160.409H119.349C119.304 160.504 119.228 160.605 119.122 160.713C119.016 160.821 118.875 160.913 118.699 160.989C118.523 161.064 118.308 161.102 118.054 161.102ZM118.156 160.5C118.421 160.5 118.645 160.448 118.827 160.344C119.01 160.24 119.149 160.105 119.241 159.94C119.336 159.776 119.384 159.602 119.384 159.42V158.807C119.355 158.841 119.293 158.872 119.196 158.901C119.101 158.927 118.991 158.951 118.866 158.972C118.743 158.991 118.623 159.008 118.506 159.023C118.39 159.036 118.296 159.047 118.224 159.057C118.05 159.08 117.887 159.116 117.736 159.168C117.586 159.217 117.465 159.292 117.372 159.392C117.281 159.491 117.236 159.625 117.236 159.795C117.236 160.028 117.322 160.205 117.494 160.324C117.669 160.441 117.889 160.5 118.156 160.5ZM125.3 161.091C124.891 161.091 124.539 160.994 124.244 160.801C123.948 160.608 123.721 160.342 123.562 160.003C123.403 159.664 123.323 159.277 123.323 158.841C123.323 158.398 123.405 158.007 123.567 157.668C123.732 157.327 123.961 157.061 124.255 156.869C124.55 156.676 124.895 156.58 125.289 156.58C125.596 156.58 125.872 156.636 126.119 156.75C126.365 156.864 126.567 157.023 126.724 157.227C126.881 157.432 126.978 157.67 127.016 157.943H126.346C126.295 157.744 126.181 157.568 126.005 157.415C125.831 157.259 125.596 157.182 125.3 157.182C125.039 157.182 124.81 157.25 124.613 157.386C124.418 157.521 124.265 157.711 124.156 157.957C124.048 158.202 123.994 158.489 123.994 158.818C123.994 159.155 124.047 159.449 124.153 159.699C124.261 159.949 124.412 160.143 124.607 160.281C124.804 160.42 125.035 160.489 125.3 160.489C125.475 160.489 125.633 160.458 125.775 160.398C125.917 160.337 126.037 160.25 126.136 160.136C126.234 160.023 126.304 159.886 126.346 159.727H127.016C126.978 159.985 126.885 160.217 126.735 160.423C126.587 160.628 126.391 160.791 126.147 160.912C125.905 161.031 125.622 161.091 125.3 161.091ZM129.769 161.091C129.375 161.091 129.03 160.997 128.732 160.81C128.437 160.622 128.206 160.36 128.039 160.023C127.874 159.686 127.792 159.292 127.792 158.841C127.792 158.386 127.874 157.99 128.039 157.651C128.206 157.312 128.437 157.048 128.732 156.861C129.03 156.673 129.375 156.58 129.769 156.58C130.163 156.58 130.508 156.673 130.803 156.861C131.101 157.048 131.332 157.312 131.496 157.651C131.663 157.99 131.746 158.386 131.746 158.841C131.746 159.292 131.663 159.686 131.496 160.023C131.332 160.36 131.101 160.622 130.803 160.81C130.508 160.997 130.163 161.091 129.769 161.091ZM129.769 160.489C130.068 160.489 130.315 160.412 130.508 160.259C130.701 160.105 130.844 159.903 130.937 159.653C131.03 159.403 131.076 159.133 131.076 158.841C131.076 158.549 131.03 158.277 130.937 158.026C130.844 157.774 130.701 157.57 130.508 157.415C130.315 157.259 130.068 157.182 129.769 157.182C129.47 157.182 129.224 157.259 129.031 157.415C128.837 157.57 128.694 157.774 128.602 158.026C128.509 158.277 128.462 158.549 128.462 158.841C128.462 159.133 128.509 159.403 128.602 159.653C128.694 159.903 128.837 160.105 129.031 160.259C129.224 160.412 129.47 160.489 129.769 160.489ZM135.52 159.216V156.636H136.19V161H135.52V160.261H135.474C135.372 160.483 135.213 160.671 134.997 160.827C134.781 160.98 134.509 161.057 134.179 161.057C133.906 161.057 133.664 160.997 133.452 160.878C133.24 160.757 133.073 160.575 132.952 160.332C132.83 160.088 132.77 159.78 132.77 159.409V156.636H133.44V159.364C133.44 159.682 133.529 159.936 133.707 160.125C133.887 160.314 134.116 160.409 134.395 160.409C134.562 160.409 134.731 160.366 134.903 160.281C135.078 160.196 135.223 160.065 135.341 159.889C135.46 159.713 135.52 159.489 135.52 159.216ZM137.418 161V156.636H138.066V157.295H138.112C138.191 157.08 138.335 156.904 138.543 156.77C138.752 156.635 138.987 156.568 139.248 156.568C139.297 156.568 139.359 156.569 139.433 156.571C139.506 156.573 139.562 156.576 139.6 156.58V157.261C139.577 157.256 139.525 157.247 139.444 157.236C139.364 157.223 139.28 157.216 139.191 157.216C138.979 157.216 138.79 157.26 138.623 157.349C138.458 157.437 138.327 157.558 138.231 157.713C138.136 157.866 138.089 158.042 138.089 158.239V161H137.418ZM142.566 156.636V157.205H140.305V156.636H142.566ZM140.964 155.591H141.634V159.75C141.634 159.939 141.662 160.081 141.717 160.176C141.773 160.269 141.845 160.331 141.933 160.364C142.022 160.394 142.115 160.409 142.214 160.409C142.288 160.409 142.348 160.405 142.396 160.398C142.443 160.388 142.481 160.381 142.509 160.375L142.646 160.977C142.6 160.994 142.537 161.011 142.455 161.028C142.374 161.047 142.271 161.057 142.146 161.057C141.956 161.057 141.771 161.016 141.589 160.935C141.409 160.853 141.259 160.729 141.14 160.562C141.022 160.396 140.964 160.186 140.964 159.932V155.591Z" fill="rgb(var(--gray-inverse))"/>
<path d="M78 227H160.8" stroke="#1A8EB8"/>
<ellipse cx="160.8" cy="227" rx="1.2" ry="2" fill="#1A8EB8"/>
<path d="M162 299H82.157" stroke="#006A51"/>
<circle cx="81.3142" cy="299" r="2" transform="rotate(-180 81.3142 299)" fill="#006A51"/>
<g clip-path="url(#clip0_3_683)">
<path d="M321.996 195H276.003C274.015 195 272.397 196.618 272.397 198.606V205.084C272.397 207.072 274.015 208.69 276.003 208.69H278.229V212.045H276.003C274.015 212.045 272.397 213.662 272.397 215.65V222.128C272.397 224.117 274.015 225.734 276.003 225.734H278.229V229.089H276.003C274.015 229.089 272.397 230.706 272.397 232.695V239.173C272.397 241.162 274.015 242.779 276.003 242.779H298.375V247.856C296.888 248.117 295.714 249.287 295.452 250.769H274.011C273.666 250.769 273.386 251.049 273.386 251.394C273.386 251.74 273.666 252.019 274.011 252.019H295.452C295.749 253.71 297.225 255 299 255C300.769 255 302.241 253.71 302.538 252.019H323.989C324.334 252.019 324.614 251.74 324.614 251.394C324.614 251.049 324.334 250.769 323.989 250.769H302.537C302.276 249.288 301.107 248.118 299.625 247.857V242.779H321.996C323.985 242.779 325.602 241.162 325.602 239.173V232.695C325.602 230.706 323.985 229.089 321.996 229.089H319.771V225.734H321.996C323.985 225.734 325.602 224.117 325.602 222.128V215.65C325.602 213.662 323.985 212.045 321.996 212.045H319.771V208.69H321.996C323.985 208.69 325.602 207.072 325.602 205.084V198.606C325.602 196.618 323.985 195 321.996 195ZM301.346 251.394C301.346 252.693 300.293 253.75 299 253.75C297.701 253.75 296.644 252.693 296.644 251.394C296.644 250.101 297.701 249.048 299 249.048C300.293 249.049 301.346 250.101 301.346 251.394ZM321.996 230.339C323.295 230.339 324.352 231.396 324.352 232.695V239.173C324.352 240.472 323.295 241.529 321.996 241.529H276.003C274.704 241.529 273.648 240.472 273.648 239.173V232.695C273.648 231.396 274.704 230.339 276.003 230.339C286.575 230.339 312.162 230.339 321.996 230.339ZM279.479 229.089V225.734H318.521V229.089H279.479ZM321.996 213.295C323.295 213.295 324.352 214.351 324.352 215.65V222.128C324.352 223.427 323.295 224.484 321.996 224.484C312.149 224.484 286.582 224.484 276.003 224.484C274.704 224.484 273.648 223.427 273.648 222.128V215.65C273.648 214.351 274.704 213.295 276.003 213.295C285.85 213.295 311.417 213.295 321.996 213.295ZM279.479 212.045V208.69H318.521V212.045H279.479ZM324.352 205.084C324.352 206.382 323.295 207.44 321.996 207.44C312.149 207.44 286.582 207.44 276.003 207.44C274.704 207.44 273.648 206.382 273.648 205.084V198.606C273.648 197.307 274.704 196.25 276.003 196.25H321.996C323.295 196.25 324.352 197.307 324.352 198.606V205.084Z" fill="#00394D"/>
<path d="M292.485 199.332C291.099 199.332 289.972 200.459 289.972 201.845C289.972 203.23 291.099 204.357 292.485 204.357C293.871 204.357 294.998 203.23 294.998 201.845C294.998 200.459 293.871 199.332 292.485 199.332ZM292.485 203.107C291.789 203.107 291.222 202.541 291.222 201.844C291.222 201.148 291.789 200.582 292.485 200.582C293.181 200.582 293.748 201.148 293.748 201.844C293.748 202.541 293.181 203.107 292.485 203.107ZM278.903 199.332C277.517 199.332 276.39 200.459 276.39 201.845C276.39 203.23 277.517 204.357 278.903 204.357C280.288 204.357 281.416 203.23 281.416 201.845C281.416 200.459 280.288 199.332 278.903 199.332ZM278.903 203.107C278.206 203.107 277.64 202.541 277.64 201.844C277.64 201.148 278.206 200.582 278.903 200.582C279.599 200.582 280.166 201.148 280.166 201.844C280.166 202.541 279.599 203.107 278.903 203.107ZM285.689 199.332C284.303 199.332 283.176 200.459 283.176 201.845C283.176 203.23 284.303 204.357 285.689 204.357C287.074 204.357 288.202 203.23 288.202 201.845C288.202 200.459 287.074 199.332 285.689 199.332ZM285.689 203.107C284.993 203.107 284.426 202.541 284.426 201.844C284.426 201.148 284.993 200.582 285.689 200.582C286.385 200.582 286.952 201.148 286.952 201.844C286.952 202.541 286.385 203.107 285.689 203.107ZM319.122 199.352H306.926C305.554 199.352 304.438 200.468 304.438 201.84C304.438 203.212 305.554 204.328 306.926 204.328H319.122C320.494 204.328 321.61 203.212 321.61 201.84C321.61 200.468 320.494 199.352 319.122 199.352ZM319.122 203.078H306.926C306.243 203.078 305.688 202.523 305.688 201.84C305.688 201.157 306.243 200.602 306.926 200.602H319.122C319.804 200.602 320.36 201.157 320.36 201.84C320.36 202.523 319.804 203.078 319.122 203.078ZM292.485 216.377C291.099 216.377 289.972 217.504 289.972 218.89C289.972 220.275 291.099 221.403 292.485 221.403C293.871 221.403 294.998 220.275 294.998 218.89C294.998 217.504 293.871 216.377 292.485 216.377ZM292.485 220.153C291.789 220.153 291.222 219.586 291.222 218.89C291.222 218.193 291.789 217.627 292.485 217.627C293.181 217.627 293.748 218.193 293.748 218.89C293.748 219.586 293.181 220.153 292.485 220.153ZM278.903 216.377C277.517 216.377 276.39 217.504 276.39 218.89C276.39 220.275 277.517 221.403 278.903 221.403C280.288 221.403 281.416 220.275 281.416 218.89C281.416 217.504 280.288 216.377 278.903 216.377ZM278.903 220.153C278.206 220.153 277.64 219.586 277.64 218.89C277.64 218.193 278.206 217.627 278.903 217.627C279.599 217.627 280.166 218.193 280.166 218.89C280.166 219.586 279.599 220.153 278.903 220.153ZM285.689 216.377C284.303 216.377 283.176 217.504 283.176 218.89C283.176 220.275 284.303 221.403 285.689 221.403C287.074 221.403 288.202 220.275 288.202 218.89C288.202 217.504 287.074 216.377 285.689 216.377ZM285.689 220.153C284.993 220.153 284.426 219.586 284.426 218.89C284.426 218.193 284.993 217.627 285.689 217.627C286.385 217.627 286.952 218.193 286.952 218.89C286.952 219.586 286.385 220.153 285.689 220.153ZM306.926 216.397C305.554 216.397 304.438 217.513 304.438 218.885C304.438 220.257 305.554 221.373 306.926 221.373H319.122C320.494 221.373 321.61 220.257 321.61 218.885C321.61 217.513 320.494 216.397 319.122 216.397H306.926ZM320.36 218.885C320.36 219.567 319.804 220.123 319.122 220.123H306.926C306.243 220.123 305.688 219.567 305.688 218.885C305.688 218.202 306.243 217.646 306.926 217.646H319.122C319.804 217.646 320.36 218.202 320.36 218.885ZM292.485 233.422C291.099 233.422 289.972 234.549 289.972 235.935C289.972 237.32 291.099 238.447 292.485 238.447C293.871 238.447 294.998 237.32 294.998 235.935C294.998 234.549 293.871 233.422 292.485 233.422ZM292.485 237.197C291.789 237.197 291.222 236.631 291.222 235.934C291.222 235.238 291.789 234.672 292.485 234.672C293.181 234.672 293.748 235.238 293.748 235.934C293.748 236.631 293.181 237.197 292.485 237.197ZM278.903 233.422C277.517 233.422 276.39 234.549 276.39 235.935C276.39 237.32 277.517 238.447 278.903 238.447C280.288 238.447 281.416 237.32 281.416 235.935C281.416 234.549 280.288 233.422 278.903 233.422ZM278.903 237.197C278.206 237.197 277.64 236.631 277.64 235.934C277.64 235.238 278.206 234.672 278.903 234.672C279.599 234.672 280.166 235.238 280.166 235.934C280.166 236.631 279.599 237.197 278.903 237.197ZM285.689 233.422C284.303 233.422 283.176 234.549 283.176 235.935C283.176 237.32 284.303 238.447 285.689 238.447C287.074 238.447 288.202 237.32 288.202 235.935C288.202 234.549 287.074 233.422 285.689 233.422ZM285.689 237.197C284.993 237.197 284.426 236.631 284.426 235.934C284.426 235.238 284.993 234.672 285.689 234.672C286.385 234.672 286.952 235.238 286.952 235.934C286.952 236.631 286.385 237.197 285.689 237.197ZM306.926 233.441C305.554 233.441 304.438 234.557 304.438 235.929C304.438 237.302 305.554 238.417 306.926 238.417H319.122C320.494 238.417 321.61 237.302 321.61 235.929C321.61 234.557 320.494 233.441 319.122 233.441H306.926ZM320.36 235.93C320.36 236.612 319.804 237.167 319.122 237.167H306.926C306.243 237.167 305.688 236.612 305.688 235.93C305.688 235.247 306.243 234.691 306.926 234.691H319.122C319.804 234.691 320.36 235.247 320.36 235.93Z" fill="#00394D"/>
</g>
<path d="M398.5 124.375C398.5 127.48 388.427 130 376 130C363.573 130 353.5 127.48 353.5 124.375C353.5 121.27 363.573 118.75 376 118.75C388.427 118.75 398.5 121.27 398.5 124.375Z" fill="#004158"/>
<path d="M376 133.75C363.625 133.75 353.5 131.125 353.5 128.125V139.375C353.5 142.375 363.625 145 376 145C388.375 145 398.5 142.375 398.5 139.375V128.125C398.5 131.125 388.375 133.75 376 133.75Z" fill="#004158"/>
<path d="M376 148.75C363.625 148.75 353.5 146.125 353.5 143.125V154.375C353.5 157.375 363.625 160 376 160C388.375 160 398.5 157.375 398.5 154.375V143.125C398.5 146.125 388.375 148.75 376 148.75Z" fill="#004158"/>
<path d="M376 163.75C363.625 163.75 353.5 161.125 353.5 158.125V169.375C353.5 172.375 363.625 175 376 175C388.375 175 398.5 172.375 398.5 169.375V158.125C398.5 161.125 388.375 163.75 376 163.75Z" fill="#004158"/>
<path d="M161.452 339V333.182H163.525C163.978 333.182 164.353 333.264 164.65 333.429C164.948 333.594 165.17 333.819 165.318 334.105C165.466 334.389 165.54 334.709 165.54 335.065C165.54 335.423 165.465 335.745 165.315 336.031C165.167 336.315 164.944 336.541 164.645 336.707C164.347 336.872 163.973 336.955 163.523 336.955H162.096V336.21H163.443C163.729 336.21 163.961 336.161 164.139 336.062C164.317 335.962 164.448 335.826 164.531 335.653C164.614 335.481 164.656 335.285 164.656 335.065C164.656 334.846 164.614 334.651 164.531 334.48C164.448 334.31 164.316 334.176 164.136 334.08C163.958 333.983 163.723 333.935 163.432 333.935H162.329V339H161.452ZM166.443 339H165.511L167.605 333.182H168.619L170.713 339H169.781L168.136 334.239H168.091L166.443 339ZM166.599 336.722H169.622V337.46H166.599V336.722ZM171.553 339V333.182H173.627C174.078 333.182 174.452 333.259 174.749 333.415C175.048 333.57 175.272 333.785 175.42 334.06C175.567 334.332 175.641 334.648 175.641 335.006C175.641 335.362 175.566 335.675 175.417 335.946C175.269 336.215 175.046 336.424 174.746 336.574C174.449 336.723 174.075 336.798 173.624 336.798H172.053V336.043H173.545C173.829 336.043 174.06 336.002 174.238 335.92C174.418 335.839 174.549 335.721 174.633 335.565C174.716 335.41 174.758 335.223 174.758 335.006C174.758 334.786 174.715 334.596 174.63 334.435C174.547 334.274 174.415 334.151 174.235 334.065C174.057 333.978 173.823 333.935 173.533 333.935H172.431V339H171.553ZM174.425 336.375L175.863 339H174.863L173.454 336.375H174.425ZM176.422 333.938V333.182H180.925V333.938H179.11V339H178.235V333.938H176.422ZM186.616 333.182V339H185.81L182.852 334.733H182.798V339H181.92V333.182H182.733L185.693 337.455H185.747V333.182H186.616ZM187.897 339V333.182H191.545V333.938H188.775V335.71H191.354V336.463H188.775V338.244H191.579V339H187.897ZM192.717 339V333.182H194.791C195.242 333.182 195.616 333.259 195.913 333.415C196.212 333.57 196.436 333.785 196.584 334.06C196.731 334.332 196.805 334.648 196.805 335.006C196.805 335.362 196.73 335.675 196.581 335.946C196.433 336.215 196.21 336.424 195.91 336.574C195.613 336.723 195.239 336.798 194.788 336.798H193.217V336.043H194.709C194.993 336.043 195.224 336.002 195.402 335.92C195.582 335.839 195.713 335.721 195.797 335.565C195.88 335.41 195.922 335.223 195.922 335.006C195.922 334.786 195.879 334.596 195.794 334.435C195.711 334.274 195.579 334.151 195.399 334.065C195.221 333.978 194.987 333.935 194.697 333.935H193.595V339H192.717ZM195.589 336.375L197.027 339H196.027L194.618 336.375H195.589ZM200.482 339H199.55L201.644 333.182H202.658L204.752 339H203.82L202.175 334.239H202.13L200.482 339ZM200.638 336.722H203.661V337.46H200.638V336.722ZM205.592 339V333.182H207.666C208.119 333.182 208.494 333.264 208.791 333.429C209.088 333.594 209.311 333.819 209.459 334.105C209.606 334.389 209.68 334.709 209.68 335.065C209.68 335.423 209.605 335.745 209.456 336.031C209.308 336.315 209.085 336.541 208.785 336.707C208.488 336.872 208.114 336.955 207.663 336.955H206.237V336.21H207.584C207.87 336.21 208.102 336.161 208.28 336.062C208.458 335.962 208.588 335.826 208.672 335.653C208.755 335.481 208.797 335.285 208.797 335.065C208.797 334.846 208.755 334.651 208.672 334.48C208.588 334.31 208.457 334.176 208.277 334.08C208.099 333.983 207.864 333.935 207.572 333.935H206.47V339H205.592ZM210.709 339V333.182H212.783C213.236 333.182 213.611 333.264 213.908 333.429C214.206 333.594 214.428 333.819 214.576 334.105C214.724 334.389 214.797 334.709 214.797 335.065C214.797 335.423 214.723 335.745 214.573 336.031C214.425 336.315 214.202 336.541 213.903 336.707C213.605 336.872 213.231 336.955 212.78 336.955H211.354V336.21H212.701C212.987 336.21 213.219 336.161 213.397 336.062C213.575 335.962 213.706 335.826 213.789 335.653C213.872 335.481 213.914 335.285 213.914 335.065C213.914 334.846 213.872 334.651 213.789 334.48C213.706 334.31 213.574 334.176 213.394 334.08C213.216 333.983 212.981 333.935 212.69 333.935H211.587V339H210.709Z" fill="#004158"/>
<g filter="url(#filter0_d_3_683)">
<path d="M205.593 124L197.395 124.071C196.856 124.087 196.345 124.318 195.975 124.711C195.606 125.104 195.407 125.628 195.424 126.167V127.653C195.44 128.193 195.242 128.717 194.872 129.11C194.502 129.503 193.992 129.733 193.452 129.75L177.485 129.881C176.945 129.873 176.43 129.652 176.054 129.265C175.678 128.878 175.47 128.358 175.476 127.818V126.329C175.482 125.789 175.274 125.269 174.897 124.882C174.52 124.495 174.005 124.274 173.465 124.266L170.584 124.29L163.409 124.348C162.561 124.354 161.722 124.527 160.941 124.857C160.159 125.187 159.45 125.668 158.855 126.272C158.26 126.877 157.79 127.593 157.471 128.379C157.153 129.165 156.993 130.007 157 130.855L157.894 234.315C157.913 236.022 158.608 237.652 159.827 238.848C161.047 240.043 162.691 240.706 164.398 240.69L206.591 240.345C207.439 240.34 208.278 240.168 209.06 239.837C209.841 239.507 210.55 239.026 211.145 238.422C211.741 237.818 212.211 237.102 212.529 236.315C212.847 235.529 213.007 234.687 213 233.839L212.108 130.379C212.089 128.669 211.392 127.037 210.17 125.841C208.949 124.645 207.302 123.983 205.593 124Z" fill="white" fill-opacity="0.8" stroke="#D1D3D4" stroke-miterlimit="10"/>
<path d="M203.121 153.778L165.045 154.114C164.592 154.118 164.142 154.032 163.722 153.862C163.302 153.693 162.919 153.442 162.596 153.124C162.273 152.806 162.016 152.428 161.839 152.011C161.662 151.593 161.569 151.145 161.566 150.692V149.411C161.562 148.958 161.647 148.508 161.817 148.088C161.986 147.668 162.237 147.286 162.554 146.963C162.872 146.64 163.25 146.383 163.667 146.206C164.083 146.028 164.531 145.935 164.984 145.931L203.06 145.596C203.513 145.592 203.963 145.677 204.383 145.847C204.803 146.016 205.186 146.267 205.509 146.585C205.833 146.903 206.09 147.281 206.267 147.698C206.445 148.115 206.538 148.564 206.542 149.017V150.296C206.546 150.749 206.461 151.199 206.292 151.619C206.122 152.04 205.871 152.423 205.553 152.746C205.236 153.07 204.857 153.327 204.44 153.504C204.022 153.681 203.574 153.774 203.121 153.778V153.778Z" stroke="#D1D3D4" stroke-miterlimit="10"/>
<path d="M203.121 153.778C203.121 153.778 203.209 153.778 203.38 153.753C203.631 153.728 203.878 153.678 204.119 153.604C204.508 153.474 204.873 153.278 205.196 153.024C205.638 152.678 205.987 152.229 206.212 151.715C206.347 151.411 206.434 151.089 206.472 150.759C206.504 150.393 206.511 150.025 206.493 149.658C206.504 149.257 206.484 148.856 206.432 148.458C206.309 147.775 205.979 147.146 205.489 146.655C204.998 146.164 204.368 145.835 203.685 145.712C203.165 145.654 202.642 145.639 202.12 145.666L200.459 145.684L164.969 146.023C164.129 146.037 163.325 146.363 162.713 146.938C162.102 147.514 161.726 148.296 161.66 149.133C161.636 149.539 161.66 149.969 161.66 150.384C161.642 150.796 161.688 151.208 161.798 151.605C162.027 152.384 162.527 153.055 163.208 153.497C163.542 153.715 163.913 153.869 164.303 153.952C164.693 154.026 165.091 154.053 165.487 154.031L167.868 154.01L172.479 153.973L188.435 153.851L199.193 153.781H202.117H202.876C203.047 153.781 203.136 153.781 203.136 153.781H202.876L202.117 153.796L199.193 153.839L188.438 153.961L172.482 154.12L167.871 154.162L165.487 154.184C165.079 154.206 164.669 154.179 164.267 154.101C163.858 154.015 163.469 153.853 163.119 153.625C162.405 153.162 161.88 152.458 161.639 151.641C161.525 151.232 161.476 150.806 161.496 150.381C161.496 149.96 161.471 149.548 161.496 149.115C161.562 148.231 161.958 147.405 162.604 146.799C163.251 146.193 164.101 145.852 164.987 145.843L200.475 145.538H202.138C202.666 145.513 203.196 145.531 203.722 145.593C204.203 145.683 204.661 145.872 205.064 146.15C205.468 146.428 205.809 146.787 206.066 147.204C206.295 147.579 206.452 147.993 206.53 148.425C206.58 148.83 206.6 149.238 206.588 149.646C206.601 150.017 206.591 150.389 206.557 150.759C206.515 151.096 206.423 151.424 206.282 151.733C206.051 152.254 205.692 152.708 205.239 153.055C204.708 153.471 204.065 153.717 203.392 153.763L203.121 153.778Z" stroke="#D1D3D4" stroke-miterlimit="10"/>
<path d="M203.789 149.487C203.774 149.487 203.774 149.353 203.71 149.133C203.615 148.822 203.421 148.551 203.157 148.361C202.946 148.208 202.697 148.116 202.437 148.096C202.178 148.077 201.917 148.129 201.686 148.249C201.454 148.368 201.26 148.55 201.126 148.773C200.991 148.996 200.921 149.252 200.924 149.513C200.926 149.773 201.001 150.028 201.14 150.248C201.279 150.469 201.476 150.647 201.71 150.762C201.943 150.877 202.204 150.925 202.464 150.9C202.723 150.875 202.971 150.779 203.179 150.622C203.438 150.427 203.627 150.153 203.716 149.841C203.777 149.618 203.774 149.484 203.789 149.487ZM203.789 149.487C203.804 149.49 203.789 149.517 203.789 149.581C203.794 149.674 203.786 149.766 203.765 149.856C203.696 150.195 203.51 150.498 203.24 150.714C203.038 150.877 202.797 150.986 202.542 151.03C202.286 151.074 202.023 151.053 201.778 150.967C201.475 150.862 201.211 150.666 201.024 150.406C200.837 150.146 200.735 149.834 200.732 149.513C200.729 149.193 200.825 148.879 201.007 148.615C201.19 148.351 201.449 148.151 201.75 148.04C201.994 147.95 202.257 147.923 202.514 147.962C202.771 148.002 203.013 148.107 203.218 148.266C203.493 148.476 203.685 148.777 203.758 149.114C203.781 149.204 203.791 149.297 203.789 149.389C203.798 149.453 203.795 149.487 203.789 149.487Z" stroke="#D1D3D4" stroke-miterlimit="10"/>
<path d="M204.628 152.032C204.101 151.64 203.648 151.157 203.288 150.607C203.566 150.784 203.813 151.005 204.018 151.263C204.262 151.484 204.468 151.744 204.628 152.032V152.032Z" stroke="#D1D3D4" stroke-miterlimit="10"/>
<path d="M167.636 149.182H166.833V148.974L168.665 148.956V149.166H167.862L167.88 151.242H167.639L167.636 149.182Z" fill="#D1D3D4"/>
<path d="M170.34 150.445H168.906C168.911 150.529 168.933 150.611 168.97 150.686C169.007 150.761 169.059 150.828 169.122 150.883C169.186 150.938 169.259 150.98 169.339 151.007C169.419 151.033 169.503 151.043 169.586 151.037C169.685 151.039 169.783 151.019 169.874 150.98C169.964 150.94 170.045 150.882 170.111 150.808L170.242 150.955C170.119 151.081 169.961 151.169 169.789 151.208C169.616 151.247 169.436 151.235 169.27 151.174C169.104 151.113 168.959 151.004 168.853 150.863C168.748 150.721 168.685 150.551 168.674 150.375C168.667 150.262 168.684 150.149 168.722 150.043C168.761 149.936 168.821 149.839 168.899 149.757C168.977 149.675 169.071 149.61 169.175 149.565C169.279 149.521 169.391 149.498 169.504 149.499C169.617 149.495 169.73 149.516 169.835 149.558C169.94 149.6 170.035 149.664 170.114 149.746C170.193 149.827 170.254 149.924 170.294 150.03C170.333 150.136 170.35 150.25 170.343 150.363C170.343 150.393 170.34 150.421 170.34 150.445ZM168.906 150.286H170.126C170.126 150.125 170.062 149.969 169.948 149.855C169.833 149.74 169.678 149.676 169.516 149.676C169.354 149.676 169.199 149.74 169.084 149.855C168.97 149.969 168.906 150.125 168.906 150.286Z" fill="#D1D3D4"/>
<path d="M171.869 151.217L171.317 150.506L170.77 151.226H170.508L171.179 150.341L170.526 149.511H170.786L171.308 150.18L171.817 149.502H172.071L171.439 150.354L172.132 151.226L171.869 151.217Z" fill="#D1D3D4"/>
<path d="M173.419 151.101C173.318 151.184 173.19 151.227 173.059 151.223C172.992 151.231 172.924 151.224 172.859 151.202C172.795 151.181 172.736 151.145 172.688 151.097C172.639 151.05 172.602 150.992 172.579 150.928C172.555 150.865 172.546 150.797 172.553 150.729V149.691H172.248V149.496H172.553V149.133H172.785V149.505H173.307V149.7H172.785V150.723C172.78 150.764 172.784 150.806 172.798 150.845C172.812 150.884 172.834 150.92 172.863 150.95C172.893 150.979 172.928 151.001 172.968 151.015C173.007 151.028 173.049 151.033 173.09 151.028C173.183 151.031 173.273 150.998 173.343 150.936L173.419 151.101Z" fill="#D1D3D4"/>
<path d="M173.476 160.77L163.63 160.869L163.729 170.714L173.574 170.616L173.476 160.77Z" fill="#E1E1E1"/>
<path d="M192.357 161.664C192.357 161.71 189.064 161.777 185.005 161.81C180.945 161.844 177.652 161.838 177.652 161.792C177.652 161.746 180.942 161.679 185.005 161.646C189.067 161.612 192.354 161.618 192.357 161.664Z" fill="#E1E1E1"/>
<path d="M204.106 164.579C204.106 164.624 198.192 164.713 190.895 164.777C183.597 164.841 177.68 164.856 177.677 164.81C177.674 164.765 183.591 164.676 190.892 164.609C198.192 164.542 204.106 164.533 204.106 164.579Z" fill="#E1E1E1"/>
<path d="M203.813 166.736C203.813 166.782 197.969 166.871 190.757 166.935C183.546 166.999 177.698 167.011 177.698 166.965C177.698 166.919 183.543 166.831 190.754 166.767C197.966 166.703 203.813 166.69 203.813 166.736Z" fill="#E1E1E1"/>
<path d="M193.135 168.885C193.135 168.931 189.683 169.001 185.426 169.037C181.168 169.074 177.717 169.068 177.717 169.022C177.717 168.976 181.165 168.906 185.426 168.87C189.686 168.833 193.135 168.839 193.135 168.885Z" fill="#E1E1E1"/>
<path d="M173.845 193L164 193.098L164.098 202.944L173.944 202.845L173.845 193Z" fill="#E1E1E1"/>
<path d="M193.704 194.04C193.704 194.085 190.414 194.153 186.352 194.189C182.29 194.226 179 194.217 179 194.168C179 194.119 182.29 194.055 186.352 194.021C190.414 193.988 193.704 193.994 193.704 194.04Z" fill="#E1E1E1"/>
<path d="M205.454 196.954C205.454 197 199.539 197.088 192.242 197.153C184.945 197.217 179.027 197.232 179.027 197.186C179.027 197.14 184.942 197.052 192.242 196.988C199.542 196.924 205.454 196.908 205.454 196.954Z" fill="#E1E1E1"/>
<path d="M205.164 199.112C205.164 199.158 199.317 199.246 192.105 199.31C184.893 199.374 179.046 199.387 179.046 199.341C179.046 199.295 184.89 199.207 192.105 199.142C199.32 199.078 205.164 199.066 205.164 199.112Z" fill="#E1E1E1"/>
<path d="M194.485 201.26C194.485 201.309 191.034 201.376 186.776 201.413C182.519 201.45 179.064 201.444 179.064 201.413C179.064 201.383 182.516 201.3 186.773 201.26C191.031 201.221 194.485 201.215 194.485 201.26Z" fill="#E1E1E1"/>
<path d="M198.821 169.886C198.75 169.768 198.672 169.656 198.586 169.55C198.361 169.303 198.06 169.137 197.731 169.08C197.477 168.855 197.249 168.602 197.05 168.326C196.962 168.217 196.893 168.095 196.846 167.963C196.846 167.963 196.934 168.094 197.093 168.296C197.297 168.554 197.523 168.793 197.768 169.013C197.85 169.04 197.942 169.062 198.036 169.092C198.121 169.124 198.203 169.164 198.28 169.211C198.412 169.292 198.529 169.395 198.625 169.517C198.691 169.596 198.746 169.684 198.787 169.779C198.804 169.813 198.815 169.849 198.821 169.886V169.886Z" fill="#F6B297"/>
<path d="M199.297 169.275C199.258 169.216 199.211 169.162 199.156 169.117C199.089 169.064 199.01 169.029 198.926 169.014C198.842 168.999 198.755 169.005 198.674 169.031H198.653L198.634 169.016L198.585 168.961C198.384 168.765 198.202 168.552 198.039 168.323C198.26 168.499 198.465 168.695 198.65 168.909L198.698 168.964H198.662C198.754 168.934 198.852 168.929 198.946 168.95C199.04 168.97 199.128 169.015 199.199 169.08C199.297 169.178 199.306 169.275 199.297 169.275Z" fill="#F6B297"/>
</g>
<path d="M157.389 113.074H156.503C156.469 112.884 156.406 112.718 156.313 112.574C156.22 112.43 156.106 112.308 155.972 112.207C155.837 112.107 155.687 112.031 155.52 111.98C155.355 111.929 155.18 111.903 154.995 111.903C154.659 111.903 154.359 111.988 154.094 112.156C153.831 112.325 153.622 112.572 153.469 112.898C153.317 113.223 153.242 113.621 153.242 114.091C153.242 114.564 153.317 114.964 153.469 115.29C153.622 115.616 153.832 115.862 154.097 116.028C154.362 116.195 154.66 116.278 154.992 116.278C155.175 116.278 155.35 116.254 155.514 116.205C155.681 116.153 155.832 116.079 155.966 115.98C156.101 115.882 156.214 115.761 156.307 115.619C156.402 115.475 156.467 115.311 156.503 115.125L157.389 115.128C157.342 115.414 157.25 115.677 157.114 115.918C156.979 116.156 156.806 116.363 156.594 116.537C156.384 116.709 156.143 116.843 155.872 116.938C155.602 117.032 155.306 117.08 154.986 117.08C154.482 117.08 154.033 116.96 153.639 116.722C153.245 116.481 152.935 116.137 152.708 115.69C152.482 115.243 152.37 114.71 152.37 114.091C152.37 113.47 152.483 112.937 152.71 112.491C152.938 112.045 153.248 111.702 153.642 111.463C154.036 111.223 154.484 111.102 154.986 111.102C155.295 111.102 155.583 111.147 155.85 111.236C156.119 111.323 156.36 111.452 156.574 111.622C156.788 111.791 156.965 111.997 157.105 112.241C157.245 112.484 157.34 112.761 157.389 113.074ZM163.494 114.091C163.494 114.712 163.38 115.246 163.153 115.693C162.926 116.138 162.614 116.481 162.218 116.722C161.824 116.96 161.376 117.08 160.875 117.08C160.371 117.08 159.921 116.96 159.525 116.722C159.131 116.481 158.821 116.137 158.593 115.69C158.366 115.243 158.252 114.71 158.252 114.091C158.252 113.47 158.366 112.937 158.593 112.491C158.821 112.045 159.131 111.702 159.525 111.463C159.921 111.223 160.371 111.102 160.875 111.102C161.376 111.102 161.824 111.223 162.218 111.463C162.614 111.702 162.926 112.045 163.153 112.491C163.38 112.937 163.494 113.47 163.494 114.091ZM162.625 114.091C162.625 113.617 162.548 113.219 162.394 112.895C162.243 112.569 162.035 112.323 161.769 112.156C161.506 111.988 161.208 111.903 160.875 111.903C160.539 111.903 160.24 111.988 159.977 112.156C159.714 112.323 159.505 112.569 159.352 112.895C159.2 113.219 159.125 113.617 159.125 114.091C159.125 114.564 159.2 114.964 159.352 115.29C159.505 115.614 159.714 115.86 159.977 116.028C160.24 116.195 160.539 116.278 160.875 116.278C161.208 116.278 161.506 116.195 161.769 116.028C162.035 115.86 162.243 115.614 162.394 115.29C162.548 114.964 162.625 114.564 162.625 114.091ZM169.284 111.182V117H168.478L165.52 112.733H165.466V117H164.588V111.182H165.401L168.361 115.455H168.415V111.182H169.284ZM173.738 112.71C173.708 112.441 173.583 112.233 173.363 112.085C173.143 111.936 172.867 111.861 172.534 111.861C172.295 111.861 172.089 111.899 171.914 111.974C171.74 112.048 171.605 112.151 171.508 112.281C171.413 112.41 171.366 112.557 171.366 112.722C171.366 112.86 171.398 112.979 171.463 113.08C171.529 113.18 171.615 113.264 171.721 113.332C171.829 113.399 171.945 113.455 172.068 113.5C172.191 113.544 172.309 113.58 172.423 113.608L172.991 113.756C173.177 113.801 173.367 113.863 173.562 113.94C173.757 114.018 173.938 114.12 174.105 114.247C174.271 114.374 174.406 114.531 174.508 114.719C174.612 114.906 174.664 115.131 174.664 115.392C174.664 115.722 174.579 116.014 174.409 116.27C174.24 116.526 173.995 116.727 173.673 116.875C173.353 117.023 172.965 117.097 172.511 117.097C172.075 117.097 171.698 117.027 171.38 116.889C171.062 116.751 170.813 116.555 170.633 116.301C170.453 116.045 170.354 115.742 170.335 115.392H171.215C171.232 115.602 171.301 115.777 171.42 115.918C171.541 116.056 171.696 116.159 171.883 116.227C172.072 116.294 172.28 116.327 172.505 116.327C172.753 116.327 172.974 116.288 173.167 116.21C173.362 116.131 173.516 116.021 173.627 115.881C173.739 115.739 173.795 115.573 173.795 115.384C173.795 115.211 173.746 115.07 173.647 114.96C173.551 114.85 173.419 114.759 173.252 114.688C173.088 114.616 172.901 114.552 172.693 114.497L172.005 114.31C171.539 114.183 171.17 113.996 170.897 113.75C170.626 113.504 170.491 113.178 170.491 112.773C170.491 112.437 170.582 112.145 170.764 111.895C170.946 111.645 171.192 111.451 171.502 111.312C171.813 111.172 172.163 111.102 172.554 111.102C172.947 111.102 173.295 111.171 173.596 111.31C173.899 111.448 174.138 111.638 174.312 111.881C174.486 112.121 174.577 112.398 174.585 112.71H173.738ZM179.455 111.182H180.335V115.009C180.335 115.416 180.24 115.777 180.049 116.091C179.857 116.403 179.588 116.65 179.242 116.83C178.895 117.008 178.489 117.097 178.023 117.097C177.559 117.097 177.154 117.008 176.807 116.83C176.46 116.65 176.192 116.403 176 116.091C175.809 115.777 175.713 115.416 175.713 115.009V111.182H176.591V114.938C176.591 115.201 176.649 115.435 176.764 115.639C176.882 115.844 177.048 116.005 177.262 116.122C177.476 116.238 177.729 116.295 178.023 116.295C178.318 116.295 178.573 116.238 178.787 116.122C179.003 116.005 179.168 115.844 179.281 115.639C179.397 115.435 179.455 115.201 179.455 114.938V111.182ZM181.612 111.182H182.677L184.529 115.705H184.598L186.45 111.182H187.515V117H186.68V112.79H186.626L184.91 116.991H184.217L182.501 112.787H182.447V117H181.612V111.182ZM188.791 117V111.182H192.439V111.938H189.669V113.71H192.249V114.463H189.669V116.244H192.473V117H188.791ZM193.612 117V111.182H195.686C196.136 111.182 196.51 111.259 196.808 111.415C197.107 111.57 197.33 111.785 197.478 112.06C197.626 112.332 197.7 112.648 197.7 113.006C197.7 113.362 197.625 113.675 197.475 113.946C197.328 114.215 197.104 114.424 196.805 114.574C196.508 114.723 196.134 114.798 195.683 114.798H194.112V114.043H195.603C195.887 114.043 196.118 114.002 196.296 113.92C196.476 113.839 196.608 113.721 196.691 113.565C196.775 113.41 196.816 113.223 196.816 113.006C196.816 112.786 196.774 112.596 196.688 112.435C196.605 112.274 196.473 112.151 196.294 112.065C196.116 111.978 195.882 111.935 195.592 111.935H194.49V117H193.612ZM196.484 114.375L197.921 117H196.921L195.512 114.375H196.484ZM201.377 117H200.445L202.539 111.182H203.553L205.647 117H204.715L203.07 112.239H203.024L201.377 117ZM201.533 114.722H204.556V115.46H201.533V114.722ZM206.487 117V111.182H208.561C209.013 111.182 209.388 111.264 209.686 111.429C209.983 111.594 210.205 111.819 210.353 112.105C210.501 112.389 210.575 112.709 210.575 113.065C210.575 113.423 210.5 113.745 210.35 114.031C210.203 114.315 209.979 114.541 209.68 114.707C209.383 114.872 209.009 114.955 208.558 114.955H207.132V114.21H208.478C208.764 114.21 208.996 114.161 209.174 114.062C209.352 113.962 209.483 113.826 209.566 113.653C209.65 113.481 209.691 113.285 209.691 113.065C209.691 112.846 209.65 112.651 209.566 112.48C209.483 112.31 209.351 112.176 209.171 112.08C208.993 111.983 208.759 111.935 208.467 111.935H207.365V117H206.487ZM211.604 117V111.182H213.678C214.13 111.182 214.505 111.264 214.803 111.429C215.1 111.594 215.323 111.819 215.47 112.105C215.618 112.389 215.692 112.709 215.692 113.065C215.692 113.423 215.617 113.745 215.468 114.031C215.32 114.315 215.096 114.541 214.797 114.707C214.5 114.872 214.126 114.955 213.675 114.955H212.249V114.21H213.595C213.881 114.21 214.113 114.161 214.291 114.062C214.469 113.962 214.6 113.826 214.683 113.653C214.767 113.481 214.808 113.285 214.808 113.065C214.808 112.846 214.767 112.651 214.683 112.48C214.6 112.31 214.469 112.176 214.289 112.08C214.111 111.983 213.876 111.935 213.584 111.935H212.482V117H211.604Z" fill="#004158"/>
<g filter="url(#filter1_d_3_683)">
<path opacity="0.3" d="M197.912 315.113C197.666 317.623 196.838 320.041 195.495 322.176C194.152 324.311 192.331 326.104 190.175 327.413C188.019 328.722 185.588 329.511 183.075 329.719C180.561 329.926 178.034 329.545 175.693 328.606C173.352 327.668 171.261 326.197 169.587 324.311C167.913 322.424 166.701 320.174 166.046 317.738C165.392 315.303 165.314 312.748 165.818 310.277C166.322 307.805 167.394 305.485 168.95 303.5H176.75C177.081 303.5 177.399 303.368 177.634 303.134C177.868 302.899 178 302.582 178 302.25V297.688C180.45 297.108 183.001 297.105 185.453 297.68C187.904 298.255 190.188 299.391 192.125 301H186.75C186.418 301 186.1 301.132 185.866 301.366C185.632 301.601 185.5 301.918 185.5 302.25C185.5 302.582 185.632 302.899 185.866 303.134C186.1 303.368 186.418 303.5 186.75 303.5H194.55C195.827 305.134 196.782 306.996 197.362 308.988C196.792 308.672 196.152 308.504 195.5 308.5H189.25C188.255 308.5 187.301 308.895 186.598 309.598C185.895 310.302 185.5 311.255 185.5 312.25C185.5 313.245 185.895 314.198 186.598 314.902C187.301 315.605 188.255 316 189.25 316H195.5C196.383 315.998 197.238 315.683 197.912 315.113V315.113Z" fill="#1A8EB8" fill-opacity="0.4"/>
<path opacity="0.3" d="M185.5 302.25C185.5 301.918 185.632 301.601 185.866 301.366C186.1 301.132 186.418 301 186.75 301H192.125C193.026 301.738 193.839 302.577 194.55 303.5H186.75C186.418 303.5 186.1 303.368 185.866 303.134C185.632 302.899 185.5 302.582 185.5 302.25Z" fill="url(#paint2_linear_3_683)"/>
<path d="M160.5 276H159.25C158.918 276 158.6 275.868 158.366 275.634C158.132 275.399 158 275.082 158 274.75C158 274.418 158.132 274.101 158.366 273.866C158.6 273.632 158.918 273.5 159.25 273.5H160.5C160.831 273.5 161.149 273.632 161.384 273.866C161.618 274.101 161.75 274.418 161.75 274.75C161.75 275.082 161.618 275.399 161.384 275.634C161.149 275.868 160.831 276 160.5 276ZM166.75 276H165.5C165.168 276 164.85 275.868 164.616 275.634C164.382 275.399 164.25 275.082 164.25 274.75C164.25 274.418 164.382 274.101 164.616 273.866C164.85 273.632 165.168 273.5 165.5 273.5H166.75C167.081 273.5 167.399 273.632 167.634 273.866C167.868 274.101 168 274.418 168 274.75C168 275.082 167.868 275.399 167.634 275.634C167.399 275.868 167.081 276 166.75 276ZM173 276H171.75C171.418 276 171.1 275.868 170.866 275.634C170.632 275.399 170.5 275.082 170.5 274.75C170.5 274.418 170.632 274.101 170.866 273.866C171.1 273.632 171.418 273.5 171.75 273.5H173C173.331 273.5 173.649 273.632 173.884 273.866C174.118 274.101 174.25 274.418 174.25 274.75C174.25 275.082 174.118 275.399 173.884 275.634C173.649 275.868 173.331 276 173 276Z" fill="#1A8EB8" fill-opacity="0.4"/>
<path d="M176.75 281H154.25C153.918 281 153.6 280.868 153.366 280.634C153.132 280.399 153 280.082 153 279.75C153 279.418 153.132 279.101 153.366 278.866C153.6 278.632 153.918 278.5 154.25 278.5H176.375L179.812 276.213C180.016 276.076 180.255 276.002 180.5 276H221.75C222.081 276 222.399 276.132 222.634 276.366C222.868 276.601 223 276.918 223 277.25C223 277.582 222.868 277.899 222.634 278.134C222.399 278.368 222.081 278.5 221.75 278.5H180.875L177.437 280.787C177.234 280.924 176.995 280.998 176.75 281Z" fill="#4A4A4A" fill-opacity="0.9"/>
<path d="M173 297.25V302.25C173 302.582 172.868 302.899 172.634 303.134C172.399 303.368 172.081 303.5 171.75 303.5H169.25C169.159 303.513 169.066 303.513 168.975 303.5C168.693 303.436 168.442 303.277 168.264 303.049C168.086 302.821 167.993 302.539 168 302.25V297.25C168 296.918 168.132 296.601 168.366 296.366C168.6 296.132 168.918 296 169.25 296H171.75C172.081 296 172.399 296.132 172.634 296.366C172.868 296.601 173 296.918 173 297.25Z" fill="#1A8EB8" fill-opacity="0.4"/>
<path d="M214.25 291H186.75C186.418 291 186.1 290.868 185.866 290.634C185.632 290.399 185.5 290.082 185.5 289.75C185.5 289.418 185.632 289.101 185.866 288.866C186.1 288.632 186.418 288.5 186.75 288.5H214.25C214.581 288.5 214.899 288.632 215.134 288.866C215.368 289.101 215.5 289.418 215.5 289.75C215.5 290.082 215.368 290.399 215.134 290.634C214.899 290.868 214.581 291 214.25 291ZM214.25 297.25H186.75C186.418 297.25 186.1 297.118 185.866 296.884C185.632 296.649 185.5 296.332 185.5 296C185.5 295.668 185.632 295.351 185.866 295.116C186.1 294.882 186.418 294.75 186.75 294.75H214.25C214.581 294.75 214.899 294.882 215.134 295.116C215.368 295.351 215.5 295.668 215.5 296C215.5 296.332 215.368 296.649 215.134 296.884C214.899 297.118 214.581 297.25 214.25 297.25ZM209.25 302.25C209.25 302.582 209.118 302.899 208.884 303.134C208.649 303.368 208.331 303.5 208 303.5H186.75C186.418 303.5 186.1 303.368 185.866 303.134C185.632 302.899 185.5 302.582 185.5 302.25C185.5 301.918 185.632 301.601 185.866 301.366C186.1 301.132 186.418 301 186.75 301H208C208.331 301 208.649 301.132 208.884 301.366C209.118 301.601 209.25 301.918 209.25 302.25Z" fill="#4A4A4A" fill-opacity="0.9"/>
<path d="M211.75 316H205.5C204.505 316 203.551 315.605 202.848 314.902C202.145 314.198 201.75 313.245 201.75 312.25C201.75 311.255 202.145 310.302 202.848 309.598C203.551 308.895 204.505 308.5 205.5 308.5H211.75C212.744 308.5 213.698 308.895 214.402 309.598C215.105 310.302 215.5 311.255 215.5 312.25C215.5 313.245 215.105 314.198 214.402 314.902C213.698 315.605 212.744 316 211.75 316ZM205.5 311C205.168 311 204.85 311.132 204.616 311.366C204.382 311.601 204.25 311.918 204.25 312.25C204.25 312.582 204.382 312.899 204.616 313.134C204.85 313.368 205.168 313.5 205.5 313.5H211.75C212.081 313.5 212.399 313.368 212.634 313.134C212.868 312.899 213 312.582 213 312.25C213 311.918 212.868 311.601 212.634 311.366C212.399 311.132 212.081 311 211.75 311H205.5ZM197.362 308.987C196.792 308.672 196.152 308.504 195.5 308.5H189.25C188.255 308.5 187.301 308.895 186.598 309.598C185.895 310.302 185.5 311.255 185.5 312.25C185.5 313.245 185.895 314.198 186.598 314.902C187.301 315.605 188.255 316 189.25 316H195.5C196.494 316 197.448 315.605 198.152 314.902C198.855 314.198 199.25 313.245 199.25 312.25C199.251 311.588 199.077 310.937 198.746 310.364C198.414 309.791 197.937 309.316 197.362 308.987ZM195.5 313.5H189.25C188.918 313.5 188.6 313.368 188.366 313.134C188.132 312.899 188 312.582 188 312.25C188 311.918 188.132 311.601 188.366 311.366C188.6 311.132 188.918 311 189.25 311H195.5C195.831 311 196.149 311.132 196.384 311.366C196.618 311.601 196.75 311.918 196.75 312.25C196.75 312.582 196.618 312.899 196.384 313.134C196.149 313.368 195.831 313.5 195.5 313.5Z" fill="#1A8EB8" fill-opacity="0.4"/>
<path d="M221.75 323.5H154.25C153.918 323.5 153.6 323.368 153.366 323.134C153.132 322.899 153 322.582 153 322.25V269.75C153 269.418 153.132 269.101 153.366 268.866C153.6 268.632 153.918 268.5 154.25 268.5H221.75C222.081 268.5 222.399 268.632 222.634 268.866C222.868 269.101 223 269.418 223 269.75V322.25C223 322.582 222.868 322.899 222.634 323.134C222.399 323.368 222.081 323.5 221.75 323.5ZM155.5 321H220.5V271H155.5V321Z" fill="#4A4A4A" fill-opacity="0.9"/>
</g>
<path d="M211.318 302.648C211.318 302.952 211.221 303.249 211.039 303.502C210.856 303.755 210.597 303.952 210.294 304.068C209.991 304.184 209.657 304.215 209.335 304.155C209.014 304.096 208.718 303.95 208.486 303.735C208.254 303.52 208.096 303.246 208.032 302.948C207.968 302.65 208.001 302.341 208.126 302.06C208.252 301.779 208.464 301.539 208.737 301.371C209.01 301.202 209.331 301.112 209.659 301.112C210.099 301.113 210.519 301.276 210.83 301.564C211.141 301.851 211.316 302.241 211.318 302.648V302.648Z" fill="#2F2E41"/>
<path d="M278.341 201.537H277.94H276.744L272.147 201.581L255.016 201.658L255.196 201.492C255.196 216.351 255.196 238.036 255.196 262.141C255.147 276.93 255.106 290.804 255.071 302.603V302.821H254.836L222.123 302.731L212.943 302.674L210.523 302.635H209.908C209.903 302.66 209.888 302.683 209.866 302.698C209.844 302.713 209.816 302.721 209.789 302.718C209.762 302.716 209.736 302.704 209.718 302.685C209.699 302.666 209.689 302.642 209.689 302.616C209.689 302.591 209.699 302.566 209.718 302.547C209.736 302.528 209.762 302.517 209.789 302.514C209.816 302.512 209.844 302.519 209.866 302.534C209.888 302.55 209.903 302.572 209.908 302.597H210.523L212.943 302.559L222.123 302.501L254.836 302.411L254.594 302.629C254.594 290.83 254.594 276.956 254.65 262.166C254.733 238.062 254.816 216.377 254.864 201.517V201.338H255.051L272.181 201.415L276.778 201.46H277.974C278.099 201.472 278.222 201.498 278.341 201.537Z" fill="#1A8EB8"/>
<path d="M280 201.537C280 201.84 279.903 202.138 279.72 202.39C279.538 202.643 279.279 202.84 278.976 202.956C278.672 203.072 278.339 203.103 278.017 203.044C277.695 202.984 277.4 202.838 277.167 202.623C276.935 202.408 276.777 202.134 276.713 201.836C276.649 201.538 276.682 201.229 276.808 200.949C276.933 200.668 277.146 200.428 277.419 200.259C277.692 200.09 278.013 200 278.341 200C278.781 200 279.203 200.162 279.514 200.45C279.825 200.738 280 201.129 280 201.537V201.537Z" fill="#2F2E41"/>
<path d="M300.318 251.648C300.318 251.952 300.221 252.249 300.039 252.502C299.856 252.755 299.597 252.952 299.294 253.068C298.991 253.184 298.657 253.215 298.335 253.155C298.014 253.096 297.718 252.95 297.486 252.735C297.254 252.52 297.096 252.246 297.032 251.948C296.968 251.65 297.001 251.341 297.126 251.06C297.252 250.779 297.464 250.539 297.737 250.371C298.01 250.202 298.331 250.112 298.659 250.112C299.099 250.113 299.519 250.276 299.83 250.564C300.141 250.851 300.316 251.241 300.318 251.648V251.648Z" fill="#2F2E41"/>
<path d="M367.341 150.537H366.94H365.744L361.147 150.581L344.016 150.658L344.196 150.492C344.196 165.351 344.196 187.036 344.196 211.141C344.147 225.93 344.106 239.804 344.071 251.603V251.821H343.836L311.123 251.731L301.943 251.674L299.523 251.635H298.908C298.903 251.66 298.888 251.683 298.866 251.698C298.844 251.713 298.816 251.721 298.789 251.718C298.762 251.716 298.736 251.704 298.718 251.685C298.699 251.666 298.689 251.642 298.689 251.616C298.689 251.591 298.699 251.566 298.718 251.547C298.736 251.528 298.762 251.517 298.789 251.514C298.816 251.512 298.844 251.519 298.866 251.534C298.888 251.55 298.903 251.572 298.908 251.597H299.523L301.943 251.559L311.123 251.501L343.836 251.411L343.594 251.629C343.594 239.83 343.594 225.956 343.65 211.166C343.733 187.062 343.816 165.377 343.864 150.517V150.338H344.051L361.181 150.415L365.778 150.46H366.974C367.099 150.472 367.222 150.498 367.341 150.537Z" fill="#1A8EB8"/>
<path d="M369 150.537C369 150.84 368.903 151.138 368.72 151.39C368.538 151.643 368.279 151.84 367.976 151.956C367.672 152.072 367.339 152.103 367.017 152.044C366.695 151.984 366.4 151.838 366.167 151.623C365.935 151.408 365.777 151.134 365.713 150.836C365.649 150.538 365.682 150.229 365.808 149.949C365.933 149.668 366.146 149.428 366.419 149.259C366.692 149.09 367.013 149 367.341 149C367.781 149 368.203 149.162 368.514 149.45C368.825 149.738 369 150.129 369 150.537V150.537Z" fill="#2F2E41"/>
<path d="M299.4 211.223C299.392 211.123 299.392 211.022 299.4 210.921C299.4 210.693 299.4 210.405 299.4 210.036C299.4 209.218 299.4 208.068 299.354 206.594C299.354 203.556 299.314 199.221 299.28 193.751C299.28 182.774 299.227 167.418 299.187 149.769L299.44 150.049H281.78L230.038 149.99L214.357 149.895L210.092 149.843H208.979C208.855 149.856 208.73 149.856 208.606 149.843C208.73 149.825 208.855 149.825 208.979 149.843H210.092L214.357 149.784L230.038 149.696L281.78 149.474H299.394H299.654V149.755C299.614 167.403 299.58 182.76 299.56 193.737C299.527 199.185 299.5 203.542 299.487 206.579C299.487 208.053 299.454 209.203 299.44 210.022C299.44 210.39 299.44 210.678 299.44 210.906C299.445 211.014 299.431 211.121 299.4 211.223V211.223Z" fill="#1A8EB8"/>
<path d="M301 211.223C301.001 211.574 300.908 211.916 300.733 212.208C300.559 212.5 300.309 212.728 300.017 212.863C299.725 212.998 299.403 213.034 299.092 212.967C298.782 212.899 298.496 212.732 298.272 212.484C298.047 212.237 297.894 211.922 297.832 211.579C297.77 211.235 297.801 210.879 297.922 210.555C298.043 210.232 298.248 209.955 298.511 209.76C298.774 209.565 299.084 209.461 299.4 209.461C299.823 209.461 300.229 209.647 300.529 209.977C300.829 210.307 300.998 210.755 301 211.223V211.223Z" fill="#2F2E41"/>
<path d="M210.199 149.769C210.199 150.12 210.105 150.462 209.929 150.753C209.753 151.044 209.502 151.271 209.21 151.405C208.917 151.538 208.595 151.573 208.285 151.504C207.974 151.435 207.689 151.266 207.466 151.018C207.243 150.77 207.091 150.454 207.03 150.11C206.969 149.766 207.001 149.41 207.124 149.087C207.246 148.764 207.452 148.488 207.716 148.295C207.979 148.101 208.289 147.999 208.606 148C208.816 148 209.023 148.046 209.217 148.135C209.411 148.224 209.587 148.354 209.735 148.519C209.883 148.683 210 148.878 210.079 149.093C210.159 149.307 210.2 149.537 210.199 149.769V149.769Z" fill="#2F2E41"/>
<defs>
<filter id="filter0_d_3_683" x="141.5" y="112.5" width="87" height="147.69" filterUnits="userSpaceOnUse" color-interpolation-filters="sRGB">
<feFlood flood-opacity="0" result="BackgroundImageFix"/>
<feColorMatrix in="SourceAlpha" type="matrix" values="0 0 0 0 0 0 0 0 0 0 0 0 0 0 0 0 0 0 127 0" result="hardAlpha"/>
<feOffset dy="4"/>
<feGaussianBlur stdDeviation="7.5"/>
<feComposite in2="hardAlpha" operator="out"/>
<feColorMatrix type="matrix" values="0 0 0 0 0.4875 0 0 0 0 0.4875 0 0 0 0 0.4875 0 0 0 0.4 0"/>
<feBlend mode="normal" in2="BackgroundImageFix" result="effect1_dropShadow_3_683"/>
<feBlend mode="normal" in="SourceGraphic" in2="effect1_dropShadow_3_683" result="shape"/>
</filter>
<filter id="filter1_d_3_683" x="146" y="256" width="84" height="86" filterUnits="userSpaceOnUse" color-interpolation-filters="sRGB">
<feFlood flood-opacity="0" result="BackgroundImageFix"/>
<feColorMatrix in="SourceAlpha" type="matrix" values="0 0 0 0 0 0 0 0 0 0 0 0 0 0 0 0 0 0 127 0" result="hardAlpha"/>
<feOffset dy="4"/>
<feGaussianBlur stdDeviation="1"/>
<feComposite in2="hardAlpha" operator="out"/>
<feColorMatrix type="matrix" values="0 0 0 0 0 0 0 0 0 0 0 0 0 0 0 0 0 0 0.25 0"/>
<feBlend mode="normal" in2="BackgroundImageFix" result="effect1_dropShadow_3_683"/>
<feBlend mode="normal" in="SourceGraphic" in2="effect1_dropShadow_3_683" result="shape"/>
</filter>
<linearGradient id="paint0_linear_3_683" x1="213.5" y1="234.5" x2="189.5" y2="370.5" gradientUnits="userSpaceOnUse">
<stop stop-color="#006A51" stop-opacity="0.4"/>
<stop offset="1" stop-color="#006A51" stop-opacity="0"/>
</linearGradient>
<linearGradient id="paint1_linear_3_683" x1="212" y1="258" x2="250" y2="45.5" gradientUnits="userSpaceOnUse">
<stop stop-color="#006A51" stop-opacity="0.4"/>
<stop offset="1" stop-color="#006A51" stop-opacity="0"/>
</linearGradient>
<linearGradient id="paint2_linear_3_683" x1="185.5" y1="302.25" x2="194.55" y2="302.25" gradientUnits="userSpaceOnUse">
<stop stop-color="#00749E" stop-opacity="0.38"/>
<stop offset="0.62" stop-color="#1A8EB8"/>
<stop offset="1" stop-color="#00394D"/>
</linearGradient>
<clipPath id="clip0_3_683">
<rect width="60" height="60" fill="white" transform="translate(269 195)"/>
</clipPath>
</defs>
</svg>
