<svg viewBox="0 0 22 20" fill="none" xmlns="http://www.w3.org/2000/svg">
<g clip-path="url(#clip0_9_56)">
<path d="M0.0399952 15.5195C0.106647 15.4128 0.213294 15.4062 0.359957 15.4995C3.69288 17.4326 7.31912 18.3991 11.2387 18.3991C13.8517 18.3991 16.4313 17.9125 18.9777 16.9393C19.0444 16.9127 19.141 16.8727 19.2677 16.8193C19.3943 16.766 19.4843 16.726 19.5377 16.6993C19.7376 16.6193 19.8943 16.6593 20.0076 16.8193C20.1209 16.9793 20.0842 17.1259 19.8976 17.2593C19.6576 17.4326 19.351 17.6326 18.9777 17.8592C17.8312 18.5391 16.5513 19.0657 15.1382 19.439C13.725 19.8123 12.3452 19.9989 10.9987 19.9989C8.91893 19.9989 6.95249 19.6356 5.09939 18.9091C3.24627 18.1825 1.58647 17.1593 0.119986 15.8394C0.0399952 15.7728 0 15.7061 0 15.6395C0 15.5995 0.0133184 15.5595 0.0399952 15.5195ZM6.05927 9.82016C6.05927 8.90027 6.28591 8.11371 6.73919 7.46045C7.19246 6.80719 7.81238 6.31392 8.59897 5.98063C9.31888 5.674 10.2054 5.45403 11.2586 5.3207C11.6186 5.28071 12.2052 5.22738 13.0184 5.16072V4.82076C13.0184 3.96753 12.9251 3.39428 12.7385 3.10097C12.4585 2.70102 12.0186 2.50104 11.4186 2.50104H11.2586C10.8187 2.54104 10.4387 2.68102 10.1188 2.92099C9.79882 3.16096 9.59217 3.49426 9.49886 3.92087C9.44553 4.1875 9.3122 4.34082 9.09891 4.38082L6.79918 4.10085C6.57253 4.04752 6.45922 3.92753 6.45922 3.74089C6.45922 3.7009 6.46588 3.65424 6.47922 3.60091C6.70585 2.41439 7.26245 1.5345 8.14902 0.961228C9.03558 0.387956 10.0721 0.0679948 11.2586 0.00134277H11.7586C13.2784 0.00134277 14.4649 0.394636 15.3182 1.1812C15.452 1.31513 15.5757 1.45884 15.6881 1.61115C15.8014 1.76447 15.8914 1.90111 15.9581 2.0211C16.0247 2.14109 16.0847 2.31441 16.1381 2.54104C16.1914 2.76767 16.2314 2.92433 16.258 3.01098C16.2847 3.09763 16.3047 3.28429 16.318 3.57091C16.3314 3.85754 16.338 4.02752 16.338 4.08085V8.92027C16.338 9.26689 16.388 9.58353 16.488 9.87016C16.588 10.1568 16.6847 10.3634 16.778 10.4901C16.8713 10.6167 17.0246 10.82 17.2379 11.1C17.3179 11.22 17.3579 11.3266 17.3579 11.42C17.3579 11.5266 17.3046 11.6199 17.1979 11.6999C16.0914 12.6598 15.4915 13.1798 15.3982 13.2598C15.2382 13.3797 15.0449 13.3931 14.8182 13.2997C14.6316 13.1398 14.4683 12.9864 14.3283 12.8398C14.1883 12.6932 14.0883 12.5865 14.0283 12.5198C13.9683 12.4532 13.8717 12.3232 13.7384 12.1299C13.605 11.9366 13.5117 11.8066 13.4584 11.7399C12.7118 12.5532 11.9786 13.0598 11.2586 13.2598C10.8054 13.3931 10.2454 13.4597 9.57885 13.4597C8.55229 13.4597 7.70907 13.1431 7.04915 12.5098C6.38923 11.8766 6.05927 10.98 6.05927 9.82016ZM9.49886 9.42021C9.49886 9.94015 9.62884 10.3568 9.88881 10.6701C10.1488 10.9834 10.4987 11.14 10.9387 11.14C10.9787 11.14 11.0353 11.1333 11.1087 11.12C11.182 11.1067 11.232 11.1 11.2586 11.1C11.8186 10.9534 12.2518 10.5934 12.5585 10.0201C12.7051 9.76683 12.8151 9.4902 12.8885 9.19024C12.9618 8.89028 13.0018 8.64697 13.0084 8.46033C13.0151 8.27369 13.0184 7.96705 13.0184 7.54044V7.0405C12.2452 7.0405 11.6586 7.09383 11.2586 7.20048C10.0854 7.53378 9.49886 8.27369 9.49886 9.42021ZM17.8979 15.8594C17.9245 15.8061 17.9645 15.7528 18.0178 15.6995C18.3511 15.4728 18.6711 15.3195 18.9777 15.2395C19.4843 15.1062 19.9776 15.0329 20.4575 15.0195C20.5908 15.0062 20.7175 15.0129 20.8375 15.0395C21.4374 15.0929 21.7974 15.1929 21.9174 15.3395C21.9707 15.4195 21.9974 15.5395 21.9974 15.6995V15.8394C21.9974 16.306 21.8707 16.856 21.6174 17.4892C21.3641 18.1225 21.0108 18.6324 20.5575 19.0191C20.4909 19.0724 20.4309 19.099 20.3776 19.099C20.3509 19.099 20.3242 19.0924 20.2976 19.0791C20.2176 19.0391 20.1976 18.9657 20.2376 18.8591C20.7308 17.6992 20.9775 16.8927 20.9775 16.4394C20.9775 16.2927 20.9508 16.1861 20.8975 16.1194C20.7642 15.9594 20.3909 15.8794 19.7776 15.8794C19.551 15.8794 19.2843 15.8928 18.9777 15.9194C18.6444 15.9594 18.3378 15.9994 18.0578 16.0394C17.9778 16.0394 17.9245 16.0261 17.8979 15.9994C17.8712 15.9728 17.8645 15.9461 17.8779 15.9194C17.8779 15.9061 17.8845 15.8861 17.8979 15.8594Z" fill="rgb(var(--gray-inverse))"/>
</g>
</svg>
