<svg viewBox="0 0 21 22" fill="none" xmlns="http://www.w3.org/2000/svg">
<path d="M9.58903 21.9317L1.77481 19.7624L0.0334473 0.230957H19.168L17.4248 19.7593L9.58903 21.9317Z" fill="#264DE4"/>
<path d="M15.9323 18.5155L17.422 1.82764H9.60059V20.2709L15.9323 18.5155Z" fill="#2965F1"/>
<path d="M4.02539 9.07178L4.24009 11.4672H9.60064V9.07178H4.02539Z" fill="#EBEBEB"/>
<path d="M3.59399 4.22314L3.81175 6.61862H9.60064V4.22314H3.59399Z" fill="#EBEBEB"/>
<path d="M9.60069 15.2931L9.5902 15.2959L6.92237 14.5755L6.75182 12.665H4.34717L4.68277 16.4262L9.58967 17.7884L9.60069 17.7854V15.2931Z" fill="#EBEBEB"/>
<path d="M15.1605 9.07159L15.5929 4.22314H9.59229V6.61862H12.9677L12.7497 9.07159H9.59229V11.467H12.542L12.264 14.5737L9.59229 15.2948V17.787L14.5031 16.426L14.5391 16.0213L15.102 9.71484L15.1605 9.07159Z" fill="white"/>
</svg>
