<svg viewBox="0 0 24 24" fill="none" xmlns="http://www.w3.org/2000/svg">
<path d="M12.5409 1.00001C12.2792 1.00001 12.0167 1.1037 11.8143 1.30449C11.8112 1.30756 11.8074 1.30899 11.8043 1.3121L5 5.3085L11.7868 12.2052V12.2103L19.9444 20.5L21.5 17.653L15.8919 3.97128L13.2751 1.3121C13.0715 1.10518 12.8067 1 12.541 1L12.5409 1.00001Z" fill="#66C3FA"/>
<path d="M5.30795 5L1.31277 11.7806C1.30965 11.7837 1.30827 11.7875 1.30516 11.7906C1.10431 11.9925 1.00004 12.2565 1 12.5176C0.999953 12.7826 1.10457 13.0444 1.31148 13.2475L4.62274 16.5005L17.5727 21.5L20.5 19.9036L20.4214 19.8264L20.4011 19.8289L12.2828 11.8475L12.2726 11.8475L5.3079 5.00015L5.30795 5Z" fill="#215896"/>
<path d="M5 5L11.9467 11.9736L11.9568 11.9736L19.9522 20L22.9954 19.4179L23 10.3885L19.7864 7.23006C19.0826 6.53821 18.0009 6.09238 16.9141 5.94585L16.9166 5.91077L5.00053 5.00008L5 5Z" fill="#235997"/>
<path d="M5 5.00021L11.9736 11.9494V11.9594L20 19.9576L19.4159 23H10.3819L7.22342 19.7852C6.53158 19.0811 6.0861 17.9993 5.94003 16.9126L5.90494 16.9151L5 5V5.00021Z" fill="#58B6F0"/>
</svg>
