<svg viewBox="0 0 24 24" fill="none" xmlns="http://www.w3.org/2000/svg">
<g clip-path="url(#clip0_136_51)">
<path d="M0 0H24V24H0V0Z" fill="#F0DB4F"/>
<path d="M22.0359 18.2762C21.8602 17.1811 21.1461 16.2618 19.0313 15.404C18.2967 15.0663 17.4777 14.8245 17.2336 14.2678C17.1469 13.9439 17.1355 13.7614 17.1902 13.5652C17.3476 12.9287 18.1073 12.7302 18.7096 12.9127C19.0975 13.0427 19.4648 13.3416 19.6861 13.8184C20.7218 13.1477 20.7195 13.1523 21.4427 12.6914C21.1781 12.2808 21.0366 12.0914 20.8632 11.9158C20.2404 11.22 19.3918 10.8618 18.0343 10.8892C17.7994 10.9188 17.5621 10.9507 17.3271 10.9804C16.6496 11.1515 16.0039 11.5074 15.6252 11.9842C14.4891 13.2732 14.813 15.5294 16.1956 16.458C17.5575 17.48 19.5583 17.7127 19.8138 18.6686C20.0625 19.839 18.9538 20.2177 17.8518 20.0831C17.0397 19.9143 16.588 19.5013 16.0997 18.7508C15.2009 19.2709 15.2009 19.2709 14.2769 19.8025C14.496 20.2816 14.7264 20.4983 15.0937 20.9135C16.8321 22.677 21.1826 22.5903 21.9629 19.9211C21.9948 19.8298 22.2047 19.2184 22.0359 18.2762V18.2762ZM13.0473 11.0306H10.8024C10.8024 12.9697 10.7933 14.8952 10.7933 16.8344C10.7933 18.0686 10.8572 19.2002 10.6564 19.5469C10.3279 20.229 9.47695 20.1446 9.08912 20.0123C8.69444 19.8184 8.49368 19.5423 8.26098 19.1523C8.1971 19.0405 8.14919 18.9538 8.1332 18.9469C7.5241 19.3188 6.91723 19.6929 6.30811 20.0648C6.61155 20.6876 7.05868 21.2283 7.6313 21.5796C8.48681 22.0929 9.63662 22.2503 10.8389 21.9743C11.6214 21.7461 12.2967 21.2739 12.6503 20.5553C13.1613 19.6131 13.0518 18.4724 13.0473 17.2108C13.0587 15.153 13.0473 13.0952 13.0473 11.0306Z" fill="#323330"/>
</g>
</svg>
