<svg viewBox="0 0 24 24" fill="none" xmlns="http://www.w3.org/2000/svg">
<g clip-path="url(#clip0_9_38)">
<path fill-rule="evenodd" clip-rule="evenodd" d="M22.1068 18.6947C20.8015 18.6583 19.7889 18.7921 18.9401 19.1492C18.6957 19.2473 18.3035 19.2473 18.2714 19.5549C18.402 19.684 18.4177 19.8952 18.5322 20.0741C18.7279 20.3988 19.0711 20.8361 19.3809 21.063L20.4254 21.8094C21.062 22.1984 21.7801 22.4257 22.4002 22.8151C22.7595 23.0423 23.1184 23.3342 23.4776 23.5778C23.6605 23.7076 23.7714 23.9189 24 23.9996V23.9505C23.8859 23.8051 23.853 23.5942 23.7392 23.4313L23.249 22.9612C22.7759 22.3286 22.188 21.7767 21.5515 21.323C21.0291 20.9659 19.8869 20.4795 19.6747 19.8796L19.6425 19.8432C20.001 19.8069 20.4254 19.6807 20.7686 19.5833C21.3239 19.4378 21.8295 19.4698 22.4002 19.324L23.1842 19.0968V18.9514C22.8904 18.6594 22.6783 18.27 22.3684 17.9945C21.5361 17.2808 20.6215 16.5831 19.6747 15.9992C19.1688 15.6749 18.5157 15.4636 17.9772 15.1884C17.7808 15.091 17.4548 15.0423 17.3407 14.8801C17.0462 14.5238 16.8834 14.053 16.6712 13.6309L15.3329 10.8085C15.0392 10.1758 14.8592 9.54323 14.5006 8.95934C12.8192 6.20164 10.9908 4.53103 8.18332 2.89241C7.57969 2.55175 6.86154 2.40522 6.09804 2.22707L4.87393 2.16163C4.61236 2.0482 4.35152 1.73989 4.12287 1.59373C3.19254 1.00984 0.792997 -0.255395 0.107047 1.41195C-0.33379 2.4663 0.760069 3.5043 1.1314 4.03984C1.40943 4.41287 1.76796 4.83461 1.96441 5.25636C2.07417 5.53194 2.11075 5.82426 2.22526 6.1162C2.4861 6.8299 2.73122 7.62503 3.07401 8.29036C3.25693 8.63103 3.44899 8.98842 3.67764 9.29637C3.80825 9.47815 4.03689 9.55596 4.08555 9.84791C3.8569 10.1726 3.84117 10.6587 3.71057 11.0648C3.12266 12.8979 3.35131 15.1688 4.1836 16.5184C4.44517 16.9237 5.06161 17.8163 5.89792 17.4753C6.63253 17.1833 6.46863 16.2588 6.68082 15.4476C6.73021 15.2531 6.69728 15.1233 6.79496 14.9932V15.0295L7.46445 16.3758C7.97041 17.1706 8.85208 17.9981 9.58632 18.55C9.97777 18.8419 10.288 19.3451 10.7775 19.5233V19.4742H10.7453C10.6473 19.3288 10.5002 19.2633 10.3696 19.1499C10.0758 18.8579 9.74948 18.5009 9.52083 18.1766C8.83562 17.2684 8.23198 16.2624 7.6931 15.2244C7.43152 14.7216 7.20287 14.17 6.99142 13.6672C6.89264 13.4724 6.89264 13.18 6.72984 13.0833C6.48473 13.4396 6.12621 13.7487 5.94585 14.1864C5.63562 14.8837 5.60342 15.7436 5.48928 16.6358C5.42343 16.6522 5.4527 16.6358 5.42343 16.6721C4.90174 16.5427 4.72175 16.0068 4.52603 15.5531C4.03653 14.4013 3.95458 12.5522 4.37896 11.2218C4.4931 10.8812 4.98332 9.81046 4.7876 9.48615C4.68882 9.17784 4.36322 8.99969 4.18323 8.7561C3.97104 8.44779 3.74313 8.05877 3.59606 7.7181C3.20461 6.80917 3.00889 5.8039 2.58415 4.89533C2.38769 4.47359 2.04527 4.03548 1.76759 3.64646C1.45736 3.20835 1.1153 2.90005 0.870188 2.38123C0.788606 2.19944 0.674464 1.91077 0.805068 1.71589C0.837262 1.5861 0.903114 1.53411 1.03299 1.50502C1.24517 1.32323 1.84954 1.55374 2.06173 1.65045C2.66536 1.89404 3.17132 2.12091 3.67727 2.46122C3.90592 2.62337 4.15104 2.93168 4.44481 3.01312H4.78796C5.31038 3.12655 5.89756 3.04948 6.38669 3.1949C7.2519 3.47122 8.03516 3.87624 8.73757 4.3147C10.8755 5.66101 12.6389 7.57522 13.8301 9.86281C14.0258 10.2358 14.1074 10.5765 14.2874 10.9659C14.6305 11.761 15.0549 12.5718 15.397 13.3509C15.7401 14.1133 16.0664 14.8925 16.5559 15.5251C16.801 15.8657 17.78 16.0439 18.2205 16.2224C18.5472 16.3678 19.0528 16.4987 19.3473 16.6769C19.9019 17.0175 20.4569 17.4069 20.9789 17.78C21.2398 17.9741 22.0563 18.3798 22.105 18.7034L22.1068 18.6947ZM5.46111 4.59829C5.23559 4.59631 5.01078 4.62356 4.79236 4.67937V4.71572H4.82455C4.95515 4.97532 5.18381 5.15383 5.34697 5.38106L5.72269 6.15983L5.75488 6.12347C5.98353 5.96132 6.09804 5.70173 6.09804 5.31271C5.99999 5.19927 5.98389 5.08548 5.90231 4.97204C5.80427 4.80989 5.59208 4.72845 5.46111 4.59902V4.59829Z" fill="#00678C"/>
</g>
<defs>
<clipPath id="clip0_9_38">
<rect width="24" height="24" fill="white"/>
</clipPath>
</defs>
</svg>
