<svg viewBox="0 0 24 24" fill="none" xmlns="http://www.w3.org/2000/svg">
<path d="M9.64524 1.00007C7.90725 1.00007 6.49992 2.4074 6.49992 4.14539V5.99304H11.2179C11.6469 5.99304 11.9999 6.62107 11.9999 7.05007H4.14532C2.40733 7.05007 1 8.4574 1 10.1954V14.3547C1 16.0927 2.40733 17.5 4.14532 17.5H5.44298V14.5524C5.44298 12.8144 6.84173 11.407 8.57972 11.407H14.3547C16.0927 11.407 17.5 10.0083 17.5 8.27029V4.14532C17.5 2.40733 16.0927 1 14.3547 1L9.64524 1.00007ZM8.85462 2.77039C9.29462 2.77039 9.64524 2.90343 9.64524 3.55242C9.64524 4.20142 9.29462 4.5321 8.85462 4.5321C8.42562 4.5321 8.07259 4.20142 8.07259 3.55242C8.07259 2.90343 8.42562 2.77039 8.85462 2.77039Z" fill="#3C78AA"/>
<path d="M18.5549 6.5V9.44767C18.5549 11.1857 17.1583 12.593 15.4203 12.593H9.64534C7.90734 12.593 6.5 13.9896 6.5 15.7276V19.8526C6.49962 20.6871 6.83081 21.4875 7.4207 22.0778C8.01059 22.6681 8.81083 22.9998 9.64534 23H14.3546C15.1892 22.9998 15.9894 22.6681 16.5793 22.0778C17.1692 21.4875 17.5004 20.6871 17.5 19.8526V18.0049H12.7799C12.3509 18.0049 12 17.379 12 16.95H19.8547C20.6892 16.9498 21.4894 16.6181 22.0793 16.0278C22.6692 15.4376 23.0004 14.6371 23 13.8026V9.64536C22.9996 7.90839 21.5916 6.50039 19.8547 6.50002L18.5549 6.5ZM7.95233 11.4651L7.94804 11.4694C7.96122 11.4667 7.97562 11.4676 7.98886 11.4651H7.95233ZM15.1453 19.468C15.5743 19.468 15.9274 19.7987 15.9274 20.4477C15.9267 20.879 15.5766 21.2281 15.1453 21.2276C14.7053 21.2276 14.3547 21.0967 14.3547 20.4477C14.3547 19.7987 14.7053 19.468 15.1453 19.468Z" fill="#FDD835"/>
</svg>
