<svg viewBox="0 0 25 22" fill="none" xmlns="http://www.w3.org/2000/svg">
<g clip-path="url(#clip0_9_12)">
<path d="M20.3098 7.12333C20.0535 7.03513 19.788 6.95168 19.5146 6.87276C19.5596 6.68936 19.6008 6.50834 19.6375 6.3304C20.2394 3.40854 19.8458 1.05467 18.5019 0.279679C17.2133 -0.463437 15.1058 0.311381 12.9774 2.1637C12.7727 2.34182 12.5675 2.5304 12.3623 2.72804C12.2256 2.59727 12.0891 2.47091 11.953 2.35004C9.72233 0.36942 7.48643 -0.46524 6.14385 0.311996C4.85644 1.05727 4.47519 3.27013 5.01701 6.0392C5.06934 6.30666 5.1305 6.57979 5.19966 6.8575C4.88322 6.94733 4.57772 7.04309 4.28542 7.14497C1.6702 8.05675 0 9.48573 0 10.968C0 12.4988 1.79296 14.0343 4.51691 14.9653C4.73188 15.0388 4.95493 15.1083 5.1848 15.1742C5.11018 15.4746 5.04529 15.7689 4.99081 16.056C4.47418 18.777 4.87763 20.9376 6.16161 21.6781C7.48784 22.4429 9.71363 21.6568 11.881 19.7623C12.0523 19.6125 12.2242 19.4537 12.3964 19.2873C12.6197 19.5022 12.8425 19.7057 13.0642 19.8965C15.1636 21.703 17.237 22.4325 18.5198 21.6899C19.8447 20.9229 20.2753 18.6019 19.7163 15.7781C19.6736 15.5624 19.6239 15.3421 19.5681 15.1178C19.7244 15.0716 19.8778 15.0239 20.0275 14.9743C22.8593 14.0361 24.7018 12.5193 24.7018 10.968C24.7018 9.48037 22.9777 8.04175 20.3098 7.12333ZM19.6956 13.9727C19.5605 14.0174 19.4219 14.0606 19.2807 14.1025C18.9681 13.1128 18.5462 12.0604 18.0298 10.9731C18.5226 9.9117 18.9282 8.87276 19.232 7.88949C19.4847 7.96261 19.73 8.03973 19.9663 8.12112C22.2522 8.90803 23.6465 10.0715 23.6465 10.968C23.6465 11.9229 22.1407 13.1625 19.6956 13.9727ZM18.6811 15.983C18.9283 17.2317 18.9636 18.3606 18.7998 19.2432C18.6527 20.0362 18.3568 20.5649 17.991 20.7767C17.2125 21.2272 15.5478 20.6415 13.7524 19.0966C13.5466 18.9195 13.3393 18.7303 13.1313 18.5302C13.8273 17.769 14.523 16.884 15.2019 15.9012C16.396 15.7952 17.5242 15.622 18.5474 15.3855C18.5977 15.5887 18.6425 15.7881 18.6811 15.983ZM8.42139 20.6988C7.66081 20.9674 7.05506 20.9751 6.68888 20.7639C5.90971 20.3145 5.58579 18.5798 6.02764 16.2528C6.07824 15.9863 6.13848 15.7125 6.20791 15.4327C7.21981 15.6565 8.33974 15.8175 9.53674 15.9145C10.2202 16.8763 10.936 17.7603 11.6572 18.5343C11.4996 18.6864 11.3427 18.8313 11.1866 18.9677C10.2282 19.8055 9.26778 20.3998 8.42139 20.6988ZM4.8582 13.9668C3.65372 13.5551 2.65901 13.0201 1.97719 12.4362C1.36453 11.9115 1.05521 11.3906 1.05521 10.968C1.05521 10.0685 2.39621 8.92122 4.63277 8.14143C4.90415 8.04681 5.18823 7.95764 5.48304 7.87388C5.79214 8.87936 6.19762 9.93061 6.68695 10.9936C6.19129 12.0725 5.78005 13.1405 5.46791 14.1577C5.25774 14.0973 5.05412 14.0337 4.8582 13.9668ZM6.05261 5.83654C5.58839 3.46408 5.8967 1.67437 6.67253 1.22527C7.49892 0.746848 9.32631 1.42898 11.2523 3.13915C11.3754 3.24845 11.499 3.36286 11.623 3.48122C10.9053 4.25186 10.1961 5.12922 9.51867 6.08527C8.35693 6.19295 7.24487 6.36593 6.22242 6.59755C6.15814 6.33897 6.1012 6.08492 6.05261 5.83654ZM16.7078 8.46759C16.4634 8.0454 16.2125 7.6332 15.9567 7.23224C16.7448 7.33188 17.4999 7.46414 18.2091 7.62598C17.9962 8.30829 17.7308 9.02169 17.4185 9.75302C17.1944 9.32762 16.9574 8.89871 16.7078 8.46759ZM12.3627 4.23538C12.8494 4.76269 13.3368 5.35144 13.8163 5.99021C13.3331 5.96739 12.844 5.95552 12.3509 5.95552C11.8624 5.95552 11.3769 5.96713 10.8967 5.98955C11.3767 5.35671 11.8683 4.76876 12.3627 4.23538ZM7.98966 8.47489C7.7455 8.89827 7.5129 9.32485 7.29236 9.75223C6.98506 9.02345 6.72217 8.3068 6.50742 7.61482C7.2122 7.4571 7.96376 7.32814 8.74689 7.2304C8.48747 7.63504 8.23447 8.05028 7.98966 8.4748V8.47489ZM8.76944 14.7808C7.96033 14.6905 7.19747 14.5682 6.49287 14.4149C6.71104 13.7105 6.97974 12.9786 7.29354 12.2341C7.51466 12.6612 7.74818 13.0879 7.99383 13.5122H7.99388C8.2441 13.9445 8.50334 14.3679 8.76944 14.7808ZM12.3919 17.7749C11.8917 17.2353 11.3928 16.6384 10.9056 15.9963C11.3786 16.0149 11.8608 16.0244 12.3509 16.0244C12.8544 16.0244 13.3521 16.013 13.842 15.9912C13.361 16.6449 12.8753 17.2427 12.3919 17.7749ZM17.4285 12.1961C17.7587 12.9487 18.037 13.6768 18.258 14.3691C17.5418 14.5325 16.7685 14.6641 15.9538 14.7619C16.2102 14.3555 16.4633 13.9363 16.7121 13.505C16.9637 13.0686 17.2026 12.6316 17.4285 12.1961ZM15.798 12.9778C15.4119 13.6473 15.0154 14.2864 14.613 14.8897C13.88 14.9421 13.1227 14.9691 12.3509 14.9691C11.5822 14.9691 10.8344 14.9452 10.1144 14.8985C9.69573 14.2873 9.29069 13.6463 8.90702 12.9835H8.90711C8.52445 12.3226 8.17226 11.6561 7.85313 10.9933C8.17217 10.329 8.52344 9.6617 8.9039 9.00194L8.90381 9.00208C9.28528 8.34057 9.68676 7.70267 10.1016 7.09528C10.8362 7.03975 11.5895 7.01077 12.3508 7.01077H12.3509C13.1156 7.01077 13.8699 7.03997 14.6043 7.09599C15.0128 7.69893 15.4115 8.33476 15.7945 8.99636C16.1818 9.66539 16.5376 10.3282 16.8594 10.9783C16.5386 11.6395 16.1836 12.3091 15.798 12.9778ZM17.9748 1.19388C18.802 1.6709 19.1237 3.59471 18.604 6.11742C18.5708 6.27839 18.5335 6.44235 18.493 6.6085C17.4681 6.37204 16.3553 6.19608 15.1902 6.08677C14.5114 5.1202 13.808 4.24149 13.102 3.48074C13.2919 3.29814 13.4814 3.12402 13.6702 2.95971C15.4938 1.37266 17.1983 0.746056 17.9748 1.19388ZM12.3509 8.76218C13.5691 8.76218 14.5567 9.74972 14.5567 10.968C14.5567 12.1862 13.5691 13.1737 12.3509 13.1737C11.1327 13.1737 10.1451 12.1862 10.1451 10.968C10.1451 9.74972 11.1327 8.76218 12.3509 8.76218Z" fill="#257BC2"/>
</g>
<defs>
<clipPath id="clip0_9_12">
<rect width="24.7018" height="22" fill="white"/>
</clipPath>
</defs>
</svg>
