<svg viewBox="0 0 28 28" fill="none" xmlns="http://www.w3.org/2000/svg">
<path d="M17.9424 17.8472C18.6984 17.7688 19.2696 17.1192 19.2416 16.3408C19.2136 15.5624 18.564 14.9352 17.7856 14.9352H17.7352C16.9288 14.9632 16.3072 15.6352 16.3296 16.4416C16.3576 16.8336 16.5144 17.1696 16.744 17.4048C15.8592 19.1464 14.5096 20.4232 12.4768 21.4872C11.0992 22.2152 9.66564 22.4784 8.23764 22.2936C7.06724 22.1368 6.15444 21.616 5.58324 20.7592C4.74884 19.4824 4.67044 18.1048 5.37604 16.7272C5.86884 15.736 6.65284 15.008 7.14564 14.644C7.03924 14.308 6.88804 13.7312 6.80964 13.3168C3.04084 16.0496 3.42724 19.74 4.57524 21.4872C5.43204 22.7864 7.17364 23.5928 9.10004 23.5928C9.62084 23.5928 10.1416 23.5424 10.6624 23.408C13.9888 22.764 16.5144 20.7872 17.9424 17.8472ZM22.5232 14.6216C20.5464 12.3088 17.6344 11.032 14.3024 11.032H13.888C13.6528 10.5616 13.16 10.2536 12.6112 10.2536H12.5608C11.7544 10.2816 11.1328 10.9536 11.1552 11.76C11.1832 12.5384 11.8328 13.1656 12.6112 13.1656H12.6616C13.2328 13.1376 13.7256 12.7736 13.9384 12.2808H14.4088C16.3856 12.2808 18.256 12.852 19.9472 13.972C21.2464 14.8288 22.1816 15.9488 22.7024 17.304C23.1448 18.396 23.1168 19.4656 22.652 20.3728C21.924 21.7504 20.7032 22.5064 19.0904 22.5064C18.0488 22.5064 17.0632 22.1928 16.5424 21.9576C16.2568 22.2152 15.736 22.6352 15.372 22.8928C16.492 23.4136 17.6344 23.6992 18.7264 23.6992C21.224 23.6992 23.072 22.3216 23.772 20.944C24.5224 19.4376 24.472 16.8336 22.5232 14.6216ZM9.30724 18.2896C9.33524 19.068 9.98484 19.6952 10.7632 19.6952H10.8136C11.62 19.6672 12.2416 18.9952 12.2192 18.1888C12.1912 17.4104 11.5416 16.7832 10.7632 16.7832H10.7128C10.6624 16.7832 10.584 16.7832 10.528 16.8112C9.46404 15.0416 9.02164 13.1152 9.17284 11.0376C9.27924 9.47518 9.79444 8.12558 10.7072 7.00558C11.4632 6.04238 12.9192 5.57758 13.9048 5.54958C16.66 5.49918 17.8304 8.93198 17.9088 10.3096C18.2448 10.388 18.8216 10.5672 19.208 10.7016C18.8944 6.49038 16.296 4.30078 13.7984 4.30078C11.4576 4.30078 9.29604 5.99198 8.43924 8.48958C7.24084 11.8216 8.02484 15.0192 9.48084 17.5392C9.35764 17.7184 9.27924 18.004 9.30724 18.2896Z" fill="#764ABC"/>
</svg>
