<svg viewBox="0 0 24 15" fill="none" xmlns="http://www.w3.org/2000/svg">
<g clip-path="url(#clip0_9_15)">
<path d="M12 0.019165C8.80003 0.019165 6.79997 1.6192 6 4.81916C7.2 3.21913 8.59997 2.61913 10.2 3.01916C11.1128 3.24735 11.7653 3.9097 12.4876 4.64273C13.6642 5.83701 15.0258 7.21916 18 7.21916C21.2 7.21916 23.2 5.61913 24 2.41916C22.8 4.0192 21.4 4.6192 19.8 4.21916C18.8872 3.99098 18.2347 3.32863 17.5124 2.5956C16.3358 1.40132 14.9742 0.019165 12 0.019165ZM6 7.21916C2.80003 7.21916 0.799969 8.8192 0 12.0192C1.2 10.4191 2.59997 9.81913 4.2 10.2192C5.11284 10.4474 5.76534 11.1097 6.48759 11.8427C7.66416 13.037 9.02578 14.4192 12 14.4192C15.2 14.4192 17.2 12.8191 18 9.61916C16.8 11.2192 15.4 11.8192 13.8 11.4192C12.8872 11.191 12.2347 10.5286 11.5124 9.7956C10.3358 8.60132 8.97422 7.21916 6 7.21916Z" fill="url(#paint0_linear_9_15)"/>
</g>
<defs>
<linearGradient id="paint0_linear_9_15" x1="-0.66672" y1="4.62717" x2="20.0612" y2="16.5785" gradientUnits="userSpaceOnUse">
<stop stop-color="#2298BD"/>
<stop offset="1" stop-color="#0ED7B5"/>
</linearGradient>
<clipPath id="clip0_9_15">
<rect width="24" height="14.4384" fill="white"/>
</clipPath>
</defs>
</svg>
