<svg viewBox="0 0 22 22" fill="none" xmlns="http://www.w3.org/2000/svg">
<g clip-path="url(#clip0_9_9)">
<path d="M0 0H22V22H0V0Z" fill="#017ACB"/>
<path d="M10.5634 8.14688H11.6187V9.96875H8.7656V18.0744L8.68998 18.095C8.58685 18.1225 7.22904 18.1225 6.93685 18.0916L6.7031 18.0709V9.96875H3.84998V8.14688L4.75404 8.13657C5.24904 8.12969 6.52091 8.12969 7.57966 8.13657C8.63841 8.14344 9.97904 8.14688 10.5634 8.14688V8.14688ZM18.6175 17.215C18.1981 17.6584 17.7478 17.9059 16.9984 18.1088C16.6719 18.1981 16.6169 18.2016 15.8812 18.1981C15.1456 18.1947 15.0872 18.1947 14.7297 18.1019C13.805 17.8647 13.059 17.4006 12.5503 16.7441C12.4059 16.5584 12.1687 16.1734 12.1687 16.1253C12.1687 16.1116 12.2031 16.0806 12.2478 16.06C12.2925 16.0394 12.3853 15.9809 12.4609 15.9363C12.5365 15.8916 12.674 15.8091 12.7669 15.7609C12.8597 15.7128 13.1278 15.5547 13.3615 15.4138C13.5953 15.2728 13.8084 15.1594 13.8325 15.1594C13.8565 15.1594 13.9012 15.2075 13.9356 15.2659C14.1419 15.6131 14.6231 16.0566 14.9634 16.2078C15.1731 16.2972 15.6372 16.3969 15.8606 16.3969C16.0669 16.3969 16.445 16.3075 16.6478 16.2147C16.8644 16.115 16.9744 16.0153 17.105 15.8159C17.1944 15.675 17.2047 15.6372 17.2012 15.3691C17.2012 15.1216 17.1875 15.0528 17.1187 14.9394C16.9262 14.6231 16.665 14.4581 15.6062 13.9906C14.5131 13.5059 14.0215 13.2172 13.6228 12.8288C13.3272 12.54 13.2687 12.4609 13.0831 12.1C12.8425 11.6359 12.8115 11.4847 12.8081 10.7938C12.8047 10.3091 12.815 10.1509 12.8665 9.98594C12.9387 9.73844 13.1725 9.26063 13.279 9.14032C13.499 8.8825 13.5781 8.80344 13.7328 8.67625C14.2003 8.29125 14.929 8.03688 15.6269 8.01282C15.7059 8.01282 15.9672 8.02657 16.2112 8.04375C16.9125 8.10219 17.3903 8.27407 17.8509 8.64188C18.1981 8.91688 18.724 9.56313 18.6725 9.64907C18.6381 9.70063 17.2665 10.615 17.1772 10.6425C17.1222 10.6597 17.0844 10.6391 17.0087 10.5497C16.5412 9.98938 16.3522 9.86907 15.8984 9.84157C15.5753 9.82094 15.4034 9.85875 15.1869 10.0031C14.96 10.1544 14.85 10.3847 14.85 10.7044C14.8534 11.1719 15.0322 11.3919 15.6922 11.7184C16.1184 11.9281 16.4828 12.1 16.5103 12.1C16.5515 12.1 17.435 12.54 17.6653 12.6775C18.7378 13.3066 19.1744 13.9528 19.2878 15.0666C19.3703 15.9053 19.1331 16.6719 18.6175 17.215V17.215Z" fill="white"/>
</g>
<defs>
<clipPath id="clip0_9_9">
<rect width="22" height="22" fill="white"/>
</clipPath>
</defs>
</svg>
